<svg width="12" height="13" viewBox="0 0 12 13" fill="none" xmlns="http://www.w3.org/2000/svg">
<path d="M0.00115301 10.0024V2.43997C0.00115301 2.19575 0.14528 1.88239 0.343598 1.69059C0.39779 1.63817 0.469853 1.6036 0.524045 1.56848H0.541917C1.40668 0.923912 2.54182 0.453313 3.83896 0.191808C4.52385 0.0696976 5.24449 0 6.00086 0C6.75724 0 7.47845 0.0696976 8.16277 0.191808C9.45991 0.453313 10.5951 0.923912 11.4598 1.56848H11.4777C11.5319 1.6036 11.5861 1.63817 11.6397 1.69059C11.838 1.88239 12 2.19575 12 2.43997V10.0024C12 10.56 11.6034 10.9955 11.081 11.1176V12.1285C11.081 12.5991 10.6844 13 10.1984 13C9.69397 13 9.29733 12.5991 9.29733 12.1285V11.1527H2.70324V12.1285C2.70324 12.5991 2.28873 13 1.80216 13C1.29772 13 0.901081 12.5991 0.901081 12.1285V11.1176C0.378765 10.9955 0 10.56 0 10.0024H0.00115301ZM9.00908 1.30809H2.9915C2.66692 1.30809 2.39712 1.56959 2.39712 1.88295C2.39712 2.17903 2.6675 2.44053 2.9915 2.44053H9.00908C9.33365 2.44053 9.58559 2.17903 9.58559 1.88295C9.58559 1.56903 9.33308 1.30809 9.00908 1.30809ZM1.80274 7.09299H10.18C10.5045 7.09299 10.7743 6.8142 10.7743 6.50028V3.62539C10.7743 3.31147 10.504 3.03268 10.18 3.03268H1.80274C1.47816 3.03268 1.22623 3.31147 1.22623 3.62539V6.50028C1.22623 6.8142 1.47874 7.09299 1.80274 7.09299ZM2.45131 10.0024C2.97362 10.0024 3.38813 9.58426 3.38813 9.07909C3.38813 8.55608 2.97362 8.15574 2.45131 8.15574C1.91055 8.15574 1.49661 8.55664 1.49661 9.07909C1.49661 9.58426 1.91112 10.0024 2.45131 10.0024ZM9.5314 10.0024C10.0722 10.0024 10.5045 9.58426 10.5045 9.07909C10.5045 8.55608 10.0722 8.15574 9.5314 8.15574C9.00908 8.15574 8.59457 8.55664 8.59457 9.07909C8.59457 9.58426 9.00908 10.0024 9.5314 10.0024Z" fill="black"/>
</svg>
