<svg width="19" height="19" viewBox="0 0 19 19" fill="none" xmlns="http://www.w3.org/2000/svg">
<path fill-rule="evenodd" clip-rule="evenodd" d="M14.3082 18.9263C12.4633 18.4641 8.68662 17.161 5.26276 13.7372C1.83893 10.3134 0.535879 6.5367 0.0736622 4.69187C-0.191962 3.63169 0.286365 2.60863 1.09742 2.0293L3.22367 0.510551C4.46775 -0.378074 6.19843 -0.0765326 7.06868 1.18048L8.40726 3.11404C8.97548 3.9348 8.7795 5.05972 7.96717 5.63995L6.89982 6.40236C7.06136 7.02026 7.56379 8.28921 9.13731 9.86271C10.7108 11.4362 11.9798 11.9386 12.5977 12.1001L13.36 11.0328C13.9403 10.2205 15.0652 10.0244 15.886 10.5927L17.8196 11.9313C19.0765 12.8016 19.3781 14.5322 18.4894 15.7763L16.9707 17.9026C16.3913 18.7136 15.3683 19.192 14.3082 18.9263ZM6.55427 12.4457C9.6679 15.5593 13.1039 16.7417 14.752 17.1546C14.9929 17.2149 15.2841 17.1213 15.4844 16.8409L17.0032 14.7147C17.2994 14.3 17.1989 13.7232 16.7798 13.433L14.8463 12.0944L14.0282 13.2399C13.6938 13.708 13.0755 14.0751 12.3555 13.9198C11.4568 13.7259 9.79566 13.1041 7.8458 11.1542C5.89595 9.20436 5.27412 7.54318 5.08022 6.64456C4.92487 5.92456 5.29203 5.30622 5.76014 4.97185L6.90557 4.15368L5.56695 2.22013C5.27687 1.80112 4.69998 1.70061 4.28529 1.99682L2.15904 3.51557C1.87864 3.71585 1.78503 4.00708 1.84538 4.24798C2.25833 5.89614 3.4407 9.33212 6.55427 12.4457Z" fill="#0F0F0F"/>
</svg>
