<svg width="63" height="63" viewBox="0 0 63 63" fill="none" xmlns="http://www.w3.org/2000/svg">
<circle cx="31.5" cy="31.5" r="31" stroke="#FF5C00"/>
<path d="M26.3969 36.0953C21.9257 36.0953 13 38.3393 13 42.7938V46.143H39.7938V42.7938C39.7938 38.3393 30.8681 36.0953 26.3969 36.0953Z" fill="#FF5C00"/>
<path d="M48.3344 22.4305C48.3511 22.2463 48.3679 22.0621 48.3679 21.8612C48.3679 21.6602 48.3511 21.476 48.3176 21.2918L49.5568 20.3205C49.6741 20.2368 49.6908 20.0693 49.6238 19.9521L48.4516 17.9258C48.3846 17.7918 48.2171 17.7583 48.0999 17.7918L46.6597 18.378C46.3583 18.1435 46.0234 17.9593 45.6717 17.8086L45.454 16.2512C45.4205 16.1005 45.3033 16 45.1526 16H42.8081C42.6574 16 42.5402 16.1005 42.5234 16.2512L42.3057 17.8086C41.9541 17.9593 41.6192 18.1603 41.3177 18.378L39.8608 17.7918C39.7268 17.7416 39.5761 17.7918 39.5091 17.9258L38.3369 19.9521C38.2699 20.0861 38.2867 20.2368 38.4039 20.3205L39.6431 21.2918C39.6096 21.476 39.5929 21.6769 39.5929 21.8612C39.5929 22.0454 39.6096 22.2463 39.6431 22.4305L38.4039 23.4018C38.2867 23.4855 38.2699 23.653 38.3369 23.7702L39.5091 25.7965C39.5761 25.9305 39.7436 25.964 39.8608 25.9305L41.3177 25.3444C41.6192 25.5788 41.9541 25.763 42.3057 25.9137L42.5234 27.4711C42.5402 27.6218 42.6574 27.7223 42.8081 27.7223H45.1526C45.3033 27.7223 45.4205 27.6218 45.4373 27.4711L45.655 25.9137C46.0066 25.763 46.3416 25.562 46.643 25.3444L48.0999 25.9305C48.2339 25.9807 48.3846 25.9305 48.4516 25.7965L49.6238 23.7702C49.6908 23.6362 49.6741 23.4855 49.5568 23.4018L48.3344 22.4305ZM43.9804 23.9544C42.8249 23.9544 41.8871 23.0166 41.8871 21.8612C41.8871 20.7057 42.8249 19.7679 43.9804 19.7679C45.1358 19.7679 46.0736 20.7057 46.0736 21.8612C46.0736 23.0166 45.1358 23.9544 43.9804 23.9544Z" fill="#FF5C00"/>
<path d="M44.6837 30.5356L43.8464 29.0787C43.7962 28.9783 43.6789 28.9448 43.5952 28.9783L42.5569 29.3969C42.3392 29.2294 42.1048 29.0955 41.8536 28.995L41.7029 27.8898C41.6694 27.7893 41.5689 27.7223 41.4684 27.7223H39.7938C39.6934 27.7223 39.6096 27.7893 39.5929 27.9065L39.4422 29.0117C39.191 29.1122 38.9565 29.2629 38.7388 29.4137L37.7006 28.995C37.6001 28.9615 37.4996 28.995 37.4494 29.0955L36.6121 30.5524C36.5618 30.6529 36.5786 30.7533 36.6623 30.8203L37.5498 31.5069C37.5331 31.6409 37.5164 31.7749 37.5164 31.9088C37.5164 32.0428 37.5331 32.1935 37.5498 32.3107L36.6623 32.9973C36.5786 33.0643 36.5618 33.1815 36.6121 33.2653L37.4494 34.7222C37.4996 34.8227 37.6168 34.8561 37.7006 34.8227L38.7388 34.404C38.9565 34.5715 39.191 34.7054 39.4422 34.8059L39.5929 35.9112C39.6096 36.0284 39.6934 36.0954 39.7938 36.0954H41.4684C41.5689 36.0954 41.6694 36.0284 41.6694 35.9112L41.8201 34.8059C42.0713 34.7054 42.3057 34.5547 42.5234 34.404L43.5617 34.8227C43.6622 34.8561 43.7627 34.8227 43.8129 34.7222L44.6502 33.2653C44.7004 33.1648 44.6837 33.0643 44.6 32.9973L43.7292 32.3107C43.7459 32.1768 43.7627 32.0428 43.7627 31.9088C43.7627 31.7749 43.7459 31.6241 43.7292 31.5069L44.6167 30.8203C44.7004 30.7533 44.7172 30.6361 44.6837 30.5356ZM40.6311 33.2988C39.8608 33.2988 39.2412 32.6624 39.2412 31.9088C39.2412 31.1385 39.8776 30.5189 40.6311 30.5189C41.3847 30.5189 42.0211 31.1553 42.0211 31.9088C42.0211 32.6792 41.4015 33.2988 40.6311 33.2988Z" fill="#FF5C00"/>
<path d="M19.2631 26.0477H33.5475C33.9997 26.0477 34.3681 25.6793 34.3681 25.2271V25.1936C34.3681 24.7415 33.9997 24.3731 33.5475 24.3731H33.0954C33.0954 21.8947 31.7389 19.7679 29.7462 18.5957V20.1865C29.7462 20.6554 29.3777 21.0239 28.9088 21.0239C28.44 21.0239 28.0715 20.6554 28.0715 20.1865V17.9091C27.5357 17.7751 26.983 17.6746 26.3969 17.6746C25.8108 17.6746 25.2582 17.7751 24.7223 17.9091V20.1865C24.7223 20.6554 24.3539 21.0239 23.885 21.0239C23.4161 21.0239 23.0477 20.6554 23.0477 20.1865V18.5957C21.0549 19.7679 19.6985 21.8947 19.6985 24.3731H19.2631C18.8109 24.3731 18.4425 24.7415 18.4425 25.1936V25.2439C18.4425 25.6793 18.8109 26.0477 19.2631 26.0477Z" fill="#FF5C00"/>
<path d="M26.3969 32.7461C29.5117 32.7461 32.1074 30.6026 32.8609 27.7223H19.9329C20.6865 30.6026 23.2822 32.7461 26.3969 32.7461Z" fill="#FF5C00"/>
</svg>
