<svg width="63" height="63" viewBox="0 0 63 63" fill="none" xmlns="http://www.w3.org/2000/svg">
<circle cx="31.5" cy="31.5" r="31" stroke="#FF5C00"/>
<path d="M21.3333 24.0833H34V27.25H21.3333V24.0833Z" fill="#FF5C00"/>
<path d="M21.3333 30.4167H40.3333V33.5834H21.3333V30.4167Z" fill="#FF5C00"/>
<path d="M21.3333 36.75H26.0675V39.9166H21.3333V36.75Z" fill="#FF5C00"/>
<path d="M34 17.75L29.25 13V16.1667H18.1667C17.3268 16.1667 16.5214 16.5003 15.9275 17.0942C15.3336 17.688 15 18.4935 15 19.3333V44.6667C15 45.5065 15.3336 46.312 15.9275 46.9059C16.5214 47.4997 17.3268 47.8334 18.1667 47.8334H24.5V44.6667H18.1667V19.3333H29.25V22.5L34 17.75Z" fill="#FF5C00"/>
<path d="M27.6667 46.25L32.4167 51V47.8333H43.5C44.3399 47.8333 45.1453 47.4997 45.7392 46.9058C46.3331 46.312 46.6667 45.5065 46.6667 44.6667V19.3333C46.6667 18.4935 46.3331 17.688 45.7392 17.0942C45.1453 16.5003 44.3399 16.1667 43.5 16.1667H37.1667V19.3333H43.5V44.6667H32.4167V41.5L27.6667 46.25Z" fill="#FF5C00"/>
</svg>
