<svg width="64" height="63" viewBox="0 0 64 63" fill="none" xmlns="http://www.w3.org/2000/svg">
<path d="M25.2429 15.75C24.518 15.75 23.9304 16.3376 23.9304 17.0625C23.9304 17.7874 24.518 18.375 25.2429 18.375H40.9929C41.7178 18.375 42.3054 17.7874 42.3054 17.0625C42.3054 16.3376 41.7178 15.75 40.9929 15.75H25.2429Z" fill="#FF5C00"/>
<path d="M23.9304 22.3125C23.9304 21.5876 24.518 21 25.2429 21H40.9929C41.7178 21 42.3054 21.5876 42.3054 22.3125C42.3054 23.0374 41.7178 23.625 40.9929 23.625H25.2429C24.518 23.625 23.9304 23.0374 23.9304 22.3125Z" fill="#FF5C00"/>
<path d="M20.9209 17.9905C21.4335 17.478 21.4335 16.6469 20.9209 16.1344C20.4084 15.6219 19.5773 15.6219 19.0648 16.1344L14.7429 20.4563L13.0459 18.7594C12.5334 18.2469 11.7023 18.2469 11.1898 18.7594C10.6772 19.2719 10.6772 20.103 11.1898 20.6155L14.7429 24.1686L20.9209 17.9905Z" fill="#FF5C00"/>
<path d="M23.9304 32.8123C23.9304 32.0874 24.518 31.4998 25.2429 31.4998H40.9929C41.7178 31.4998 42.3054 32.0874 42.3054 32.8123C42.3054 33.5371 41.7178 34.1248 40.9929 34.1248H25.2429C24.518 34.1248 23.9304 33.5371 23.9304 32.8123Z" fill="#FF5C00"/>
<path d="M25.2429 36.75C24.518 36.75 23.9304 37.3376 23.9304 38.0625C23.9304 38.7874 24.518 39.375 25.2429 39.375H40.9929C41.7178 39.375 42.3054 38.7874 42.3054 38.0625C42.3054 37.3376 41.7178 36.75 40.9929 36.75H25.2429Z" fill="#FF5C00"/>
<path fill-rule="evenodd" clip-rule="evenodd" d="M12.1179 31.4998H18.6804C19.4053 31.4998 19.9929 32.0874 19.9929 32.8123V39.3748C19.9929 40.0996 19.4053 40.6873 18.6804 40.6873H12.1179C11.393 40.6873 10.8054 40.0996 10.8054 39.3748V32.8123C10.8054 32.0874 11.393 31.4998 12.1179 31.4998ZM13.4304 34.1248V38.0623H17.3679V34.1248H13.4304Z" fill="#FF5C00"/>
<path fill-rule="evenodd" clip-rule="evenodd" d="M63.3054 0H0.30542V63H63.3054V0ZM10.8054 57.75H42.3054C45.2049 57.75 47.5554 55.3994 47.5554 52.5V10.5C47.5554 7.6005 45.2049 5.25 42.3054 5.25H10.8054C7.90592 5.25 5.55542 7.6005 5.55542 10.5V52.5C5.55542 55.3994 7.90592 57.75 10.8054 57.75ZM58.0554 52.5L54.1179 57.75L50.1804 52.5V30.1875H58.0554V52.5ZM55.4304 19.6875H52.8054C51.3556 19.6875 50.1804 20.8627 50.1804 22.3125V27.5625H58.0554V22.3125C58.0554 20.8627 56.8802 19.6875 55.4304 19.6875Z" fill="#FF5C00"/>
</svg>
