<svg width="66" height="64" viewBox="0 0 66 64" fill="none" xmlns="http://www.w3.org/2000/svg">
<path d="M11.8977 61.9672V42.3442M9.83209 63H13.9632M32.5534 61.9672V42.3442M30.4878 63H34.619M53.2091 61.9672V42.3442M51.1436 63H55.2747" stroke="#B4DFFB" stroke-width="2.01913" stroke-linecap="square"/>
<path fill-rule="evenodd" clip-rule="evenodd" d="M16.0288 43.377C7.4729 43.377 0.536987 36.4411 0.536987 27.8852C0.536987 19.3294 7.4729 12.3934 16.0288 12.3934C18.2706 12.3934 20.4012 12.8696 22.325 13.7264C23.2013 6.00182 29.7584 0 37.7173 0C46.2732 0 53.2091 6.93592 53.2091 15.4918C53.2091 16.5542 53.1022 17.5917 52.8984 18.594C53.0017 18.5914 53.1053 18.5902 53.2091 18.5902C60.0538 18.5902 65.6026 24.1389 65.6026 30.9836C65.6026 37.8283 60.0538 43.377 53.2091 43.377H16.0288Z" fill="#4796E7"/>
<path fill-rule="evenodd" clip-rule="evenodd" d="M4.66815 50.6067H20.16V59.9018H4.66815V50.6067Z" fill="#FF5C00"/>
<path fill-rule="evenodd" clip-rule="evenodd" d="M25.3239 50.6067H40.8157V59.9018H25.3239V50.6067Z" fill="#FF5C00"/>
<path fill-rule="evenodd" clip-rule="evenodd" d="M45.9796 50.6067H61.4714V59.9018H45.9796V50.6067Z" fill="#FF5C00"/>
<path d="M16.0288 16.5247C9.75449 16.5247 4.66815 21.611 4.66815 27.8853" stroke="white" stroke-width="2.01913" stroke-linecap="round"/>
</svg>
