<svg width="63" height="63" viewBox="0 0 63 63" fill="none" xmlns="http://www.w3.org/2000/svg">
<circle cx="31.5" cy="31.5" r="31" stroke="#FF5C00"/>
<path d="M46.9504 38.9352L45.3339 29.2477C45.1765 28.3152 44.3712 27.6311 43.4207 27.6311H28.5993V23.7561H34.4116C34.9444 23.7561 35.3803 23.3201 35.3803 22.7873V16.9688C35.3803 16.4359 34.9444 16 34.4116 16H18.9122C18.3794 16 17.9435 16.4359 17.9435 16.9688V22.7812C17.9435 23.3141 18.3794 23.75 18.9122 23.75H24.7245V27.625H19.5842C18.6397 27.625 17.8284 28.3092 17.671 29.2416L16.0545 38.9291C16.0182 39.141 16 39.3529 16 39.5648V45.0625C16 46.1342 16.8658 47 17.9374 47H45.0614C46.1331 47 46.9989 46.1342 46.9989 45.0625V39.5709C47.0049 39.359 46.9867 39.1471 46.9504 38.9352ZM32.9586 31.0156C32.9586 30.4828 33.3945 30.0469 33.9273 30.0469H34.896C35.4288 30.0469 35.8647 30.4828 35.8647 31.0156V31.9844C35.8647 32.5172 35.4288 32.9531 34.896 32.9531H33.9273C33.3945 32.9531 32.9586 32.5172 32.9586 31.9844V31.0156ZM31.0211 34.8906H31.9898C32.5226 34.8906 32.9586 35.3266 32.9586 35.8594V36.8281C32.9586 37.3609 32.5226 37.7969 31.9898 37.7969H31.0211C30.4883 37.7969 30.0524 37.3609 30.0524 36.8281V35.8594C30.0524 35.3266 30.4883 34.8906 31.0211 34.8906ZM29.0837 30.0469C29.6165 30.0469 30.0524 30.4828 30.0524 31.0156V31.9844C30.0524 32.5172 29.6165 32.9531 29.0837 32.9531H28.115C27.5822 32.9531 27.1463 32.5172 27.1463 31.9844V31.0156C27.1463 30.4828 27.5822 30.0469 28.115 30.0469H29.0837ZM20.8496 20.8438V18.9062H32.4742V20.8438H20.8496ZM23.2714 32.9531H22.3027C21.7699 32.9531 21.334 32.5172 21.334 31.9844V31.0156C21.334 30.4828 21.7699 30.0469 22.3027 30.0469H23.2714C23.8042 30.0469 24.2401 30.4828 24.2401 31.0156V31.9844C24.2401 32.5172 23.8042 32.9531 23.2714 32.9531ZM24.2401 36.8281V35.8594C24.2401 35.3266 24.676 34.8906 25.2088 34.8906H26.1776C26.7103 34.8906 27.1463 35.3266 27.1463 35.8594V36.8281C27.1463 37.3609 26.7103 37.7969 26.1776 37.7969H25.2088C24.676 37.7969 24.2401 37.3609 24.2401 36.8281ZM37.3178 43.6094C37.3178 43.8758 37.0998 44.0938 36.8334 44.0938H26.1776C25.9112 44.0938 25.6932 43.8758 25.6932 43.6094V42.6406C25.6932 42.3742 25.9112 42.1562 26.1776 42.1562H36.8334C37.0998 42.1562 37.3178 42.3742 37.3178 42.6406V43.6094ZM38.7708 36.8281C38.7708 37.3609 38.3349 37.7969 37.8021 37.7969H36.8334C36.3006 37.7969 35.8647 37.3609 35.8647 36.8281V35.8594C35.8647 35.3266 36.3006 34.8906 36.8334 34.8906H37.8021C38.3349 34.8906 38.7708 35.3266 38.7708 35.8594V36.8281ZM41.677 31.9844C41.677 32.5172 41.2411 32.9531 40.7083 32.9531H39.7396C39.2068 32.9531 38.7708 32.5172 38.7708 31.9844V31.0156C38.7708 30.4828 39.2068 30.0469 39.7396 30.0469H40.7083C41.2411 30.0469 41.677 30.4828 41.677 31.0156V31.9844Z" fill="#FF5C00"/>
</svg>
