<svg width="64" height="63" viewBox="0 0 64 63" fill="none" xmlns="http://www.w3.org/2000/svg">
<path d="M29.0761 9.61377H34.9198V56.7375H29.0761V9.61377Z" fill="#87796F"/>
<path d="M34.9198 18.7893C35.151 18.7893 35.338 18.6022 35.338 18.371V9.61376C35.338 9.38264 35.151 9.19556 34.9198 9.19556H29.0761C28.8449 9.19556 28.6579 9.38264 28.6579 9.61376V56.7375C28.6579 56.9686 28.8449 57.1557 29.0761 57.1557H34.9198C35.151 57.1557 35.338 56.9686 35.338 56.7375V22.3245C35.338 22.0934 35.151 21.9063 34.9198 21.9063C34.6887 21.9063 34.5016 22.0934 34.5016 22.3245V56.3193H29.4943V10.032H34.5016V18.371C34.5016 18.6019 34.6887 18.7893 34.9198 18.7893Z" fill="#3A312A"/>
<path d="M60.0926 3.7688H18.2046H14.3794H3.90327C2.28927 3.7688 0.980835 5.07723 0.980835 6.69124C0.980835 8.30524 2.28927 9.61368 3.90327 9.61368H60.0926C61.7066 9.61368 63.0151 8.30524 63.0151 6.69124C63.0151 5.07723 61.7066 3.7688 60.0926 3.7688Z" fill="#87796F"/>
<path d="M60.0926 3.35095H18.2043C17.9732 3.35095 17.7861 3.53803 17.7861 3.76916C17.7861 4.00029 17.9732 4.18737 18.2043 4.18737H60.0926C61.4735 4.18737 62.5968 5.31068 62.5968 6.6916C62.5968 8.07252 61.4735 9.19583 60.0926 9.19583H3.90327C2.52235 9.19583 1.39904 8.07252 1.39904 6.6916C1.39904 5.31095 2.52235 4.18737 3.90327 4.18737H14.3794C14.6105 4.18737 14.7976 4.00029 14.7976 3.76916C14.7976 3.53803 14.6105 3.35095 14.3794 3.35095H3.90327C2.0612 3.35095 0.562622 4.84953 0.562622 6.6916C0.562622 8.53339 2.0612 10.032 3.90327 10.032H60.0926C61.9347 10.032 63.4333 8.53339 63.4333 6.69132C63.4333 4.84953 61.9347 3.35095 60.0926 3.35095Z" fill="#3A312A"/>
<path d="M48.1439 56.7368H15.852C12.624 56.7368 10.0072 59.3537 10.0072 62.5817H53.9887C53.9887 59.3537 51.3719 56.7368 48.1439 56.7368Z" fill="#87796F"/>
<path d="M48.1441 56.3187H15.8517C12.3985 56.3187 9.58893 59.1282 9.58893 62.5818C9.58893 62.8129 9.77601 63 10.0071 63H53.9887C54.2198 63 54.4069 62.8129 54.4069 62.5818C54.4069 59.1282 51.5974 56.3187 48.1441 56.3187ZM10.4412 62.1636C10.6554 59.3658 13.0004 57.1551 15.8517 57.1551H48.1438C50.9954 57.1551 53.3402 59.3658 53.5543 62.1636H10.4412Z" fill="#3A312A"/>
<path d="M1.09515 35.1602V35.6999C1.09515 42.2287 6.38772 47.5213 12.9165 47.5213H13.996C20.5248 47.5213 25.8174 42.2287 25.8174 35.6999V35.1602H1.09515Z" fill="#FF5C00"/>
<path d="M25.8174 34.7416H1.09513C0.864004 34.7416 0.676926 34.9287 0.676926 35.1598V35.6996C0.676926 42.4486 6.16744 47.9391 12.9165 47.9391H13.996C20.7451 47.9391 26.2356 42.4486 26.2356 35.6996V35.1598C26.2356 34.9289 26.0485 34.7416 25.8174 34.7416ZM25.3992 35.6996C25.3992 41.9872 20.2836 47.1027 13.996 47.1027H12.9165C6.62887 47.1027 1.51334 41.9872 1.51334 35.6996V35.578H25.3992V35.6996Z" fill="#3A312A"/>
<path d="M26.1946 34.9795L13.9709 9.43307C13.9018 9.28837 13.756 9.19609 13.5954 9.19553C13.4373 9.18745 13.2881 9.28614 13.2179 9.43001L0.719305 34.9764C0.655737 35.106 0.663822 35.2591 0.740215 35.3815C0.816608 35.5039 0.950713 35.5783 1.09513 35.5783H25.8174C25.961 35.5783 26.0948 35.5045 26.1712 35.3832C26.2478 35.2613 26.2568 35.1091 26.1946 34.9795ZM1.76538 34.7416L13.5895 10.5737L25.1538 34.7416H1.76538Z" fill="#3A312A"/>
<path d="M38.1785 35.1602V35.6999C38.1785 42.2287 43.4711 47.5213 49.9998 47.5213H51.0794C57.6082 47.5213 62.9007 42.2287 62.9007 35.6999V35.1602H38.1785Z" fill="#FF5C00"/>
<path d="M62.9008 34.7416H38.1785C37.9474 34.7416 37.7603 34.9287 37.7603 35.1598V35.6996C37.7603 42.4486 43.2508 47.9391 49.9999 47.9391H51.0794C57.8285 47.9391 63.319 42.4486 63.319 35.6996V35.1598C63.319 34.9289 63.1319 34.7416 62.9008 34.7416ZM62.4826 35.6996C62.4826 41.9872 57.367 47.1027 51.0794 47.1027H49.9999C43.7123 47.1027 38.5967 41.9872 38.5967 35.6996V35.578H62.4826V35.6996Z" fill="#3A312A"/>
<path d="M63.278 34.9795L51.0543 9.4331C50.9851 9.2884 50.839 9.19611 50.6787 9.19556H50.6771C50.5173 9.19556 50.3715 9.28645 50.3015 9.43003L37.8029 34.9764C37.7394 35.1061 37.7475 35.2591 37.8238 35.3815C37.9002 35.5039 38.0343 35.5784 38.1788 35.5784H62.901C63.0446 35.5784 63.1784 35.5045 63.2548 35.3832C63.3312 35.2614 63.3398 35.1091 63.278 34.9795ZM38.8487 34.7417L50.6729 10.5737L62.2372 34.7417H38.8487Z" fill="#3A312A"/>
<path d="M31.9979 12.9645C35.4625 12.9645 38.271 10.1559 38.271 6.69134C38.271 3.22679 35.4625 0.418213 31.9979 0.418213C28.5334 0.418213 25.7248 3.22679 25.7248 6.69134C25.7248 10.1559 28.5334 12.9645 31.9979 12.9645Z" fill="#F56132"/>
<path d="M31.9979 0C28.3085 0 25.3066 3.0019 25.3066 6.69133C25.3066 10.3808 28.3085 13.3827 31.9979 13.3827C35.6874 13.3827 38.6893 10.3808 38.6893 6.69133C38.6893 3.0019 35.6874 0 31.9979 0ZM31.9979 12.5462C28.7694 12.5462 26.143 9.9199 26.143 6.69133C26.143 3.46276 28.7694 0.836416 31.9979 0.836416C35.2265 0.836416 37.8529 3.46276 37.8529 6.69133C37.8529 9.9199 35.2265 12.5462 31.9979 12.5462Z" fill="#3A312A"/>
<path d="M33.0087 9.12877C34.355 8.57108 34.9944 7.02753 34.4367 5.68116C33.879 4.33479 32.3354 3.69545 30.9891 4.25314C29.6427 4.81084 29.0033 6.35439 29.561 7.70076C30.1187 9.04713 31.6623 9.68647 33.0087 9.12877Z" fill="#F3DEC3"/>
<path d="M31.9979 3.63477C30.3125 3.63477 28.9414 5.00593 28.9414 6.69131C28.9414 8.37669 30.3125 9.74813 31.9979 9.74813C33.6833 9.74813 35.0545 8.37697 35.0545 6.69131C35.0545 5.00565 33.6833 3.63477 31.9979 3.63477ZM31.9979 8.91172C30.7737 8.91172 29.7778 7.91555 29.7778 6.69131C29.7778 5.46708 30.7737 4.47118 31.9979 4.47118C33.2222 4.47118 34.218 5.46708 34.218 6.69131C34.218 7.91555 33.2222 8.91172 31.9979 8.91172Z" fill="#3A312A"/>
<path d="M60.0932 4.18811H53.9594C55.3395 4.18811 56.4631 5.3117 56.4631 6.69178C56.4631 8.07187 55.3395 9.19546 53.9594 9.19546H60.0932C61.4733 9.19546 62.5968 8.07187 62.5968 6.69178C62.5968 5.3117 61.4733 4.18811 60.0932 4.18811Z" fill="#6A5C52"/>
<path d="M48.1435 57.1558H42.0098C44.862 57.1558 47.2068 59.3667 47.4214 62.1631H53.5552C53.3405 59.3667 50.9957 57.1558 48.1435 57.1558Z" fill="#6A5C52"/>
<path d="M56.3488 35.579V35.6989C56.3488 41.1188 52.5487 45.6662 47.4744 46.8204C48.2858 47.0044 49.1333 47.102 50.0004 47.102H51.0794C57.3664 47.102 62.4825 41.9887 62.4825 35.6989V35.579H56.3488Z" fill="#FF5C00"/>
</svg>
