<svg width="75" height="64" viewBox="0 0 75 64" fill="none" xmlns="http://www.w3.org/2000/svg">
<path d="M7.13062 39.6367H9.13109V41.2684C9.2259 41.4188 9.28899 41.587 9.31649 41.7626C9.34398 41.9383 9.33531 42.1177 9.291 42.2899C9.13109 42.8414 8.9255 43.344 8.05416 43.0078C7.18283 42.6717 7.13062 41.0596 7.13062 39.6367Z" fill="#FFC9B0"/>
<path d="M8.54687 43.4191C8.33746 43.4136 8.13075 43.3705 7.93661 43.2918C6.89231 42.8871 6.8042 41.2587 6.8042 39.6237C6.8042 39.5372 6.83858 39.4541 6.89978 39.3929C6.96098 39.3317 7.04399 39.2974 7.13054 39.2974H9.13102C9.21757 39.2974 9.30058 39.3317 9.36178 39.3929C9.42298 39.4541 9.45736 39.5372 9.45736 39.6237V41.1575C9.66037 41.5236 9.71303 41.9543 9.60421 42.3585C9.57381 42.5571 9.50167 42.747 9.39254 42.9158C9.28342 43.0845 9.13979 43.2283 8.97111 43.3375C8.83829 43.3983 8.69278 43.4263 8.54687 43.4191ZM7.45688 39.95C7.45688 40.9552 7.52868 42.4335 8.17157 42.6815C8.32871 42.7616 8.50942 42.7825 8.68067 42.7403C8.82426 42.6717 8.90911 42.4139 8.97764 42.1757C9.00816 42.0501 9.01349 41.9196 8.99332 41.7919C8.97316 41.6642 8.9279 41.5418 8.86015 41.4316C8.82429 41.3762 8.80504 41.3117 8.80468 41.2456V39.9403L7.45688 39.95Z" fill="#093F68"/>
<path d="M19.9363 39.6367H17.9358V41.2684C17.8404 41.4186 17.7768 41.5866 17.7487 41.7623C17.7206 41.938 17.7288 42.1175 17.7726 42.2899C17.9358 42.8414 18.1414 43.344 19.0095 43.0078C19.8775 42.6717 19.9363 41.0596 19.9363 39.6367Z" fill="#FFC9B0"/>
<path d="M18.5199 43.4189C18.3719 43.4217 18.2254 43.3893 18.0924 43.3243C17.9237 43.2151 17.7801 43.0714 17.671 42.9026C17.5619 42.7339 17.4897 42.5439 17.4593 42.3453C17.3511 41.9407 17.405 41.5098 17.6094 41.1443V39.6105C17.6094 39.524 17.6438 39.441 17.705 39.3798C17.7662 39.3186 17.8492 39.2842 17.9358 39.2842H19.9363C20.0228 39.2842 20.1058 39.3186 20.167 39.3798C20.2282 39.441 20.2626 39.524 20.2626 39.6105C20.2626 41.2422 20.1745 42.8739 19.1269 43.2786C18.9347 43.3614 18.729 43.4089 18.5199 43.4189ZM18.2621 39.9499V41.2553C18.262 41.3218 18.2415 41.3867 18.2034 41.4413C18.1356 41.5514 18.0904 41.6739 18.0702 41.8016C18.0501 41.9293 18.0554 42.0597 18.0859 42.1854C18.1544 42.4203 18.2425 42.6814 18.3829 42.7499C18.5541 42.7924 18.7349 42.7716 18.892 42.6912C19.5447 42.4432 19.6034 40.9648 19.6099 39.9597L18.2621 39.9499Z" fill="#093F68"/>
<path d="M11.409 25.3267H15.6514C16.2133 25.3267 16.7696 25.4373 17.2887 25.6523C17.8077 25.8673 18.2794 26.1825 18.6767 26.5798C19.0739 26.977 19.3891 27.4487 19.6041 27.9678C19.8191 28.4868 19.9298 29.0432 19.9298 29.605V39.6368H7.13062V29.605C7.13062 29.0432 7.24128 28.4868 7.45629 27.9678C7.67129 27.4487 7.98643 26.977 8.38371 26.5798C8.781 26.1825 9.25264 25.8673 9.77171 25.6523C10.2908 25.4373 10.8471 25.3267 11.409 25.3267Z" fill="white"/>
<path d="M19.9362 39.9633H7.13054C7.04399 39.9633 6.96098 39.9289 6.89978 39.8677C6.83858 39.8065 6.8042 39.7235 6.8042 39.6369V29.6052C6.80593 28.3845 7.29162 27.2143 8.15479 26.3511C9.01796 25.4879 10.1882 25.0022 11.4089 25.0005H15.6513C16.8721 25.0022 18.0423 25.4879 18.9054 26.3511C19.7686 27.2143 20.2543 28.3845 20.256 29.6052V39.6369C20.256 39.7224 20.2226 39.8044 20.1628 39.8654C20.103 39.9264 20.0216 39.9616 19.9362 39.9633ZM7.45688 39.3106H19.6099V29.6052C19.609 28.5573 19.1924 27.5526 18.4514 26.8116C17.7104 26.0707 16.7057 25.654 15.6579 25.6532H11.4154C10.3675 25.654 9.36284 26.0707 8.62188 26.8116C7.88092 27.5526 7.46427 28.5573 7.46341 29.6052L7.45688 39.3106Z" fill="#093F68"/>
<path d="M9.13103 37.7015C9.04448 37.7015 8.96147 37.6672 8.90027 37.6059C8.83907 37.5447 8.80469 37.4617 8.80469 37.3752V29.3178C8.80469 29.2312 8.83907 29.1482 8.90027 29.087C8.96147 29.0258 9.04448 28.9915 9.13103 28.9915C9.21758 28.9915 9.30059 29.0258 9.36179 29.087C9.42299 29.1482 9.45737 29.2312 9.45737 29.3178V37.3752C9.45737 37.4617 9.42299 37.5447 9.36179 37.6059C9.30059 37.6672 9.21758 37.7015 9.13103 37.7015Z" fill="#093F68"/>
<path d="M17.9358 37.6689C17.8492 37.6689 17.7662 37.6345 17.705 37.5733C17.6438 37.5121 17.6094 37.4291 17.6094 37.3426V29.3178C17.6094 29.2312 17.6438 29.1482 17.705 29.087C17.7662 29.0258 17.8492 28.9915 17.9358 28.9915C18.0223 28.9915 18.1053 29.0258 18.1665 29.087C18.2277 29.1482 18.2621 29.2312 18.2621 29.3178V37.3426C18.2621 37.4291 18.2277 37.5121 18.1665 37.5733C18.1053 37.6345 18.0223 37.6689 17.9358 37.6689Z" fill="#093F68"/>
<path d="M11.8266 12.2306C12.0225 12.1795 12.2223 12.1445 12.4239 12.1262C13.3507 12.0446 14.2971 11.9304 15.1814 12.2665C16.0768 12.6112 16.8587 13.1982 17.4396 13.9619C18.0206 14.7255 18.3777 15.6356 18.471 16.5905L18.6276 20.412L8.27278 21.8447C8.18793 21.626 7.49282 20.9472 7.48303 20.722C7.45183 20.4743 7.39159 20.2312 7.30354 19.9976C7.11334 19.3903 6.98112 18.7664 6.90867 18.1341C6.81783 17.1431 6.92884 16.144 7.23501 15.1971C7.36441 14.6089 7.65741 14.0693 8.08024 13.6404C8.53385 13.2553 9.30076 13.1705 9.69237 13.6404C10.2236 12.9424 10.9761 12.4453 11.8266 12.2306Z" fill="#725858"/>
<path d="M8.27279 22.1709C8.20705 22.1707 8.14291 22.1506 8.08875 22.1134C8.0346 22.0761 7.99296 22.0233 7.96929 21.962C7.88168 21.833 7.78575 21.7098 7.68211 21.5933C7.35577 21.1984 7.16649 20.9667 7.1567 20.7382C7.1379 20.5733 7.09956 20.4111 7.04248 20.2552C7.04248 20.203 7.00658 20.1476 6.99027 20.0921C6.79516 19.4653 6.6586 18.8219 6.58234 18.1699C6.48871 17.1274 6.60977 16.0767 6.93805 15.0827C7.0838 14.4357 7.41096 13.8437 7.88118 13.376C8.1215 13.1643 8.41981 13.0297 8.7375 12.9896C9.05518 12.9494 9.3776 13.0056 9.66301 13.1508C10.2209 12.5435 10.9449 12.1134 11.7451 11.9139C11.9592 11.8591 12.1775 11.822 12.3978 11.803L12.5609 11.7867C13.4649 11.7051 14.3982 11.617 15.2989 11.9596C16.2519 12.325 17.0841 12.9489 17.7021 13.7612C18.3201 14.5734 18.6993 15.5419 18.7973 16.5578C18.7973 16.5578 18.7973 16.5578 18.9572 20.3988C18.9579 20.4785 18.9294 20.5557 18.8771 20.6158C18.8248 20.6759 18.7523 20.7148 18.6733 20.7252L8.32174 22.1578L8.27279 22.1709ZM7.80286 20.6795C7.91549 20.8548 8.04209 21.0206 8.18142 21.1755C8.28585 21.3028 8.3707 21.404 8.4327 21.5019L18.285 20.1378C18.2491 19.2501 18.1446 16.6622 18.1414 16.6133C18.0512 15.7222 17.7159 14.8736 17.1727 14.1616C16.6295 13.4496 15.8996 12.902 15.064 12.5797C14.3003 12.2925 13.4812 12.3676 12.6164 12.4459H12.45C12.2651 12.4617 12.0818 12.4923 11.9017 12.5373C11.1316 12.7296 10.448 13.1742 9.95998 13.8002C9.93061 13.8384 9.89313 13.8696 9.85024 13.8916C9.80736 13.9137 9.76014 13.9259 9.71196 13.9275C9.66318 13.9289 9.6147 13.9194 9.57008 13.8996C9.52547 13.8799 9.48585 13.8504 9.45415 13.8132C9.19308 13.513 8.61871 13.5946 8.30216 13.8655C7.92997 14.256 7.67254 14.7415 7.5581 15.2687C7.25619 16.1772 7.14509 17.1382 7.23176 18.0916C7.30325 18.705 7.43218 19.3103 7.61684 19.8995L7.66253 20.0497C7.73683 20.2525 7.78401 20.4643 7.80286 20.6795Z" fill="#093F68"/>
<path d="M12.698 24.6904H14.3297V25.6238C14.3297 25.8064 14.2572 25.9815 14.128 26.1107C13.9989 26.2398 13.8238 26.3124 13.6411 26.3124H13.3964C13.2137 26.3124 13.0386 26.2398 12.9095 26.1107C12.7803 25.9815 12.7078 25.8064 12.7078 25.6238V24.6904H12.698Z" fill="#FFC9B0"/>
<path d="M13.6313 26.6384H13.3866C13.1174 26.6384 12.8592 26.5314 12.6689 26.3411C12.4786 26.1508 12.3716 25.8926 12.3716 25.6235V24.6901C12.3716 24.6036 12.406 24.5206 12.4672 24.4594C12.5284 24.3982 12.6114 24.3638 12.698 24.3638H14.3297C14.4162 24.3638 14.4993 24.3982 14.5605 24.4594C14.6217 24.5206 14.656 24.6036 14.656 24.6901V25.6235C14.656 25.7576 14.6295 25.8903 14.5779 26.0141C14.5262 26.1379 14.4506 26.2502 14.3553 26.3446C14.26 26.439 14.147 26.5135 14.0227 26.5639C13.8985 26.6144 13.7654 26.6397 13.6313 26.6384ZM13.0243 25.0067V25.6137C13.0243 25.6612 13.0337 25.7083 13.0519 25.7523C13.0701 25.7962 13.0968 25.8362 13.1304 25.8698C13.1641 25.9034 13.204 25.9301 13.2479 25.9483C13.2919 25.9665 13.339 25.9759 13.3866 25.9759H13.6313C13.6789 25.9759 13.726 25.9665 13.7699 25.9483C13.8139 25.9301 13.8538 25.9034 13.8875 25.8698C13.9211 25.8362 13.9478 25.7962 13.966 25.7523C13.9842 25.7083 13.9936 25.6612 13.9936 25.6137V25.0067H13.0243Z" fill="#093F68"/>
<path d="M17.4295 21.4156C18.2461 21.3402 18.8522 20.6738 18.7832 19.9272C18.7142 19.1806 17.9963 18.6365 17.1797 18.712C16.3631 18.7875 15.757 19.4539 15.826 20.2005C15.895 20.947 16.6129 21.4911 17.4295 21.4156Z" fill="#FFC9B0"/>
<path d="M17.2668 21.7564C16.8604 21.7586 16.4647 21.6267 16.1409 21.3811C15.9584 21.2461 15.8061 21.0745 15.6937 20.8773C15.5813 20.68 15.5113 20.4615 15.4882 20.2357C15.464 19.7757 15.6215 19.3247 15.9267 18.9798C16.2319 18.6349 16.6605 18.4237 17.1199 18.3918C17.5856 18.3445 18.0519 18.4751 18.4253 18.7573C18.6083 18.8917 18.7608 19.0633 18.8726 19.2608C18.9845 19.4584 19.0531 19.6774 19.0741 19.9035C19.0951 20.1295 19.0679 20.3575 18.9943 20.5722C18.9207 20.787 18.8024 20.9837 18.6472 21.1494C18.3302 21.4953 17.8943 21.7086 17.4267 21.7466C17.3736 21.7524 17.3202 21.7557 17.2668 21.7564ZM17.3223 19.038H17.2015C16.9109 19.0491 16.6366 19.1747 16.4384 19.3876C16.2403 19.6004 16.1345 19.883 16.1442 20.1737C16.1583 20.3088 16.2004 20.4396 16.2678 20.5575C16.3353 20.6755 16.4265 20.7782 16.5358 20.859C16.7824 21.039 17.0863 21.1228 17.3904 21.0945C17.6945 21.0663 17.9778 20.928 18.1871 20.7056C18.2798 20.6065 18.3509 20.4891 18.3958 20.361C18.4408 20.2329 18.4586 20.0969 18.4481 19.9615C18.4336 19.8261 18.391 19.6952 18.323 19.5772C18.255 19.4592 18.1631 19.3567 18.0533 19.2762C17.844 19.1204 17.5897 19.0368 17.3288 19.038H17.3223Z" fill="#093F68"/>
<path d="M13.4421 24.8698C12.8207 24.9273 12.194 24.8618 11.5979 24.6771C11.0018 24.4924 10.4479 24.1921 9.96785 23.7933C9.48782 23.3944 9.09106 22.905 8.80023 22.3528C8.50939 21.8006 8.33018 21.1966 8.27283 20.5751L9.13111 19.2959C9.13111 19.2959 11.0467 17.2562 10.5931 15.9705C10.5931 15.9705 13.3442 17.4521 15.0869 17.1486C17.3419 16.7602 17.4659 16.7243 17.4659 16.7243L17.74 19.7006C17.8552 20.9559 17.4672 22.2056 16.6613 23.175C15.8553 24.1443 14.6974 24.754 13.4421 24.8698Z" fill="#FFC9B0"/>
<path d="M12.9982 25.2188C11.7332 25.2154 10.5148 24.7408 9.58077 23.8876C8.64675 23.0344 8.06407 21.8639 7.94642 20.6043C7.93989 20.5293 7.95949 20.4544 8.0019 20.3922L8.86018 19.1129L8.89281 19.0738C9.38885 18.5451 10.6028 16.9787 10.283 16.078C10.2616 16.0157 10.2594 15.9484 10.2769 15.8849C10.2944 15.8214 10.3306 15.7647 10.3809 15.7222C10.4299 15.6806 10.4901 15.6543 10.554 15.6468C10.6179 15.6392 10.6826 15.6507 10.7399 15.6798C10.766 15.6798 13.4127 17.1027 15.0248 16.8253C17.1068 16.463 17.3581 16.4076 17.381 16.4043C17.4267 16.3932 17.4743 16.3921 17.5205 16.4011C17.5667 16.4101 17.6104 16.429 17.6486 16.4565C17.6864 16.4838 17.7179 16.519 17.741 16.5595C17.764 16.6 17.7782 16.645 17.7824 16.6915L18.0565 19.6677C18.1185 20.3319 18.049 21.0017 17.8518 21.639C17.6547 22.2762 17.3339 22.8683 16.9078 23.3815C16.4816 23.8946 15.9585 24.3187 15.3683 24.6295C14.778 24.9403 14.1324 25.1317 13.4681 25.1927C13.312 25.2092 13.1552 25.2179 12.9982 25.2188ZM8.60889 20.65C8.74521 21.7961 9.32359 22.8437 10.2209 23.5697C11.1181 24.2956 12.2633 24.6426 13.4127 24.5367C14.5815 24.4275 15.6593 23.859 16.4094 22.9559C17.1596 22.0528 17.5207 20.889 17.4136 19.7199L17.1721 17.1092C16.7675 17.1843 16.0658 17.3083 15.1423 17.4682C13.7814 17.7031 11.9017 16.9493 10.9847 16.5218C10.9031 17.8043 9.62382 19.2402 9.38559 19.498L8.60889 20.65Z" fill="#093F68"/>
<path d="M9.12451 37.2349H12.5837V53.1114H9.12451V37.2349Z" fill="#093F68"/>
<path d="M12.5838 53.4377H9.12456C9.03801 53.4377 8.955 53.4033 8.8938 53.3421C8.8326 53.2809 8.79822 53.1979 8.79822 53.1113V37.2348C8.79822 37.1482 8.8326 37.0652 8.8938 37.004C8.955 36.9428 9.03801 36.9084 9.12456 36.9084H12.5838C12.6703 36.9084 12.7533 36.9428 12.8145 37.004C12.8757 37.0652 12.9101 37.1482 12.9101 37.2348V53.1113C12.9101 53.1979 12.8757 53.2809 12.8145 53.3421C12.7533 53.4033 12.6703 53.4377 12.5838 53.4377ZM9.4509 52.785H12.2574V37.5611H9.4509V52.785Z" fill="#093F68"/>
<path d="M14.9399 37.2349H17.939V53.1114H14.9399V37.2349Z" fill="#093F68"/>
<path d="M17.9423 53.4377H14.94C14.8534 53.4377 14.7704 53.4033 14.7092 53.3421C14.648 53.2809 14.6136 53.1979 14.6136 53.1113V37.2348C14.6136 37.1482 14.648 37.0652 14.7092 37.004C14.7704 36.9428 14.8534 36.9084 14.94 36.9084H17.9423C18.0289 36.9084 18.1119 36.9428 18.1731 37.004C18.2343 37.0652 18.2687 37.1482 18.2687 37.2348V53.1113C18.2687 53.1979 18.2343 53.2809 18.1731 53.3421C18.1119 53.4033 18.0289 53.4377 17.9423 53.4377ZM15.2663 52.785H17.616V37.5611H15.2663V52.785Z" fill="#093F68"/>
<path d="M9.29095 37.2056H17.939V39.6564H9.29095V37.2056Z" fill="#093F68"/>
<path d="M17.9423 39.9828H9.29094C9.20439 39.9828 9.12138 39.9484 9.06018 39.8872C8.99898 39.826 8.9646 39.743 8.9646 39.6565V37.2187C8.9646 37.1321 8.99898 37.0491 9.06018 36.9879C9.12138 36.9267 9.20439 36.8923 9.29094 36.8923H17.9423C18.0288 36.8923 18.1118 36.9267 18.173 36.9879C18.2342 37.0491 18.2686 37.1321 18.2686 37.2187V39.6695C18.2652 39.7538 18.2294 39.8335 18.1685 39.8919C18.1077 39.9503 18.0266 39.9829 17.9423 39.9828ZM9.61728 39.3301H17.6159V37.545H9.61728V39.3301Z" fill="#093F68"/>
<path d="M12.153 53.1113V55.3239H7.46021L9.80661 53.1113H12.153Z" fill="white"/>
<path d="M12.153 55.6504H7.4765C7.41086 55.6509 7.34661 55.6315 7.29215 55.5949C7.23769 55.5582 7.19555 55.506 7.17123 55.445C7.14691 55.384 7.14155 55.3172 7.15584 55.2531C7.17012 55.189 7.2034 55.1307 7.25132 55.0859L9.59446 52.8733C9.65547 52.8162 9.73606 52.7846 9.81964 52.7852H12.166C12.2526 52.7852 12.3356 52.8195 12.3968 52.8807C12.458 52.9419 12.4924 53.025 12.4924 53.1115V55.3241C12.4924 55.3681 12.4836 55.4116 12.4664 55.4521C12.4491 55.4926 12.4239 55.5291 12.3922 55.5596C12.3605 55.5901 12.323 55.6138 12.2819 55.6295C12.2408 55.6451 12.1969 55.6522 12.153 55.6504ZM8.28256 54.9978H11.8266V53.4378H9.93712L8.28256 54.9978Z" fill="#093F68"/>
<path d="M15.1293 53.1113V55.3239H19.8188L17.4724 53.1113H15.1293Z" fill="white"/>
<path d="M19.8187 55.6504H15.1292C15.0426 55.6504 14.9596 55.6161 14.8984 55.5549C14.8372 55.4937 14.8029 55.4107 14.8029 55.3241V53.1115C14.8029 53.025 14.8372 52.9419 14.8984 52.8807C14.9596 52.8195 15.0426 52.7852 15.1292 52.7852H17.4723C17.5559 52.7846 17.6365 52.8162 17.6975 52.8733L20.0407 55.0859C20.0884 55.1306 20.1216 55.1885 20.136 55.2523C20.1503 55.316 20.1452 55.3827 20.1213 55.4435C20.0974 55.5043 20.0558 55.5566 20.0018 55.5935C19.9479 55.6304 19.8841 55.6502 19.8187 55.6504ZM15.4555 54.9978H18.9964L17.3418 53.4378H15.4555V54.9978Z" fill="#093F68"/>
<path d="M13.9152 26.7007H13.2723C13.0272 26.7007 12.8285 26.8994 12.8285 27.1445V27.4611C12.8285 27.7062 13.0272 27.9049 13.2723 27.9049H13.9152C14.1603 27.9049 14.359 27.7062 14.359 27.4611V27.1445C14.359 26.8994 14.1603 26.7007 13.9152 26.7007Z" fill="#F56132"/>
<path d="M13.9152 28.2313H13.2625C13.058 28.2304 12.8621 28.1485 12.7177 28.0036C12.5734 27.8586 12.4924 27.6624 12.4924 27.4578V27.1315C12.4924 27.0304 12.5123 26.9302 12.551 26.8368C12.5897 26.7433 12.6464 26.6584 12.7179 26.5869C12.7895 26.5154 12.8744 26.4587 12.9678 26.42C13.0612 26.3812 13.1614 26.3613 13.2625 26.3613H13.9152C14.0164 26.3613 14.1165 26.3812 14.21 26.42C14.3034 26.4587 14.3883 26.5154 14.4598 26.5869C14.5313 26.6584 14.5881 26.7433 14.6268 26.8368C14.6655 26.9302 14.6854 27.0304 14.6854 27.1315V27.4578C14.6854 27.6624 14.6044 27.8586 14.46 28.0036C14.3157 28.1485 14.1198 28.2304 13.9152 28.2313ZM13.2625 27.0271C13.2314 27.0271 13.2015 27.0394 13.1795 27.0615C13.1574 27.0835 13.1451 27.1134 13.1451 27.1446V27.4709C13.145 27.5024 13.1573 27.5326 13.1793 27.5551C13.2012 27.5777 13.2311 27.5908 13.2625 27.5916H13.9152C13.9467 27.5908 13.9766 27.5777 13.9985 27.5551C14.0204 27.5326 14.0327 27.5024 14.0327 27.4709V27.1446C14.0327 27.1134 14.0203 27.0835 13.9983 27.0615C13.9763 27.0394 13.9464 27.0271 13.9152 27.0271H13.2625Z" fill="#093F68"/>
<path d="M13.1548 27.9048L12.2639 32.7379L13.6476 34.944L14.7996 32.9435L14.0327 27.9048H13.1548Z" fill="#F56132"/>
<path d="M13.6476 35.2605C13.5922 35.2607 13.5376 35.2466 13.489 35.2198C13.4405 35.193 13.3996 35.1542 13.3702 35.1072L11.9898 32.9011C11.9462 32.8323 11.9299 32.7496 11.9441 32.6694L12.835 27.833C12.8496 27.7576 12.8903 27.6897 12.95 27.6414C13.0097 27.593 13.0846 27.5673 13.1614 27.5687H14.0392C14.1179 27.5678 14.1943 27.5954 14.2543 27.6463C14.3142 27.6973 14.3538 27.7682 14.3656 27.8461L15.1325 32.8848C15.1424 32.9579 15.1286 33.0322 15.0933 33.0969L13.9381 35.0974C13.9101 35.1458 13.8703 35.1862 13.8223 35.2147C13.7743 35.2433 13.7198 35.2591 13.6639 35.2605H13.6476ZM12.6098 32.6498L13.6346 34.2815L14.4602 32.8521L13.752 28.2018H13.4257L12.6098 32.6498Z" fill="#093F68"/>
<path d="M12.8285 20.2879C13.0646 20.2879 13.256 20.0965 13.256 19.8604C13.256 19.6243 13.0646 19.4329 12.8285 19.4329C12.5924 19.4329 12.401 19.6243 12.401 19.8604C12.401 20.0965 12.5924 20.2879 12.8285 20.2879Z" fill="#093F68"/>
<path d="M16.6468 19.5342C16.8829 19.5342 17.0743 19.3428 17.0743 19.1067C17.0743 18.8706 16.8829 18.6792 16.6468 18.6792C16.4106 18.6792 16.2192 18.8706 16.2192 19.1067C16.2192 19.3428 16.4106 19.5342 16.6468 19.5342Z" fill="#093F68"/>
<path d="M15.2369 21.5542H15.2206C15.1341 21.5542 15.0511 21.5198 14.9899 21.4586C14.9287 21.3974 14.8943 21.3144 14.8943 21.2279C14.8943 21.1413 14.9287 21.0583 14.9899 20.9971C15.0511 20.9359 15.1341 20.9015 15.2206 20.9015C15.3455 20.9007 15.47 20.8887 15.5927 20.8656C15.4712 20.6247 15.3281 20.3953 15.1652 20.1803C15.1394 20.146 15.1207 20.107 15.1101 20.0655C15.0995 20.024 15.0971 19.9808 15.1032 19.9384C15.1092 19.8959 15.1236 19.8551 15.1454 19.8182C15.1673 19.7814 15.1961 19.7492 15.2304 19.7234C15.2993 19.6712 15.386 19.6483 15.4717 19.6599C15.5573 19.6716 15.6349 19.7167 15.6873 19.7854C16.1507 20.4055 16.34 20.8591 16.278 21.13C16.2611 21.1922 16.2307 21.2499 16.189 21.299C16.1472 21.348 16.0952 21.3873 16.0365 21.4139C15.7804 21.5076 15.5097 21.5551 15.2369 21.5542Z" fill="#093F68"/>
<path d="M14.8584 23.5383H14.7279C14.2122 23.4894 13.7488 23.1565 13.3801 22.5593C13.3536 22.5231 13.3349 22.4819 13.3251 22.4382C13.3153 22.3944 13.3145 22.3491 13.323 22.3051C13.3314 22.2611 13.3488 22.2193 13.3742 22.1823C13.3995 22.1454 13.4321 22.114 13.4701 22.0902C13.508 22.0663 13.5505 22.0506 13.5948 22.0439C13.6391 22.0372 13.6843 22.0398 13.7276 22.0513C13.7709 22.0629 13.8114 22.0832 13.8465 22.1111C13.8816 22.139 13.9105 22.1738 13.9316 22.2134C14.0133 22.3843 14.1327 22.5345 14.2808 22.6526C14.4289 22.7707 14.6018 22.8537 14.7866 22.8954C14.9449 22.8939 15.1014 22.8612 15.247 22.799C15.3926 22.7369 15.5245 22.6465 15.6351 22.5332C15.6959 22.4774 15.7756 22.4468 15.8581 22.4474C15.9406 22.448 16.0198 22.4799 16.0797 22.5365C16.1397 22.5932 16.176 22.6705 16.1813 22.7528C16.1866 22.8351 16.1605 22.9164 16.1083 22.9803C15.7772 23.3176 15.3306 23.5169 14.8584 23.5383Z" fill="#093F68"/>
<path d="M9.43455 22.4451C9.21907 22.4819 8.9983 22.4738 8.78611 22.4213C8.57391 22.3687 8.37487 22.2729 8.20147 22.1398C8.02808 22.0066 7.88408 21.8391 7.77851 21.6477C7.67294 21.4563 7.60808 21.2451 7.588 21.0274C7.56793 20.8097 7.59307 20.5902 7.66184 20.3827C7.73062 20.1752 7.84155 19.9842 7.98768 19.8216C8.1338 19.659 8.31195 19.5284 8.51096 19.4379C8.70996 19.3475 8.92552 19.2991 9.1441 19.2959" fill="#FFC9B0"/>
<path d="M9.24524 22.7779C8.75524 22.7954 8.2765 22.6284 7.90367 22.31C7.53084 21.9915 7.29105 21.5448 7.23171 21.0581C7.2085 20.8028 7.23954 20.5456 7.32278 20.3032C7.40602 20.0608 7.53958 19.8387 7.7147 19.6515C8.07532 19.2591 8.57047 19.0167 9.10165 18.9728C9.1882 18.965 9.2743 18.9919 9.34101 19.0476C9.40772 19.1033 9.44957 19.1832 9.45736 19.2697C9.46515 19.3563 9.43824 19.4424 9.38255 19.5091C9.32685 19.5758 9.24694 19.6177 9.16039 19.6254C8.78637 19.6501 8.43601 19.8171 8.18137 20.0921C8.06598 20.2124 7.97727 20.3556 7.92104 20.5125C7.8648 20.6694 7.84231 20.8364 7.85502 21.0026C7.90822 21.3508 8.09689 21.6639 8.37992 21.8735C8.66296 22.0832 9.0174 22.1725 9.36599 22.122C9.45254 22.1142 9.53864 22.1411 9.60535 22.1968C9.67206 22.2525 9.71391 22.3324 9.7217 22.4189C9.72949 22.5055 9.70258 22.5916 9.64689 22.6583C9.59119 22.725 9.51128 22.7669 9.42473 22.7746C9.37469 22.7768 9.31486 22.7779 9.24524 22.7779Z" fill="#093F68"/>
<path d="M63.5813 10.7357L63.8424 10.6346C64.4787 10.3964 65.0661 10.6966 65.6536 10.9903C67.1449 11.7344 68.124 13.4281 68.6494 14.9456C69.276 16.747 69.6023 18.643 70.1995 20.451C70.4685 21.3325 70.5608 22.2585 70.4712 23.1758C70.3816 24.093 70.1119 24.9836 69.6774 25.7964C69.2611 26.6459 68.6397 27.3783 67.8694 27.9275C66.972 28.5312 66.179 28.541 65.164 28.4757C64.2633 28.417 63.3267 28.7335 62.3999 28.7172C60.481 28.6813 58.5948 27.9829 57.3416 26.4883C56.74 25.8427 56.3973 24.9981 56.3789 24.1158C56.4507 23.4819 56.6145 22.8618 56.8652 22.2752C57.4199 20.6435 57.2274 18.9041 57.3742 17.2071C57.4885 15.8822 57.6418 14.505 58.1705 13.2682C58.5654 12.3381 59.6521 10.9511 60.8139 11.0915C61.2447 11.1404 61.6689 11.3199 62.103 11.2644C62.2879 11.2333 62.4686 11.1807 62.6414 11.1078L63.5813 10.7357Z" fill="#725858"/>
<path d="M62.4684 29.0272H62.3934C60.2134 28.988 58.3304 28.1559 57.0903 26.6808C56.4379 25.966 56.0688 25.0377 56.0526 24.07C56.0974 23.5189 56.2284 22.9782 56.4409 22.4677C56.4801 22.3568 56.5192 22.2491 56.5551 22.1414C56.9206 21.0612 56.9467 19.9451 56.9761 18.767C56.9761 18.2383 57.0022 17.6901 57.0479 17.1353C57.1621 15.7973 57.322 14.3809 57.8703 13.0984C58.2978 12.0933 59.502 10.5562 60.853 10.7226C61.0227 10.7422 61.1794 10.7814 61.3393 10.814C61.573 10.8837 61.817 10.9125 62.0605 10.8989C62.2208 10.8695 62.3773 10.8224 62.5272 10.7585L63.7281 10.3049C64.4885 10.0177 65.1706 10.3571 65.7743 10.6606C67.6083 11.5744 68.5547 13.6532 68.9594 14.8117C69.2857 15.7907 69.5468 16.7698 69.7916 17.7488C70.007 18.6005 70.2289 19.4849 70.5095 20.3302C71.0713 22.189 70.8766 24.1945 69.9678 25.9106C69.5277 26.8097 68.869 27.5839 68.0522 28.1624C67.0535 28.8314 66.1822 28.8346 65.1444 28.7661C64.6806 28.7545 64.2168 28.7917 63.7608 28.8771C63.3345 28.9605 62.9025 29.0107 62.4684 29.0272ZM60.6507 11.4047C59.7435 11.4047 58.8232 12.5632 58.4675 13.3954C57.9617 14.5865 57.8148 15.9441 57.6973 17.2332C57.6549 17.7521 57.6418 18.2873 57.6288 18.8061C57.5994 19.9842 57.5733 21.2015 57.1752 22.3763C57.136 22.4906 57.0968 22.6015 57.0544 22.7027C56.8683 23.1514 56.7506 23.6255 56.7052 24.1092C56.7316 24.9091 57.0456 25.6727 57.5896 26.2598C58.7057 27.588 60.4157 28.3386 62.4032 28.3745C62.8257 28.3703 63.2472 28.3299 63.6629 28.2538C64.1651 28.1596 64.676 28.1191 65.1869 28.133C66.13 28.195 66.861 28.195 67.6867 27.6402C68.4131 27.1225 68.9986 26.4315 69.3902 25.63C70.2188 24.0691 70.3982 22.2444 69.8895 20.5521C69.6023 19.6873 69.3771 18.7931 69.1585 17.9413C68.917 16.9884 68.6689 16.0029 68.3426 15.0663C68.0456 14.208 67.171 12.1292 65.5099 11.2937C64.9291 11.0066 64.4493 10.7683 63.9598 10.9674L63.6987 11.0653L62.7589 11.421C62.5618 11.5062 62.3545 11.5655 62.1421 11.5972C61.8237 11.6236 61.5032 11.5926 61.1957 11.5059C61.0572 11.4702 60.9166 11.4429 60.7747 11.4243C60.7344 11.41 60.6929 11.3991 60.6507 11.3916V11.4047Z" fill="#093F68"/>
<path d="M56.4279 36.5103H58.2358V37.9755C58.3213 38.1116 58.3784 38.2636 58.4036 38.4223C58.4289 38.581 58.4217 38.7432 58.3826 38.8991C58.2358 39.3951 58.0563 39.8487 57.2633 39.5518C56.4703 39.2548 56.4279 37.796 56.4279 36.5103Z" fill="#FFC9B0"/>
<path d="M57.694 39.9697C57.5015 39.9639 57.3114 39.9242 57.1327 39.8522C56.1537 39.4801 56.0884 37.9985 56.0884 36.5104C56.0884 36.4239 56.1228 36.3409 56.184 36.2797C56.2452 36.2185 56.3282 36.1841 56.4148 36.1841H58.2227C58.3093 36.1841 58.3923 36.2185 58.4535 36.2797C58.5147 36.3409 58.5491 36.4239 58.5491 36.5104V37.8876C58.7321 38.2249 58.78 38.6193 58.6829 38.9906C58.6529 39.1724 58.5847 39.3458 58.4829 39.4993C58.3811 39.6529 58.2479 39.7831 58.0922 39.8815C57.9681 39.9413 57.8318 39.9715 57.694 39.9697ZM56.7411 36.8368C56.7411 37.7342 56.8129 39.0298 57.3677 39.2419C57.5007 39.3128 57.6551 39.3326 57.8017 39.2974C57.9127 39.2419 57.991 39.0298 58.0563 38.8046C58.0842 38.6944 58.0893 38.5797 58.0714 38.4675C58.0534 38.3553 58.0127 38.2479 57.9519 38.1519C57.916 38.0965 57.8967 38.0319 57.8964 37.9659V36.827L56.7411 36.8368Z" fill="#093F68"/>
<path d="M67.9771 36.5103H66.1692V37.9755C66.0837 38.1116 66.0269 38.2637 66.0022 38.4225C65.9775 38.5813 65.9855 38.7435 66.0256 38.8991C66.1692 39.3951 66.3519 39.8487 67.1417 39.5518C67.9314 39.2548 67.9771 37.796 67.9771 36.5103Z" fill="#FFC9B0"/>
<path d="M66.6978 39.9697C66.5601 39.9715 66.4238 39.9413 66.2997 39.8815C66.1445 39.7828 66.012 39.6524 65.9108 39.4989C65.8095 39.3453 65.7419 39.1721 65.7123 38.9906C65.6128 38.6198 65.6595 38.225 65.8428 37.8876V36.5104C65.8428 36.4239 65.8772 36.3409 65.9384 36.2797C65.9996 36.2185 66.0826 36.1841 66.1691 36.1841H67.9771C68.0636 36.1841 68.1466 36.2185 68.2078 36.2797C68.269 36.3409 68.3034 36.4239 68.3034 36.5104C68.3034 37.9985 68.2218 39.4801 67.2591 39.8522C67.0804 39.9242 66.8904 39.9639 66.6978 39.9697ZM66.4955 36.8368V37.9757C66.4963 38.0419 66.4769 38.1068 66.44 38.1617C66.3791 38.2577 66.3387 38.3652 66.3213 38.4775C66.3039 38.5898 66.3099 38.7045 66.3388 38.8144C66.4041 39.0396 66.4792 39.2517 66.5901 39.3072C66.7367 39.3423 66.8911 39.3226 67.0242 39.2517C67.5789 39.0396 67.641 37.744 67.6507 36.8466L66.4955 36.8368Z" fill="#093F68"/>
<path d="M60.2787 23.5903H64.1132C65.138 23.5903 66.1208 23.9974 66.8454 24.722C67.57 25.4467 67.9771 26.4295 67.9771 27.4542V36.5102H56.4279V27.4542C56.4279 26.4317 56.8331 25.4509 57.5549 24.7266C58.2767 24.0024 59.2562 23.5938 60.2787 23.5903Z" fill="white"/>
<path d="M67.9771 36.8367H56.4278C56.3413 36.8367 56.2583 36.8024 56.1971 36.7412C56.1359 36.68 56.1015 36.5969 56.1015 36.5104V27.4544C56.1024 26.3433 56.5441 25.278 57.3297 24.4924C58.1154 23.7068 59.1807 23.265 60.2917 23.2642H64.1263C65.2373 23.265 66.3026 23.7068 67.0882 24.4924C67.8739 25.278 68.3156 26.3433 68.3165 27.4544V36.5104C68.3165 36.5544 68.3077 36.5979 68.2905 36.6384C68.2733 36.6788 68.248 36.7154 68.2163 36.7459C68.1846 36.7764 68.1471 36.8001 68.106 36.8157C68.0649 36.8314 68.021 36.8385 67.9771 36.8367ZM56.7411 36.1841H67.6508V27.4544C67.649 26.5167 67.2758 25.6179 66.6127 24.9549C65.9497 24.2918 65.0509 23.9186 64.1132 23.9168H60.2787C59.3433 23.922 58.4478 24.2968 57.7876 24.9595C57.1274 25.6221 56.7559 26.519 56.7542 27.4544L56.7411 36.1841Z" fill="#093F68"/>
<path d="M61.4666 24.5173H63.046V32.8652H61.4666V24.5173Z" fill="#FFBC0E"/>
<path d="M63.0461 33.1914H61.4666C61.38 33.1914 61.297 33.1571 61.2358 33.0959C61.1746 33.0347 61.1403 32.9516 61.1403 32.8651V24.5173C61.1403 24.4307 61.1746 24.3477 61.2358 24.2865C61.297 24.2253 61.38 24.1909 61.4666 24.1909H63.0461C63.1326 24.1909 63.2157 24.2253 63.2769 24.2865C63.3381 24.3477 63.3724 24.4307 63.3724 24.5173V32.8651C63.3724 32.9516 63.3381 33.0347 63.2769 33.0959C63.2157 33.1571 63.1326 33.1914 63.0461 33.1914ZM61.7929 32.5388H62.7198V24.8436H61.7929V32.5388Z" fill="#093F68"/>
<path d="M58.2227 34.0465C58.1362 34.0465 58.0532 34.0121 57.992 33.9509C57.9307 33.8897 57.8964 33.8067 57.8964 33.7201V27.1933C57.8964 27.1067 57.9307 27.0237 57.992 26.9625C58.0532 26.9013 58.1362 26.8669 58.2227 26.8669C58.3093 26.8669 58.3923 26.9013 58.4535 26.9625C58.5147 27.0237 58.549 27.1067 58.549 27.1933V33.7201C58.549 33.8067 58.5147 33.8897 58.4535 33.9509C58.3923 34.0121 58.3093 34.0465 58.2227 34.0465Z" fill="#093F68"/>
<path d="M66.1692 34.017C66.0826 34.017 65.9996 33.9826 65.9384 33.9214C65.8772 33.8602 65.8428 33.7772 65.8428 33.6907V27.1965C65.8428 27.1099 65.8772 27.0269 65.9384 26.9657C65.9996 26.9045 66.0826 26.8701 66.1692 26.8701C66.2557 26.8701 66.3387 26.9045 66.3999 26.9657C66.4611 27.0269 66.4955 27.1099 66.4955 27.1965V33.6907C66.4955 33.7772 66.4611 33.8602 66.3999 33.9214C66.3387 33.9826 66.2557 34.017 66.1692 34.017Z" fill="#093F68"/>
<path d="M58.3304 33.061H60.8466V49.5087H58.3304V33.061Z" fill="#FFC9B0"/>
<path d="M60.8498 49.8317H58.3304C58.2439 49.8317 58.1609 49.7973 58.0997 49.7361C58.0385 49.6749 58.0041 49.5919 58.0041 49.5054V33.061C58.0041 32.9744 58.0385 32.8914 58.0997 32.8302C58.1609 32.769 58.2439 32.7346 58.3304 32.7346H60.8498C60.9363 32.7346 61.0194 32.769 61.0806 32.8302C61.1418 32.8914 61.1761 32.9744 61.1761 33.061V49.5054C61.1761 49.5919 61.1418 49.6749 61.0806 49.7361C61.0194 49.7973 60.9363 49.8317 60.8498 49.8317ZM58.6568 49.179H60.5235V33.3873H58.6568V49.179Z" fill="#093F68"/>
<path d="M63.7575 33.061H66.2671V49.5087H63.7575V33.061Z" fill="#FFC9B0"/>
<path d="M66.2638 49.8317H63.7575C63.6709 49.8317 63.5879 49.7973 63.5267 49.7361C63.4655 49.6749 63.4312 49.5919 63.4312 49.5054V33.061C63.4312 32.9744 63.4655 32.8914 63.5267 32.8302C63.5879 32.769 63.6709 32.7346 63.7575 32.7346H66.2638C66.3504 32.7346 66.4334 32.769 66.4946 32.8302C66.5558 32.8914 66.5902 32.9744 66.5902 33.061V49.5054C66.5902 49.5919 66.5558 49.6749 66.4946 49.7361C66.4334 49.7973 66.3504 49.8317 66.2638 49.8317ZM64.0838 49.179H65.9375V33.3873H64.0838V49.179Z" fill="#093F68"/>
<path d="M58.2228 32.999H66.3226V44.4308H58.2228V32.999Z" fill="#093F68"/>
<path d="M66.3225 44.757H58.2227C58.1362 44.757 58.0532 44.7227 57.992 44.6615C57.9307 44.6003 57.8964 44.5172 57.8964 44.4307V33.0087C57.8964 32.9222 57.9307 32.8392 57.992 32.778C58.0532 32.7168 58.1362 32.6824 58.2227 32.6824H66.3225C66.4091 32.6824 66.4921 32.7168 66.5533 32.778C66.6145 32.8392 66.6489 32.9222 66.6489 33.0087V44.4307C66.6489 44.5172 66.6145 44.6003 66.5533 44.6615C66.4921 44.7227 66.4091 44.757 66.3225 44.757ZM58.549 44.1044H65.9962V33.3351H58.549V44.1044Z" fill="#093F68"/>
<path d="M60.8498 49.5054V51.6527H56.2974L58.572 49.5054H60.8498Z" fill="white"/>
<path d="M60.8498 51.979H56.2973C56.232 51.9787 56.1682 51.9589 56.1142 51.922C56.0603 51.8851 56.0186 51.8328 55.9947 51.772C55.9708 51.7112 55.9657 51.6446 55.9801 51.5808C55.9945 51.517 56.0277 51.4591 56.0754 51.4144L58.3598 49.2703C58.4195 49.2128 58.4988 49.1801 58.5817 49.179H60.8661C60.9527 49.179 61.0357 49.2133 61.0969 49.2745C61.1581 49.3357 61.1925 49.4187 61.1925 49.5053V51.6526C61.1925 51.6969 61.1836 51.7407 61.1662 51.7814C61.1487 51.8221 61.1232 51.8588 61.0912 51.8894C61.0591 51.9199 61.0212 51.9436 60.9797 51.959C60.9382 51.9744 60.894 51.9812 60.8498 51.979ZM57.1197 51.3263H60.5235V49.8316H58.7123L57.1197 51.3263Z" fill="#093F68"/>
<path d="M63.7379 49.5054V51.6527H68.2871L66.0125 49.5054H63.7379Z" fill="white"/>
<path d="M68.2871 51.979H63.7379C63.6514 51.979 63.5683 51.9446 63.5071 51.8834C63.4459 51.8222 63.4116 51.7392 63.4116 51.6526V49.5053C63.4116 49.4187 63.4459 49.3357 63.5071 49.2745C63.5683 49.2133 63.6514 49.179 63.7379 49.179H66.0223C66.1052 49.1801 66.1845 49.2128 66.2442 49.2703L68.5286 51.4144C68.5765 51.4593 68.6098 51.5175 68.6241 51.5816C68.6384 51.6457 68.633 51.7126 68.6087 51.7735C68.5844 51.8345 68.5422 51.8867 68.4878 51.9234C68.4333 51.96 68.3691 51.9794 68.3034 51.979H68.2871ZM64.0642 51.3263H67.4647L65.8918 49.8316H64.0642V51.3263Z" fill="#093F68"/>
<path d="M62.3934 24.8339H62.1486C62.0582 24.8339 61.9686 24.8161 61.8851 24.7815C61.8015 24.7469 61.7256 24.6962 61.6617 24.6322C61.5978 24.5683 61.547 24.4924 61.5124 24.4088C61.4778 24.3253 61.46 24.2358 61.46 24.1453V23.2022H63.0917V24.1355C63.093 24.2276 63.0759 24.319 63.0413 24.4043C63.0066 24.4897 62.9552 24.5672 62.8901 24.6323C62.825 24.6974 62.7475 24.7488 62.6622 24.7834C62.5768 24.8181 62.4854 24.8352 62.3934 24.8339Z" fill="#FFC9B0"/>
<path d="M62.3901 25.1438H62.1454C62.0121 25.1438 61.8801 25.1175 61.757 25.0665C61.6338 25.0155 61.5219 24.9407 61.4277 24.8465C61.3334 24.7523 61.2587 24.6404 61.2077 24.5172C61.1567 24.3941 61.1304 24.2621 61.1304 24.1288V23.1857C61.1304 23.0992 61.1648 23.0162 61.226 22.955C61.2872 22.8938 61.3702 22.8594 61.4568 22.8594H63.0885C63.175 22.8594 63.258 22.8938 63.3192 22.955C63.3804 23.0162 63.4148 23.0992 63.4148 23.1857V24.1191C63.4161 24.254 63.3905 24.3878 63.3395 24.5127C63.2885 24.6377 63.213 24.7511 63.1176 24.8466C63.0222 24.942 62.9087 25.0174 62.7838 25.0684C62.6589 25.1195 62.525 25.1451 62.3901 25.1438ZM61.7831 23.5121V24.1191C61.7831 24.1666 61.7925 24.2137 61.8107 24.2577C61.8289 24.3016 61.8556 24.3416 61.8892 24.3752C61.9228 24.4088 61.9628 24.4355 62.0067 24.4537C62.0507 24.4719 62.0978 24.4813 62.1454 24.4813H62.3901C62.4377 24.4813 62.4848 24.4719 62.5287 24.4537C62.5727 24.4355 62.6126 24.4088 62.6463 24.3752C62.6799 24.3416 62.7066 24.3016 62.7248 24.2577C62.743 24.2137 62.7524 24.1666 62.7524 24.1191V23.5121H61.7831Z" fill="#093F68"/>
<path d="M59.9611 18.7183C60.0301 17.9717 59.424 17.3053 58.6074 17.2299C57.7909 17.1544 57.073 17.6985 57.004 18.4451C56.935 19.1916 57.541 19.8581 58.3576 19.9335C59.1742 20.009 59.8921 19.4649 59.9611 18.7183Z" fill="#FFC9B0"/>
<path d="M58.5001 20.2489C58.4403 20.2521 58.3804 20.2521 58.3206 20.2489C57.8579 20.222 57.4248 20.0128 57.1159 19.6673C56.807 19.3217 56.6476 18.8679 56.6726 18.4051C56.7446 17.9505 56.9867 17.5403 57.3498 17.2575C57.7129 16.9747 58.1699 16.8404 58.6282 16.8819C59.0866 16.9234 59.5121 17.1375 59.8185 17.4809C60.125 17.8243 60.2894 18.2713 60.2787 18.7314C60.2237 19.1601 60.0112 19.553 59.6824 19.8335C59.3536 20.1141 58.9321 20.2622 58.5001 20.2489ZM57.322 18.4573C57.2735 18.6883 57.2962 18.9285 57.3873 19.1463C57.4783 19.3641 57.6334 19.549 57.8319 19.6767C58.0304 19.8044 58.263 19.8688 58.4989 19.8613C58.7348 19.8539 58.9629 19.775 59.1529 19.635C59.343 19.4951 59.4861 19.3007 59.5632 19.0777C59.6403 18.8546 59.6479 18.6134 59.5849 18.3859C59.5219 18.1585 59.3914 17.9555 59.2105 17.8039C59.0296 17.6523 58.8069 17.5592 58.5719 17.537C58.2843 17.4948 57.9917 17.5678 57.7577 17.7401C57.5237 17.9124 57.3671 18.1702 57.322 18.4573Z" fill="#093F68"/>
<path d="M62.3347 23.3783C62.9561 23.4358 63.5828 23.3704 64.1789 23.1856C64.775 23.0009 65.3289 22.7006 65.8089 22.3018C66.2889 21.903 66.6857 21.4135 66.9765 20.8613C67.2674 20.3092 67.4466 19.7051 67.5039 19.0837L66.6456 17.8044C66.1168 17.2826 65.6926 16.6645 65.3958 15.9834C65.1021 15.1741 65.0107 14.3941 64.0251 14.1135C63.6657 14.0206 63.2866 14.0382 62.9374 14.1639C62.5881 14.2897 62.2848 14.5177 62.0671 14.8184C61.8726 14.5074 61.5864 14.2644 61.2479 14.1229C60.9095 13.9814 60.5355 13.9485 60.1775 14.0286C59.8238 14.1176 59.4927 14.2798 59.2054 14.5046C58.9182 14.7295 58.6813 15.012 58.5099 15.334C57.9813 16.2837 58.0857 17.155 58.0563 18.1699C57.9963 19.0166 58.1419 19.8653 58.4806 20.6436C58.8326 21.3931 59.3725 22.0389 60.0478 22.5181C60.7231 22.9973 61.5109 23.2936 62.3347 23.3783Z" fill="#FFC9B0"/>
<path d="M62.7752 23.7241C62.6186 23.7241 62.462 23.7176 62.3053 23.7046C61.4226 23.6205 60.5769 23.3083 59.8514 22.7985C59.1259 22.2887 58.5455 21.5989 58.1673 20.7969C57.8117 19.9747 57.6562 19.08 57.7137 18.1861C57.7137 18.0132 57.7137 17.8598 57.7137 17.6803C57.7137 16.8481 57.7137 16.0486 58.2032 15.2001C58.3931 14.8334 58.6595 14.5117 58.9843 14.2566C59.3091 14.0016 59.6849 13.8192 60.0862 13.7218C60.4389 13.6474 60.8047 13.6625 61.1501 13.7657C61.4955 13.8688 61.8096 14.0568 62.0638 14.3124C62.3356 14.0652 62.6647 13.8897 63.0215 13.8019C63.3783 13.7142 63.7513 13.7169 64.1067 13.8099C65.1086 14.097 65.3468 14.8215 65.572 15.5264C65.6112 15.6439 65.6503 15.7647 65.696 15.8854C65.9752 16.5266 66.3765 17.1074 66.8774 17.5954L66.91 17.6346L67.7683 18.9139C67.8107 18.9761 67.8303 19.051 67.8238 19.126C67.7024 20.382 67.1185 21.5482 66.1855 22.3979C65.2526 23.2476 64.0372 23.7203 62.7752 23.7241ZM62.3641 23.0551C63.5135 23.1593 64.6583 22.8112 65.5553 22.0849C66.4522 21.3585 67.0307 20.3111 67.1678 19.1651L66.3911 18.0066C65.8323 17.463 65.3884 16.8127 65.0857 16.0943C65.0368 15.967 64.9976 15.8397 64.9552 15.7124C64.7496 15.0761 64.5995 14.6159 63.9305 14.4267C63.6344 14.3501 63.3221 14.3642 63.034 14.4672C62.746 14.5702 62.4956 14.7573 62.3151 15.0043C62.2834 15.0501 62.2405 15.087 62.1905 15.1115C62.1406 15.136 62.0851 15.1474 62.0295 15.1444C61.9739 15.1415 61.92 15.1244 61.8729 15.0947C61.8257 15.065 61.787 15.0238 61.7603 14.9749C61.5988 14.7259 61.3649 14.5324 61.0901 14.4204C60.8153 14.3084 60.5128 14.2832 60.2233 14.3483C59.9141 14.4294 59.6255 14.5743 59.3759 14.7739C59.1263 14.9734 58.9213 15.2231 58.7743 15.5068C58.3794 16.2183 58.3762 16.8905 58.3696 17.6705V18.1926C58.314 18.9883 58.4483 19.7858 58.7612 20.5195C59.0959 21.2148 59.6029 21.8129 60.2342 22.2568C60.8654 22.7006 61.5998 22.9755 62.3673 23.0551H62.3641Z" fill="#093F68"/>
<path d="M63.3757 17.7066C63.6118 17.7066 63.8032 17.5152 63.8032 17.2791C63.8032 17.043 63.6118 16.8516 63.3757 16.8516C63.1396 16.8516 62.9482 17.043 62.9482 17.2791C62.9482 17.5152 63.1396 17.7066 63.3757 17.7066Z" fill="#093F68"/>
<path d="M59.5575 16.9561C59.7936 16.9561 59.985 16.7647 59.985 16.5286C59.985 16.2925 59.7936 16.1011 59.5575 16.1011C59.3214 16.1011 59.13 16.2925 59.13 16.5286C59.13 16.7647 59.3214 16.9561 59.5575 16.9561Z" fill="#093F68"/>
<path d="M60.9673 18.976C60.6889 18.9773 60.4126 18.9287 60.1514 18.8325C60.0923 18.8074 60.0397 18.769 59.9979 18.7203C59.956 18.6717 59.9259 18.614 59.9099 18.5518C59.8381 18.2809 60.0372 17.8273 60.5038 17.2073C60.5278 17.1688 60.5595 17.1358 60.5969 17.1102C60.6344 17.0847 60.6767 17.0672 60.7213 17.059C60.7658 17.0507 60.8116 17.0518 60.8557 17.0622C60.8998 17.0726 60.9413 17.092 60.9774 17.1193C61.0136 17.1466 61.0437 17.1812 61.0658 17.2207C61.0879 17.2603 61.1015 17.304 61.1057 17.3491C61.11 17.3942 61.1048 17.4397 61.0905 17.4827C61.0762 17.5257 61.0531 17.5653 61.0227 17.5989C60.8603 17.8154 60.7173 18.0458 60.5952 18.2875C60.7202 18.31 60.8468 18.322 60.9738 18.3234C61.0603 18.3234 61.1433 18.3577 61.2045 18.4189C61.2657 18.4801 61.3001 18.5631 61.3001 18.6497C61.3001 18.7362 61.2657 18.8193 61.2045 18.8805C61.1433 18.9417 61.0603 18.976 60.9738 18.976H60.9673Z" fill="#093F68"/>
<path d="M61.3458 20.9603C60.8761 20.9324 60.4338 20.7298 60.1057 20.3925C60.0727 20.3622 60.0462 20.3254 60.028 20.2845C60.0098 20.2435 60.0002 20.1992 59.9999 20.1544C59.9995 20.1096 60.0085 20.0652 60.026 20.0239C60.0436 19.9827 60.0695 19.9455 60.1021 19.9147C60.1347 19.8839 60.1733 19.8602 60.2154 19.845C60.2576 19.8298 60.3024 19.8234 60.3472 19.8263C60.3919 19.8292 60.4356 19.8412 60.4754 19.8617C60.5153 19.8822 60.5505 19.9107 60.5789 19.9454C60.8009 20.1695 61.1022 20.2973 61.4176 20.3011C61.6029 20.2606 61.7763 20.178 61.9246 20.0597C62.0729 19.9415 62.1919 19.7907 62.2726 19.6191C62.2955 19.5829 62.3254 19.5515 62.3604 19.5268C62.3955 19.5022 62.435 19.4846 62.4768 19.4752C62.5187 19.4658 62.5619 19.4648 62.6042 19.4721C62.6464 19.4794 62.6868 19.495 62.723 19.5179C62.7592 19.5408 62.7905 19.5707 62.8152 19.6057C62.8399 19.6408 62.8574 19.6803 62.8668 19.7221C62.8762 19.764 62.8773 19.8072 62.87 19.8494C62.8626 19.8917 62.8471 19.932 62.8241 19.9683C62.4456 20.572 61.992 20.9016 61.4763 20.9473L61.3458 20.9603Z" fill="#093F68"/>
<path d="M66.3552 20.9504C66.5718 20.9902 66.7944 20.9844 67.0086 20.9335C67.2229 20.8825 67.4242 20.7875 67.5998 20.6545C67.7753 20.5215 67.9212 20.3533 68.0282 20.1608C68.1351 19.9683 68.2008 19.7556 68.2211 19.5363C68.2413 19.317 68.2157 19.0958 68.1458 18.887C68.0758 18.6781 67.9632 18.4861 67.815 18.3232C67.6668 18.1603 67.4863 18.03 67.285 17.9407C67.0836 17.8514 66.8659 17.805 66.6457 17.8044" fill="#FFC9B0"/>
<path d="M66.5445 21.2865C66.476 21.2865 66.4042 21.2865 66.3356 21.2865C66.2928 21.2824 66.2511 21.27 66.2131 21.2498C66.1751 21.2296 66.1414 21.2022 66.114 21.169C66.0865 21.1358 66.0659 21.0976 66.0533 21.0564C66.0406 21.0153 66.0362 20.972 66.0403 20.9292C66.0444 20.8863 66.0568 20.8447 66.077 20.8066C66.0972 20.7686 66.1246 20.7349 66.1578 20.7075C66.191 20.6801 66.2292 20.6594 66.2704 20.6468C66.3115 20.6342 66.3548 20.6298 66.3976 20.6338C66.7647 20.6709 67.1325 20.5697 67.4289 20.3499C67.5623 20.2517 67.6736 20.1266 67.7557 19.9827C67.8378 19.8388 67.8888 19.6793 67.9053 19.5145C67.9177 19.1624 67.79 18.8197 67.5502 18.5616C67.3104 18.3035 66.9781 18.1509 66.6261 18.1373C66.5395 18.1291 66.4598 18.0868 66.4044 18.0198C66.349 17.9528 66.3225 17.8665 66.3307 17.78C66.339 17.6934 66.3812 17.6137 66.4482 17.5583C66.5153 17.5029 66.6015 17.4764 66.6881 17.4846C67.2123 17.5149 67.703 17.7518 68.0529 18.1433C68.4028 18.5347 68.5833 19.0489 68.5548 19.5732C68.5321 19.8305 68.4549 20.08 68.3283 20.305C68.2017 20.5301 68.0286 20.7256 67.8205 20.8786C67.4514 21.1508 67.003 21.2941 66.5445 21.2865Z" fill="#093F68"/>
<path d="M25.1773 46.813H49.7183V63.2639H25.1773V46.813Z" fill="#FF5C00"/>
<path d="M49.7182 63.5904H25.1773C25.0907 63.5904 25.0077 63.556 24.9465 63.4948C24.8853 63.4336 24.851 63.3506 24.851 63.2641V46.8132C24.851 46.7266 24.8853 46.6436 24.9465 46.5824C25.0077 46.5212 25.0907 46.4868 25.1773 46.4868H49.7182C49.8048 46.4868 49.8878 46.5212 49.949 46.5824C50.0102 46.6436 50.0446 46.7266 50.0446 46.8132V63.2641C50.0446 63.3506 50.0102 63.4336 49.949 63.4948C49.8878 63.556 49.8048 63.5904 49.7182 63.5904ZM25.5036 62.9377H49.3919V47.1395H25.5036V62.9377Z" fill="#093F68"/>
<path d="M49.7183 51.718H74.6737V63.264H49.7183V51.718Z" fill="#FF5C00"/>
<path d="M74.6737 63.5903H49.7182C49.6317 63.5903 49.5487 63.5559 49.4875 63.4947C49.4263 63.4335 49.3919 63.3505 49.3919 63.2639V51.7179C49.3919 51.6314 49.4263 51.5484 49.4875 51.4872C49.5487 51.426 49.6317 51.3916 49.7182 51.3916H74.6737C74.7602 51.3916 74.8432 51.426 74.9044 51.4872C74.9656 51.5484 75 51.6314 75 51.7179V63.2639C75 63.3505 74.9656 63.4335 74.9044 63.4947C74.8432 63.5559 74.7602 63.5903 74.6737 63.5903ZM50.0446 62.9376H74.3473V52.0443H50.0446V62.9376Z" fill="#093F68"/>
<path d="M0.326355 55.3242H25.2818V63.2641H0.326355V55.3242Z" fill="#FF5C00"/>
<path d="M25.2817 63.5902H0.326342C0.239791 63.5902 0.156787 63.5558 0.0955857 63.4946C0.0343846 63.4334 0 63.3504 0 63.2638V55.3239C0 55.2373 0.0343846 55.1543 0.0955857 55.0931C0.156787 55.0319 0.239791 54.9976 0.326342 54.9976H25.2817C25.3683 54.9976 25.4513 55.0319 25.5125 55.0931C25.5737 55.1543 25.6081 55.2373 25.6081 55.3239V63.2638C25.6081 63.3504 25.5737 63.4334 25.5125 63.4946C25.4513 63.5558 25.3683 63.5902 25.2817 63.5902ZM0.652685 62.9375H24.9554V55.6502H0.652685V62.9375Z" fill="#093F68"/>
<path d="M24.9292 6.34668C25.8397 8.78772 32.1088 14.9817 37.5522 14.9817C38.7988 14.9817 47.61 16.6395 49.5322 18.5421C51.3793 20.3696 45.4953 25.1407 45.4953 25.1407L43.4688 23.4079L46.5527 20.2064L41.7424 18.8684V28.6783H33.065V19.2927C33.065 19.2927 28.9726 16.4992 27.1908 14.3421C26.078 13.0008 23.9274 10.5532 22.8733 7.77606L24.9292 6.34668Z" fill="white"/>
<path d="M41.7424 29.0046H33.065C32.9784 29.0046 32.8954 28.9703 32.8342 28.9091C32.773 28.8479 32.7386 28.7649 32.7386 28.6783V19.4657C31.9881 18.9435 28.5615 16.5286 26.9298 14.5509L26.6295 14.1887C25.4677 12.805 23.526 10.4847 22.5568 7.88703C22.5316 7.81902 22.5298 7.74456 22.5517 7.67542C22.5736 7.60628 22.6178 7.54639 22.6775 7.50521L24.7465 6.07909C24.7864 6.04994 24.8328 6.03085 24.8816 6.02347C24.9305 6.01608 24.9804 6.02061 25.0272 6.03667C25.0746 6.05128 25.118 6.07651 25.1542 6.11044C25.1904 6.14437 25.2184 6.18611 25.236 6.23247C26.1465 8.67678 32.347 14.6554 37.5522 14.6554C38.8315 14.6554 47.7406 16.3099 49.7639 18.3104C49.9236 18.4679 50.0467 18.6586 50.1245 18.8689C50.2023 19.0793 50.233 19.3042 50.2143 19.5277C50.1033 21.8121 45.8805 25.2484 45.701 25.4018C45.6423 25.4507 45.5684 25.4774 45.4921 25.4774C45.4158 25.4774 45.3419 25.4507 45.2832 25.4018L43.2567 23.6722C43.2225 23.643 43.1947 23.6071 43.175 23.5667C43.1554 23.5262 43.1443 23.4822 43.1424 23.4372C43.1404 23.3929 43.1475 23.3486 43.1632 23.3071C43.1789 23.2655 43.203 23.2277 43.2338 23.1957L45.9359 20.3859L42.0688 19.2992V28.6783C42.0688 28.7649 42.0344 28.8479 41.9732 28.9091C41.912 28.9703 41.829 29.0046 41.7424 29.0046ZM33.4076 28.352H41.4161V18.8684C41.4162 18.8186 41.4277 18.7695 41.4498 18.7248C41.4719 18.6801 41.5039 18.641 41.5434 18.6106C41.5836 18.5797 41.6305 18.5586 41.6804 18.5489C41.7302 18.5393 41.7817 18.5414 41.8305 18.5552L46.6539 19.8932C46.7081 19.9079 46.7577 19.9363 46.7977 19.9757C46.8377 20.0152 46.8669 20.0643 46.8823 20.1183C46.9 20.1747 46.9021 20.2349 46.8883 20.2924C46.8745 20.3498 46.8454 20.4025 46.804 20.4447L43.9616 23.3981L45.5149 24.7296C46.7942 23.6526 49.5029 21.0615 49.5812 19.5081C49.593 19.3761 49.5757 19.2431 49.5306 19.1185C49.4855 18.9939 49.4136 18.8807 49.3201 18.7869C47.4958 16.9822 38.7336 15.3211 37.5718 15.3211C32.2622 15.3211 26.2053 9.66233 24.8118 6.85252L23.2812 7.90987C24.2374 10.3085 26.0519 12.4787 27.1484 13.784L27.4519 14.1495C29.1946 16.2479 33.2282 19.012 33.2673 19.0447C33.3112 19.0743 33.3471 19.1141 33.3721 19.1608C33.3972 19.2074 33.4105 19.2594 33.4109 19.3123L33.4076 28.352Z" fill="#093F68"/>
<path d="M37.7186 0.91951C35.2841 0.7955 32.768 1.51998 31.7792 3.99692C31.1755 5.50788 31.1559 7.18855 31.3321 8.80721C31.3477 9.18371 31.4481 9.55184 31.6258 9.88413C31.9685 10.4291 32.4547 10.5009 33.0128 10.3834C33.7488 10.2794 34.4936 10.2521 35.2352 10.3019H40.1793C40.9396 10.3019 42.5518 10.8012 42.9956 10.0147C43.4394 9.22819 43.3742 7.84776 43.4296 6.98295C43.5454 5.82913 43.3587 4.66504 42.8879 3.60531C41.8926 1.62767 39.7844 1.02394 37.7186 0.91951Z" fill="#725858"/>
<path d="M41.9056 10.7849C41.5526 10.7778 41.2005 10.7473 40.8515 10.6935C40.6288 10.6596 40.4044 10.6378 40.1793 10.6282H35.2352H34.6837C34.1483 10.5947 33.6109 10.621 33.0813 10.7066C32.2916 10.8763 31.727 10.6641 31.3484 10.0539C31.1427 9.67611 31.0256 9.25653 31.0058 8.82684C30.7871 6.79046 30.9372 5.21097 31.4757 3.86317C32.7028 0.795556 35.9238 0.488793 37.735 0.580169C40.4632 0.717233 42.3038 1.68647 43.1784 3.46177C43.6515 4.40816 43.831 5.53078 43.756 6.98953C43.756 7.13965 43.756 7.31588 43.7364 7.48884C43.707 8.36996 43.6711 9.46647 43.2795 10.1616C43.0054 10.6576 42.4767 10.7849 41.9056 10.7849ZM34.1387 9.95925H34.7H35.2352H40.1793C40.4328 9.96837 40.6856 9.99234 40.9364 10.031C41.5891 10.1159 42.4865 10.2334 42.7117 9.8385C43.038 9.28046 43.0576 8.22963 43.0837 7.46273C43.0837 7.27998 43.0837 7.10375 43.1033 6.95037C43.1751 5.60911 43.0152 4.59092 42.5942 3.74895C41.811 2.17925 40.2119 1.3536 37.6991 1.22959C36.0674 1.14801 33.1564 1.40908 32.0794 4.1014C31.5801 5.34803 31.4463 6.82636 31.6519 8.75504C31.6636 9.08145 31.7472 9.40126 31.8967 9.69165C32.1284 10.0572 32.4188 10.1583 32.941 10.0474C33.336 9.97564 33.7374 9.9461 34.1387 9.95925Z" fill="#093F68"/>
<path d="M37.4804 16.127H37.2161C37.0179 16.127 36.8278 16.0482 36.6876 15.9081C36.5475 15.7679 36.4687 15.5778 36.4687 15.3796V14.368H38.2277V15.3796C38.2277 15.5778 38.149 15.7679 38.0088 15.9081C37.8687 16.0482 37.6786 16.127 37.4804 16.127Z" fill="#FFC9B0"/>
<path d="M37.5 16.4567H37.2324C36.9482 16.4559 36.6759 16.3424 36.4753 16.1411C36.2747 15.9399 36.162 15.6673 36.162 15.3831V14.3747C36.162 14.2881 36.1964 14.2051 36.2576 14.1439C36.3188 14.0827 36.4018 14.0483 36.4883 14.0483H38.2473C38.3339 14.0483 38.4169 14.0827 38.4781 14.1439C38.5393 14.2051 38.5737 14.2881 38.5737 14.3747V15.3863C38.5719 15.6703 38.4582 15.942 38.2571 16.1425C38.056 16.3429 37.7839 16.4559 37.5 16.4567ZM36.8147 14.6978V15.3831C36.8142 15.4382 36.8247 15.4929 36.8455 15.5439C36.8663 15.595 36.897 15.6414 36.9359 15.6806C36.9747 15.7197 37.0209 15.7508 37.0718 15.772C37.1227 15.7932 37.1773 15.8041 37.2324 15.8041H37.5C37.6116 15.8041 37.7187 15.7597 37.7977 15.6808C37.8766 15.6018 37.921 15.4947 37.921 15.3831V14.701L36.8147 14.6978Z" fill="#093F68"/>
<path d="M42.0851 11.2742C42.9737 11.2742 43.694 10.6152 43.694 9.80237C43.694 8.98951 42.9737 8.33057 42.0851 8.33057C41.1966 8.33057 40.4763 8.98951 40.4763 9.80237C40.4763 10.6152 41.1966 11.2742 42.0851 11.2742Z" fill="#FFC9B0"/>
<path d="M42.0851 11.6008C41.7358 11.5735 41.4021 11.4449 41.1247 11.2308C40.8474 11.0168 40.6385 10.7265 40.5236 10.3955C40.4087 10.0645 40.3929 9.70721 40.4779 9.36735C40.563 9.02749 40.7454 8.71981 41.0026 8.482C41.2599 8.24418 41.581 8.08655 41.9264 8.0284C42.2719 7.97025 42.6269 8.01412 42.9478 8.15462C43.2688 8.29511 43.5418 8.52615 43.7334 8.81944C43.9251 9.11273 44.027 9.45553 44.0268 9.80588C44.0065 10.3011 43.7907 10.768 43.4267 11.1044C43.0628 11.4408 42.5804 11.6193 42.0851 11.6008ZM42.0851 8.66368C41.8646 8.69011 41.6565 8.77969 41.4857 8.92165C41.3149 9.06361 41.1889 9.25191 41.1226 9.46386C41.0564 9.67581 41.0528 9.9024 41.1123 10.1163C41.1719 10.3303 41.292 10.5224 41.4582 10.6697C41.6244 10.817 41.8296 10.9131 42.0491 10.9464C42.2687 10.9798 42.4932 10.9489 42.6956 10.8577C42.8981 10.7664 43.0698 10.6186 43.1902 10.432C43.3106 10.2454 43.3745 10.0279 43.3741 9.80588C43.365 9.6458 43.3244 9.48909 43.2546 9.34471C43.1849 9.20033 43.0873 9.07111 42.9676 8.96443C42.8479 8.85775 42.7084 8.77571 42.5569 8.72298C42.4055 8.67026 42.2452 8.64789 42.0851 8.65716V8.66368Z" fill="#093F68"/>
<path d="M32.706 11.2742C33.5946 11.2742 34.3149 10.6152 34.3149 9.80237C34.3149 8.98951 33.5946 8.33057 32.706 8.33057C31.8175 8.33057 31.0972 8.98951 31.0972 9.80237C31.0972 10.6152 31.8175 11.2742 32.706 11.2742Z" fill="#FFC9B0"/>
<path d="M32.7061 11.6008C32.3564 11.5747 32.0219 11.4472 31.7436 11.2338C31.4654 11.0204 31.2555 10.7305 31.1396 10.3995C31.0238 10.0686 31.007 9.71099 31.0914 9.37065C31.1759 9.03032 31.3578 8.72202 31.6149 8.48357C31.872 8.24512 32.193 8.08688 32.5388 8.02827C32.8845 7.96966 33.2398 8.01323 33.5611 8.15362C33.8824 8.29401 34.1558 8.52513 34.3477 8.81863C34.5395 9.11213 34.6416 9.45524 34.6413 9.80589C34.6209 10.2999 34.406 10.7658 34.0435 11.1021C33.681 11.4383 33.2002 11.6176 32.7061 11.6008ZM32.7061 8.66369C32.4851 8.68889 32.2762 8.7775 32.1045 8.91882C31.9328 9.06014 31.8057 9.24814 31.7385 9.46011C31.6713 9.67209 31.6669 9.89899 31.7258 10.1134C31.7847 10.3278 31.9044 10.5206 32.0704 10.6685C32.2365 10.8164 32.4418 10.9131 32.6616 10.9469C32.8814 10.9807 33.1063 10.9501 33.3091 10.8589C33.5119 10.7677 33.684 10.6197 33.8046 10.4329C33.9251 10.246 33.989 10.0283 33.9886 9.80589C33.9692 9.48409 33.8236 9.18293 33.5835 8.96784C33.3434 8.75275 33.028 8.64111 32.7061 8.65717V8.66369Z" fill="#093F68"/>
<path d="M37.3499 14.6C38.0264 14.6004 38.6964 14.4675 39.3216 14.2089C39.9467 13.9503 40.5148 13.571 40.9934 13.0928C41.4719 12.6146 41.8515 12.0467 42.1105 11.4217C42.3695 10.7967 42.5028 10.1268 42.5028 9.45027C42.5234 8.55087 42.4951 7.65101 42.418 6.75468C42.4009 6.49663 42.3538 6.24145 42.2776 5.99431C41.8371 4.73136 40.3522 5.16213 39.5331 5.74628C38.8967 6.21622 38.28 6.77426 37.5 6.8689C36.9382 6.91096 36.379 6.75764 35.9172 6.43487C35.0263 5.85724 34.452 4.27122 33.2282 5.19477C32.0044 6.11832 32.1904 8.07637 32.1904 9.43722C32.1887 10.1154 32.3209 10.7873 32.5796 11.4142C32.8382 12.0411 33.2181 12.6108 33.6975 13.0905C34.177 13.5702 34.7464 13.9505 35.3732 14.2095C35.9999 14.4686 36.6717 14.6012 37.3499 14.6Z" fill="#FFC9B0"/>
<path d="M37.3499 14.926C35.8975 14.9252 34.5048 14.3481 33.4775 13.3214C32.4502 12.2947 31.8723 10.9024 31.8706 9.45C31.8706 9.27704 31.8706 9.09429 31.8706 8.90827C31.8445 7.55069 31.8086 5.8635 33.0421 4.93342C34.1452 4.10451 34.8925 4.93342 35.4408 5.53063C35.637 5.7673 35.8617 5.97884 36.1098 6.16047C36.5041 6.44179 36.9842 6.57681 37.4673 6.54229C38.0123 6.47702 38.4855 6.12131 38.9848 5.74601C39.1056 5.65464 39.2231 5.56653 39.3438 5.48168C39.9214 5.07049 40.8711 4.67888 41.6478 4.9269C41.8704 4.9999 42.072 5.12553 42.2356 5.29313C42.3993 5.46074 42.52 5.66535 42.5877 5.8896C42.6711 6.16118 42.7225 6.44155 42.741 6.72504C42.8156 7.53865 42.845 8.35575 42.8292 9.17261V9.45326C42.8266 10.9051 42.2482 12.2966 41.2211 13.3225C40.1939 14.3485 38.8017 14.9252 37.3499 14.926ZM33.9429 5.23692C33.7526 5.2513 33.5725 5.32817 33.4305 5.45557C32.4515 6.18331 32.4906 7.62248 32.5167 8.89522V9.45C32.5167 10.7301 33.0253 11.9578 33.9304 12.8629C34.8356 13.7681 36.0632 14.2766 37.3433 14.2766C38.6234 14.2766 39.8511 13.7681 40.7563 12.8629C41.6614 11.9578 42.1699 10.7301 42.1699 9.45V9.15303C42.1849 8.36022 42.1577 7.56717 42.0884 6.77726C42.0713 6.54402 42.0297 6.31322 41.9643 6.08867C41.9293 5.96105 41.8638 5.84386 41.7734 5.74721C41.683 5.65056 41.5705 5.57735 41.4455 5.53389C40.9331 5.37072 40.189 5.66116 39.7158 6.00056L39.3699 6.25511C38.8249 6.6663 38.2571 7.09054 37.5391 7.17866C36.9018 7.23155 36.266 7.06076 35.741 6.69567C35.4443 6.48464 35.1766 6.23558 34.9447 5.95487C34.5237 5.49799 34.2366 5.23692 33.9429 5.23692Z" fill="#093F68"/>
<path d="M37.376 10.628C37.231 10.6308 37.0863 10.6154 36.9452 10.5823C36.8808 10.5667 36.8209 10.5365 36.77 10.4941C36.719 10.4516 36.6785 10.3981 36.6515 10.3376C36.5275 10.0602 36.6515 9.53805 37.0627 8.78094C37.1024 8.70465 37.1706 8.64711 37.2525 8.62083C37.3344 8.59455 37.4233 8.60166 37.5 8.64061C37.5382 8.66027 37.5721 8.68727 37.5999 8.72007C37.6276 8.75287 37.6486 8.79082 37.6616 8.83175C37.6747 8.87269 37.6795 8.91579 37.6758 8.95859C37.6722 9.00139 37.6601 9.04305 37.6403 9.08117C37.4878 9.36574 37.3653 9.66541 37.2748 9.97535C37.4364 9.98053 37.5981 9.9707 37.7578 9.94598C37.8 9.93846 37.8433 9.93934 37.8852 9.94856C37.9271 9.95777 37.9667 9.97515 38.0019 9.9997C38.037 10.0243 38.067 10.0555 38.0901 10.0916C38.1131 10.1278 38.1289 10.1681 38.1364 10.2103C38.1439 10.2525 38.143 10.2958 38.1338 10.3377C38.1246 10.3796 38.1072 10.4192 38.0826 10.4544C38.0581 10.4895 38.0269 10.5195 37.9907 10.5426C37.9546 10.5657 37.9142 10.5814 37.872 10.5889C37.7079 10.6148 37.5421 10.6279 37.376 10.628Z" fill="#093F68"/>
<path d="M41.7033 44.1826H45.4954L41.7261 25.6333H37.934L41.7033 44.1826Z" fill="#093F68"/>
<path d="M45.4954 44.5057H41.7033C41.627 44.5072 41.5525 44.4819 41.4928 44.4342C41.4332 44.3865 41.3922 44.3194 41.377 44.2446L37.6142 25.6986C37.6044 25.6514 37.6052 25.6026 37.6165 25.5558C37.6278 25.509 37.6493 25.4652 37.6795 25.4277C37.7102 25.3898 37.749 25.3593 37.7931 25.3384C37.8371 25.3175 37.8853 25.3068 37.934 25.307H41.7425C41.8188 25.3054 41.8933 25.3307 41.9529 25.3784C42.0125 25.4261 42.0535 25.4932 42.0688 25.568L45.8381 44.1173C45.8478 44.1645 45.8471 44.2132 45.8358 44.2601C45.8245 44.3069 45.803 44.3507 45.7728 44.3882C45.7394 44.4286 45.6967 44.4604 45.6485 44.4809C45.6002 44.5013 45.5477 44.5098 45.4954 44.5057ZM41.9709 43.853H45.0973L41.4585 25.9596H38.3322L41.9709 43.853Z" fill="#093F68"/>
<path d="M33.3816 44.1826H36.3284L36.472 25.6333H33.065L33.3816 44.1826Z" fill="#093F68"/>
<path d="M36.3252 44.5056H33.3881C33.3015 44.5056 33.2185 44.4712 33.1573 44.41C33.0961 44.3488 33.0618 44.2658 33.0618 44.1793L32.7354 25.6332C32.7354 25.5467 32.7698 25.4637 32.831 25.4025C32.8922 25.3413 32.9752 25.3069 33.0618 25.3069H36.4688C36.5119 25.3071 36.5547 25.3158 36.5944 25.3326C36.6342 25.3494 36.6703 25.374 36.7005 25.4048C36.7307 25.4353 36.7547 25.4714 36.7709 25.5112C36.7871 25.551 36.7954 25.5935 36.7951 25.6365L36.6483 44.1825C36.6474 44.2679 36.6131 44.3496 36.5527 44.41C36.4923 44.4704 36.4106 44.5048 36.3252 44.5056ZM33.7144 43.8529H35.9988L36.1392 25.9596H33.3946L33.7144 43.8529Z" fill="#093F68"/>
<path d="M41.5629 29.0664H33.0682V25.6072H41.5629V29.0664Z" fill="#093F68"/>
<path d="M41.563 29.3862H33.0781C32.9915 29.3862 32.9085 29.3519 32.8473 29.2907C32.7861 29.2295 32.7517 29.1464 32.7517 29.0599V25.6039C32.7517 25.5174 32.7861 25.4344 32.8473 25.3732C32.9085 25.312 32.9915 25.2776 33.0781 25.2776H41.563C41.6495 25.2776 41.7325 25.312 41.7937 25.3732C41.8549 25.4344 41.8893 25.5174 41.8893 25.6039V29.0599C41.8893 29.1464 41.8549 29.2295 41.7937 29.2907C41.7325 29.3519 41.6495 29.3862 41.563 29.3862ZM33.4044 28.7336H41.2366V25.9237H33.4044V28.7336Z" fill="#093F68"/>
<path d="M41.7033 44.1826L42.2091 46.6791H47.9658L44.8264 44.1826H41.7033Z" fill="white"/>
<path d="M47.9658 47.009H42.2091C42.1328 47.0105 42.0583 46.9852 41.9987 46.9375C41.9391 46.8898 41.8981 46.8227 41.8828 46.7479L41.377 44.2481C41.3672 44.2002 41.3683 44.1506 41.3802 44.1031C41.3922 44.0557 41.4147 44.0115 41.446 43.9739C41.4773 43.9363 41.5167 43.9062 41.5613 43.8859C41.6058 43.8656 41.6544 43.8555 41.7033 43.8565H44.8264C44.9 43.8569 44.9713 43.8822 45.0287 43.9283L48.1714 46.4281C48.2242 46.4705 48.2625 46.5282 48.2811 46.5933C48.2996 46.6584 48.2974 46.7277 48.2748 46.7915C48.2523 46.8554 48.2104 46.9106 48.155 46.9495C48.0996 46.9885 48.0335 47.0093 47.9658 47.009ZM42.4767 46.3563H47.0455L44.7252 44.5092H42.1145L42.4767 46.3563Z" fill="#093F68"/>
<path d="M36.1424 44.1826V46.6791H30.8622L33.8417 44.1826H36.1424Z" fill="white"/>
<path d="M36.1424 47.0089H30.8622C30.7958 47.0083 30.7311 46.9873 30.6769 46.949C30.6226 46.9106 30.5814 46.8566 30.5587 46.7941C30.536 46.7317 30.5329 46.6638 30.5498 46.5995C30.5667 46.5353 30.6028 46.4777 30.6533 46.4346L33.6296 43.9348C33.6887 43.8842 33.7639 43.8564 33.8417 43.8564H36.1424C36.229 43.8564 36.312 43.8908 36.3732 43.952C36.4344 44.0132 36.4687 44.0962 36.4687 44.1828V46.6826C36.4687 46.7691 36.4344 46.8521 36.3732 46.9133C36.312 46.9745 36.229 47.0089 36.1424 47.0089ZM31.7596 46.3562H35.8161V44.5091H33.9592L31.7596 46.3562Z" fill="#093F68"/>
<path d="M41.7425 21.3843C41.6559 21.3843 41.5729 21.3499 41.5117 21.2887C41.4505 21.2275 41.4161 21.1445 41.4161 21.058V17.8761C41.4161 17.7896 41.4505 17.7066 41.5117 17.6454C41.5729 17.5842 41.6559 17.5498 41.7425 17.5498C41.829 17.5498 41.912 17.5842 41.9732 17.6454C42.0344 17.7066 42.0688 17.7896 42.0688 17.8761V21.058C42.0688 21.1445 42.0344 21.2275 41.9732 21.2887C41.912 21.3499 41.829 21.3843 41.7425 21.3843Z" fill="#093F68"/>
<path d="M33.065 19.6189C32.9784 19.6189 32.8954 19.5845 32.8342 19.5233C32.773 19.4621 32.7386 19.3791 32.7386 19.2925V17.2072C32.7386 17.1207 32.773 17.0376 32.8342 16.9764C32.8954 16.9152 32.9784 16.8809 33.065 16.8809C33.1515 16.8809 33.2345 16.9152 33.2957 16.9764C33.3569 17.0376 33.3913 17.1207 33.3913 17.2072V19.2925C33.3913 19.3791 33.3569 19.4621 33.2957 19.5233C33.2345 19.5845 33.1515 19.6189 33.065 19.6189Z" fill="#093F68"/>
<path d="M37.5783 12.8636C36.6351 12.8227 35.73 12.4795 34.9969 11.8846C34.9622 11.8594 34.9327 11.8275 34.9102 11.7909C34.8878 11.7542 34.8728 11.7135 34.8661 11.6711C34.8595 11.6286 34.8612 11.5853 34.8714 11.5435C34.8815 11.5018 34.8998 11.4624 34.9251 11.4277C34.9504 11.3929 34.9822 11.3635 35.0189 11.341C35.0555 11.3186 35.0962 11.3036 35.1387 11.2969C35.1811 11.2903 35.2245 11.292 35.2662 11.3022C35.308 11.3123 35.3473 11.3306 35.382 11.3559C37.8851 13.1737 39.3308 11.4865 39.3895 11.4114C39.4169 11.3784 39.4506 11.351 39.4885 11.331C39.5265 11.311 39.568 11.2987 39.6108 11.2947C39.6535 11.2908 39.6966 11.2953 39.7376 11.3081C39.7786 11.3208 39.8167 11.3415 39.8497 11.369C39.9159 11.4238 39.9579 11.5025 39.9664 11.588C39.975 11.6736 39.9494 11.759 39.8953 11.8259C39.6017 12.1494 39.2442 12.4086 38.8454 12.5872C38.4467 12.7658 38.0152 12.8599 37.5783 12.8636Z" fill="#093F68"/>
<path d="M40.3424 8.87256C40.2559 8.87256 40.1729 8.83818 40.1117 8.77698C40.0505 8.71578 40.0161 8.63277 40.0161 8.54622C40.0161 8.42851 39.9693 8.31562 39.8861 8.23239C39.8029 8.14915 39.69 8.10239 39.5723 8.10239C39.4546 8.10239 39.3417 8.14915 39.2584 8.23239C39.1752 8.31562 39.1285 8.42851 39.1285 8.54622C39.1285 8.63277 39.0941 8.71578 39.0329 8.77698C38.9717 8.83818 38.8887 8.87256 38.8021 8.87256C38.7156 8.87256 38.6326 8.83818 38.5714 8.77698C38.5102 8.71578 38.4758 8.63277 38.4758 8.54622C38.4758 8.2554 38.5913 7.9765 38.7969 7.77087C39.0026 7.56523 39.2815 7.44971 39.5723 7.44971C39.8631 7.44971 40.142 7.56523 40.3476 7.77087C40.5533 7.9765 40.6688 8.2554 40.6688 8.54622C40.6688 8.63277 40.6344 8.71578 40.5732 8.77698C40.512 8.83818 40.429 8.87256 40.3424 8.87256Z" fill="#093F68"/>
<path d="M35.9597 8.87256C35.8731 8.87256 35.7901 8.83818 35.7289 8.77698C35.6677 8.71578 35.6334 8.63277 35.6334 8.54622C35.6334 8.42851 35.5866 8.31562 35.5034 8.23239C35.4201 8.14915 35.3072 8.10239 35.1895 8.10239C35.0718 8.10239 34.9589 8.14915 34.8757 8.23239C34.7925 8.31562 34.7457 8.42851 34.7457 8.54622C34.7457 8.63277 34.7113 8.71578 34.6501 8.77698C34.5889 8.83818 34.5059 8.87256 34.4194 8.87256C34.3328 8.87256 34.2498 8.83818 34.1886 8.77698C34.1274 8.71578 34.093 8.63277 34.093 8.54622C34.093 8.2554 34.2085 7.9765 34.4142 7.77087C34.6198 7.56523 34.8987 7.44971 35.1895 7.44971C35.4803 7.44971 35.7592 7.56523 35.9649 7.77087C36.1705 7.9765 36.286 8.2554 36.286 8.54622C36.286 8.63277 36.2517 8.71578 36.1905 8.77698C36.1293 8.83818 36.0462 8.87256 35.9597 8.87256Z" fill="#093F68"/>
<path d="M43.4688 23.4077C43.4688 23.4077 41.9807 24.3182 41.8534 24.824C41.7261 25.3299 42.0949 27.6795 42.3331 27.8133C42.5714 27.9471 44.3891 28.5084 44.4968 27.8133C44.6045 27.1182 43.7494 26.9322 43.7494 26.9322C43.7494 26.9322 45.4301 26.5014 45.4954 25.1406L43.4688 23.4077Z" fill="#FFC9B0"/>
<path d="M43.8441 28.4792C43.2698 28.4557 42.7046 28.3274 42.1765 28.1006C41.6935 27.833 41.4226 25.2027 41.5238 24.7458C41.6739 24.1552 42.9108 23.3589 43.286 23.1304C43.3447 23.0945 43.4132 23.078 43.4817 23.0832C43.5503 23.0885 43.6154 23.1153 43.6679 23.1598L45.6945 24.8927C45.7324 24.9251 45.7625 24.9658 45.7823 25.0116C45.8021 25.0574 45.8111 25.1072 45.8087 25.157C45.7723 25.5487 45.6322 25.9236 45.4027 26.2431C45.1733 26.5626 44.8628 26.8152 44.5033 26.9748C44.6247 27.0851 44.7165 27.2243 44.7701 27.3794C44.8237 27.5345 44.8374 27.7006 44.8101 27.8624C44.7929 27.9716 44.7491 28.0749 44.6825 28.1631C44.6159 28.2514 44.5286 28.3218 44.4282 28.3682C44.2442 28.4481 44.0446 28.486 43.8441 28.4792ZM42.5387 27.5556C43.0772 27.8167 44.0693 27.882 44.1704 27.7678C44.2292 27.3892 43.7299 27.2652 43.6744 27.2521C43.5878 27.2521 43.5048 27.2178 43.4436 27.1566C43.3824 27.0954 43.3481 27.0124 43.3481 26.9258C43.3481 26.8393 43.3824 26.7562 43.4436 26.695C43.5048 26.6338 43.5878 26.5995 43.6744 26.5995C43.6744 26.5995 44.9798 26.2437 45.1593 25.2615L43.446 23.7962C42.7933 24.2204 42.2222 24.7034 42.1765 24.8862C42.0688 25.3071 42.369 27.1901 42.5453 27.5556H42.5387Z" fill="#093F68"/>
<path d="M37.0268 17.4683H37.6045C37.8261 17.4683 38.0059 17.2885 38.0059 17.0669V16.7829C38.0059 16.5613 37.8261 16.3815 37.6045 16.3815H37.0268C36.8051 16.3815 36.6254 16.5613 36.6254 16.7829V17.0669C36.6254 17.2885 36.8051 17.4683 37.0268 17.4683Z" fill="#70CC40"/>
<path d="M37.6077 17.7947H37.03C36.8376 17.7947 36.653 17.7185 36.5166 17.5827C36.3802 17.447 36.3032 17.2627 36.3023 17.0703V16.7863C36.3023 16.5933 36.379 16.4082 36.5155 16.2717C36.6519 16.1353 36.837 16.0586 37.03 16.0586H37.6077C37.7031 16.0586 37.7976 16.0774 37.8857 16.1141C37.9738 16.1507 38.0538 16.2043 38.1211 16.2719C38.1884 16.3396 38.2417 16.4198 38.2779 16.5081C38.3142 16.5964 38.3326 16.6909 38.3322 16.7863V17.0703C38.3322 17.2624 38.2558 17.4467 38.12 17.5825C37.9841 17.7184 37.7998 17.7947 37.6077 17.7947ZM37.03 16.7113C37.0101 16.7113 36.9911 16.7192 36.977 16.7333C36.9629 16.7473 36.955 16.7664 36.955 16.7863V17.0703C36.955 17.08 36.9569 17.0896 36.9608 17.0985C36.9646 17.1074 36.9701 17.1155 36.9772 17.1222C36.9842 17.1289 36.9925 17.1341 37.0016 17.1376C37.0107 17.141 37.0203 17.1425 37.03 17.1421H37.6077C37.6267 17.1421 37.645 17.1345 37.6584 17.121C37.6719 17.1076 37.6795 17.0893 37.6795 17.0703V16.7863C37.6799 16.7766 37.6784 16.7669 37.675 16.7579C37.6716 16.7488 37.6663 16.7405 37.6596 16.7334C37.6529 16.7264 37.6449 16.7208 37.6359 16.717C37.627 16.7132 37.6174 16.7113 37.6077 16.7113H37.03Z" fill="#093F68"/>
<path d="M37.7121 17.4683L38.5149 21.8282L37.2683 23.8156L36.2305 22.0142L36.9224 17.4683H37.7121Z" fill="#70CC40"/>
<path d="M37.2683 24.1422C37.2119 24.1413 37.1567 24.1258 37.1081 24.0972C37.0595 24.0686 37.0191 24.0279 36.9909 23.979L35.9499 22.1776C35.9145 22.1129 35.9008 22.0385 35.9107 21.9655L36.6026 17.4195C36.6144 17.3417 36.6539 17.2708 36.7139 17.2198C36.7738 17.1688 36.8502 17.1412 36.9289 17.1421H37.7187C37.7959 17.1409 37.8711 17.1671 37.9309 17.2161C37.9907 17.2651 38.0311 17.3337 38.045 17.4097L38.8445 21.7697C38.8597 21.8495 38.8446 21.9321 38.8021 22.0014L37.5555 23.9888C37.5252 24.0373 37.4828 24.0769 37.4324 24.1039C37.382 24.1308 37.3254 24.144 37.2683 24.1422ZM36.5699 21.9492L37.2814 23.1827L38.1723 21.7631L37.4413 17.7948H37.203L36.5699 21.9492Z" fill="#093F68"/>
<path d="M24.9293 6.34663L24.5181 5.08369C24.5181 5.08369 24.8445 4.10466 24.5181 3.7979C24.2665 3.58836 23.9876 3.41382 23.6892 3.27901C23.6892 3.27901 23.0006 0.612796 22.8635 0.452888C22.7265 0.29298 22.3349 0.201605 22.2109 0.798811C22.0869 1.39602 22.485 3.34428 22.485 3.34428C21.957 3.55874 21.504 3.92429 21.1829 4.3951C20.6999 5.15222 22.8603 7.77601 22.8603 7.77601L24.9293 6.34663Z" fill="#FFC9B0"/>
<path d="M22.8635 8.10231C22.8153 8.10199 22.7678 8.091 22.7244 8.07012C22.6809 8.04924 22.6426 8.019 22.6123 7.98156C21.9172 7.1396 20.3605 5.08364 20.912 4.21883C21.2109 3.76593 21.621 3.39736 22.1032 3.14843C21.9889 2.57407 21.7572 1.24586 21.878 0.713918C21.9987 0.18198 22.2859 0.0612334 22.4491 0.0155455C22.5672 -0.0102404 22.6901 -0.00385803 22.8049 0.0340272C22.9197 0.0719124 23.0222 0.139912 23.1018 0.230931C23.1507 0.289673 23.2845 0.443053 23.9601 3.04074C24.2366 3.18092 24.4952 3.35405 24.7302 3.55636C25.1251 3.92513 24.9521 4.7214 24.8477 5.08038L25.2295 6.24542C25.2512 6.31206 25.2508 6.38389 25.2285 6.45031C25.2061 6.51672 25.163 6.57418 25.1055 6.61419L23.0398 8.04357C22.988 8.07981 22.9267 8.10021 22.8635 8.10231ZM22.609 0.66823C22.5861 0.66823 22.5437 0.740025 22.5144 0.870562C22.4262 1.25565 22.6384 2.55122 22.7917 3.2757C22.8084 3.35253 22.7968 3.4328 22.759 3.50175C22.7213 3.5707 22.6599 3.6237 22.5862 3.651C22.1286 3.84692 21.7376 4.17107 21.4603 4.58434C21.2873 4.85847 21.9726 6.13773 22.9288 7.34846L24.5605 6.23237L24.2342 5.20113C24.2127 5.13538 24.2127 5.06453 24.2342 4.99879C24.3582 4.6994 24.3889 4.36954 24.3223 4.0524C24.0975 3.86487 23.8497 3.70694 23.5848 3.58247C23.5401 3.56255 23.5005 3.53285 23.4689 3.49557C23.4372 3.45829 23.4144 3.41438 23.402 3.36708C23.0789 2.20856 22.7232 0.935831 22.609 0.66823Z" fill="#093F68"/>
<path d="M22.4883 3.33447C22.4883 3.33447 21.4309 5.08367 22.0738 5.08367C22.7167 5.08367 23.1997 4.30371 23.1997 4.30371C23.1997 4.30371 22.7657 5.10978 23.1997 5.68088" fill="#FFC9B0"/>
<path d="M23.1834 6.00722C23.1335 6.0071 23.0844 5.99557 23.0397 5.97351C22.995 5.95144 22.956 5.91944 22.9256 5.87995C22.7809 5.691 22.6937 5.46443 22.6743 5.22726C22.4856 5.33297 22.2737 5.39016 22.0575 5.3937C21.9653 5.39729 21.8739 5.37544 21.7933 5.33054C21.7127 5.28564 21.6461 5.21942 21.6006 5.13915C21.3559 4.70838 21.7899 3.83378 22.1946 3.14846C22.2398 3.07513 22.3121 3.02266 22.3959 3.00248C22.4797 2.98231 22.568 2.99607 22.6416 3.04077C22.7155 3.08545 22.7687 3.1576 22.7895 3.24139C22.8103 3.32519 22.797 3.41381 22.7526 3.48786C22.5092 3.87262 22.3192 4.28872 22.188 4.72469C22.4864 4.6032 22.738 4.38933 22.906 4.11443C22.9511 4.0434 23.022 3.99256 23.1037 3.97254C23.1855 3.95251 23.2718 3.96485 23.3447 4.00697C23.4176 4.04909 23.4714 4.11775 23.4948 4.19858C23.5183 4.27942 23.5096 4.36619 23.4705 4.44078C23.4705 4.44078 23.1442 5.07388 23.4444 5.46876C23.4967 5.53759 23.5196 5.62436 23.5079 5.71002C23.4963 5.79567 23.4512 5.87322 23.3824 5.92563C23.3272 5.97455 23.257 6.00331 23.1834 6.00722Z" fill="#093F68"/>
</svg>
