<svg width="34" height="34" viewBox="0 0 34 34" fill="none" xmlns="http://www.w3.org/2000/svg">
<path d="M34 24.123C34 30.311 30.311 34 24.123 34H22.1C21.165 34 20.4 33.235 20.4 32.3V22.491C20.4 22.032 20.774 21.641 21.233 21.641L24.225 21.59C24.463 21.573 24.667 21.403 24.718 21.165L25.313 17.918C25.364 17.612 25.126 17.323 24.803 17.323L21.182 17.374C20.706 17.374 20.332 17 20.315 16.541L20.247 12.376C20.247 12.104 20.468 11.866 20.757 11.866L24.837 11.798C25.126 11.798 25.347 11.577 25.347 11.288L25.279 7.20798C25.279 6.91898 25.058 6.698 24.769 6.698L20.179 6.76602C17.357 6.81702 15.113 9.129 15.164 11.951L15.249 16.626C15.266 17.102 14.892 17.476 14.416 17.493L12.376 17.527C12.087 17.527 11.866 17.748 11.866 18.037L11.917 21.267C11.917 21.556 12.138 21.777 12.427 21.777L14.467 21.743C14.943 21.743 15.317 22.117 15.334 22.576L15.487 32.266C15.504 33.218 14.739 34 13.787 34H9.877C3.689 34 0 30.311 0 24.106V9.877C0 3.689 3.689 0 9.877 0H24.123C30.311 0 34 3.689 34 9.877V24.123Z" fill="#565656"/>
</svg>
