<svg width="35" height="34" viewBox="0 0 35 34" fill="none" xmlns="http://www.w3.org/2000/svg">
<path d="M31.3016 0H4.58728C2.57612 0 0.944427 1.6317 0.944427 3.64286V30.3571C0.944427 32.3683 2.57612 34 4.58728 34H31.3016C33.3127 34 34.9444 32.3683 34.9444 30.3571V3.64286C34.9444 1.6317 33.3127 0 31.3016 0ZM27.5904 12.0518C27.6056 12.2643 27.6056 12.4844 27.6056 12.6969C27.6056 19.2768 22.5967 26.8585 13.444 26.8585C10.6208 26.8585 8.00246 26.0388 5.80157 24.6272C6.2038 24.6728 6.59086 24.6879 7.00068 24.6879C9.33059 24.6879 11.4708 23.8987 13.1784 22.5629C10.9926 22.5174 9.15603 21.083 8.52612 19.1098C9.29264 19.2237 9.98327 19.2237 10.7726 19.0188C8.49577 18.5558 6.78818 16.5522 6.78818 14.1313V14.0705C7.44845 14.4424 8.22255 14.6701 9.03461 14.7004C8.3519 14.2463 7.79223 13.6303 7.40554 12.9072C7.01886 12.1842 6.81719 11.3766 6.81853 10.5567C6.81853 9.6308 7.06139 8.7808 7.49398 8.04464C9.94532 11.0652 13.6261 13.0384 17.7547 13.2509C17.0489 9.87366 19.5761 7.13393 22.6118 7.13393C24.0462 7.13393 25.3364 7.73348 26.2471 8.70491C27.3703 8.49241 28.448 8.075 29.4042 7.5058C29.0324 8.65937 28.2507 9.6308 27.2185 10.2455C28.2203 10.1393 29.1917 9.85848 30.0873 9.47143C29.4118 10.4656 28.5618 11.346 27.5904 12.0518Z" fill="#565656"/>
</svg>
