<svg width="35" height="34" viewBox="0 0 35 34" fill="none" xmlns="http://www.w3.org/2000/svg">
<path d="M32.3705 0H3.39872C2.01322 0 0.888855 1.09792 0.888855 2.44989V31.5468C0.888855 32.9007 2.01322 34 3.39872 34H32.3705C33.7569 34 34.8889 32.9007 34.8889 31.5468V2.44989C34.8889 1.09792 33.7569 0 32.3705 0ZM10.9727 28.9727H5.92747V12.7476H10.9727V28.9727ZM8.45008 10.5291C6.83366 10.5291 5.52702 9.21919 5.52702 7.60419C5.52702 5.99156 6.83366 4.68161 8.45008 4.68161C10.0627 4.68161 11.3727 5.99156 11.3727 7.60419C11.3727 9.21919 10.0627 10.5291 8.45008 10.5291ZM29.8597 28.9727H24.8225V21.0828C24.8225 19.2006 24.7857 16.7804 22.2012 16.7804C19.5766 16.7804 19.1766 18.8303 19.1766 20.9464V28.9732H14.1356V12.7476H18.9735V14.9633H19.0425C19.7159 13.6883 21.3611 12.3429 23.8148 12.3429C28.9176 12.3429 29.8602 15.7023 29.8602 20.0728L29.8597 28.9727Z" fill="#565656"/>
</svg>
