<svg width="35" height="25" viewBox="0 0 35 25" fill="none" xmlns="http://www.w3.org/2000/svg">
<path d="M34.2069 4.2838C33.803 2.85005 32.6849 1.72558 31.2448 1.32808C28.593 0.619175 17.9329 0.619175 17.9329 0.619175C17.9329 0.619175 7.29294 0.602169 4.61356 1.32808C3.18087 1.72664 2.05746 2.85005 1.65784 4.2838C1.15512 7.00144 0.905358 9.75204 0.917049 12.5154C0.911735 15.2607 1.16044 18.007 1.65784 20.7076C2.05746 22.1414 3.18087 23.2659 4.61356 23.6697C7.26531 24.3786 17.9329 24.3786 17.9329 24.3786C17.9329 24.3786 28.5665 24.3786 31.2448 23.6697C32.6849 23.2659 33.803 22.1425 34.2069 20.7076C34.6947 18.007 34.9328 15.2607 34.9158 12.5154C34.9328 9.75204 34.7 7.00144 34.2069 4.2838ZM14.5276 17.6031V7.40532L23.4011 12.5154L14.5276 17.6031Z" fill="#565656"/>
</svg>
