<svg width="35" height="34" viewBox="0 0 35 34" fill="none" xmlns="http://www.w3.org/2000/svg">
<path d="M17.9722 12.9519C17.1716 12.9522 16.3891 13.1898 15.7236 13.6348C15.0581 14.0798 14.5395 14.7122 14.2333 15.4519C13.9272 16.1916 13.8472 17.0055 14.0036 17.7907C14.1599 18.5758 14.5456 19.297 15.1118 19.863C15.678 20.429 16.3993 20.8144 17.1845 20.9705C17.9698 21.1265 18.7836 21.0463 19.5232 20.7398C20.2628 20.4334 20.895 19.9145 21.3397 19.2489C21.7845 18.5832 22.0219 17.8006 22.0219 17C22.0211 15.9264 21.5941 14.8969 20.8348 14.1379C20.0754 13.3789 19.0459 12.9523 17.9722 12.9519ZM27.4368 9.84027C27.2307 9.31801 26.9195 8.84366 26.5225 8.44665C26.1255 8.04965 25.6512 7.73845 25.1289 7.53237C23.5352 6.90321 19.7405 7.04437 17.9722 7.04437C16.2039 7.04437 12.4131 6.8979 10.8148 7.53237C10.2925 7.73845 9.81815 8.04965 9.42114 8.44665C9.02414 8.84366 8.71294 9.31801 8.50686 9.84027C7.87846 11.434 8.01887 15.2325 8.01887 16.9992C8.01887 18.766 7.87846 22.5599 8.50989 24.159C8.71597 24.6812 9.02717 25.1556 9.42418 25.5526C9.82118 25.9496 10.2955 26.2608 10.8178 26.4669C12.4115 27.096 16.2062 26.9549 17.9752 26.9549C19.7443 26.9549 23.5336 27.1013 25.1319 26.4669C25.6542 26.2608 26.1286 25.9496 26.5256 25.5526C26.9226 25.1556 27.2338 24.6812 27.4398 24.159C28.0736 22.5652 27.9278 18.7668 27.9278 17C27.9278 15.2332 28.0736 11.4401 27.4398 9.84103L27.4368 9.84027ZM17.9722 23.2232C16.7414 23.2232 15.5382 22.8582 14.5148 22.1744C13.4914 21.4906 12.6937 20.5187 12.2227 19.3815C11.7517 18.2444 11.6285 16.9931 11.8686 15.7859C12.1087 14.5787 12.7014 13.4699 13.5717 12.5995C14.4421 11.7292 15.5509 11.1365 16.7581 10.8964C17.9653 10.6562 19.2166 10.7795 20.3537 11.2505C21.4909 11.7215 22.4628 12.5192 23.1466 13.5426C23.8304 14.566 24.1954 15.7692 24.1954 17C24.1964 17.8175 24.0361 18.6272 23.7237 19.3827C23.4114 20.1382 22.953 20.8246 22.3749 21.4027C21.7968 21.9808 21.1104 22.4391 20.3549 22.7515C19.5994 23.0639 18.7897 23.2242 17.9722 23.2232ZM24.4519 11.9683C24.1646 11.9685 23.8837 11.8834 23.6447 11.7239C23.4057 11.5643 23.2194 11.3375 23.1094 11.0721C22.9993 10.8067 22.9705 10.5146 23.0264 10.2328C23.0824 9.95097 23.2207 9.69207 23.4238 9.48885C23.6269 9.28562 23.8857 9.1472 24.1675 9.09109C24.4493 9.03498 24.7414 9.0637 25.0069 9.17362C25.2724 9.28355 25.4993 9.46973 25.6589 9.70862C25.8186 9.94751 25.9038 10.2284 25.9038 10.5157C25.9046 10.7065 25.8677 10.8956 25.7953 11.0721C25.7228 11.2486 25.6162 11.4091 25.4816 11.5444C25.347 11.6796 25.187 11.7869 25.0109 11.8602C24.8347 11.9335 24.6458 11.9712 24.455 11.9713L24.4519 11.9683ZM31.3294 0H4.61507C3.64893 0 2.72235 0.3838 2.03918 1.06697C1.35601 1.75014 0.972214 2.67671 0.972214 3.64286L0.972214 30.3571C0.972214 31.3233 1.35601 32.2499 2.03918 32.933C2.72235 33.6162 3.64893 34 4.61507 34H31.3294C32.2955 34 33.2221 33.6162 33.9052 32.933C34.5884 32.2499 34.9722 31.3233 34.9722 30.3571V3.64286C34.9722 2.67671 34.5884 1.75014 33.9052 1.06697C33.2221 0.3838 32.2955 0 31.3294 0ZM30.0301 22.0089C29.9322 23.9541 29.4882 25.6776 28.0682 27.0938C26.6483 28.5099 24.9263 28.963 22.9834 29.0556C20.9791 29.1687 14.9699 29.1687 12.9656 29.0556C11.0204 28.9577 9.30297 28.5129 7.88074 27.0938C6.45851 25.6746 6.0115 23.9503 5.91891 22.0089C5.80583 20.0038 5.80583 13.9939 5.91891 11.9911C6.01681 10.0459 6.45547 8.32241 7.88074 6.90625C9.30601 5.49009 11.028 5.04232 12.9656 4.94973C14.9699 4.83665 20.9791 4.83665 22.9834 4.94973C24.9286 5.04763 26.6513 5.49237 28.0682 6.91156C29.4852 8.33076 29.9375 10.055 30.0301 12.0002C30.1432 13.9977 30.1432 20.0023 30.0301 22.0089Z" fill="#565656"/>
</svg>
