<svg width="40" height="33" viewBox="0 0 40 33" fill="none" xmlns="http://www.w3.org/2000/svg">
<path d="M37.3961 15.3972C30.3962 4.65582 16.2004 1.08239 4.95093 7.2224C4.52789 7.45328 4.38581 7.9889 4.63463 8.40167L5.95759 10.5961C6.19472 10.99 6.702 11.1249 7.1066 10.9064C16.3588 5.91382 27.9696 8.8376 33.7528 17.62C34.0055 18.0042 34.5163 18.1252 34.9116 17.8912L37.1164 16.5857C37.5306 16.3399 37.6593 15.801 37.3961 15.3972ZM18.615 21.4644C16.794 21.0056 14.9462 22.1096 14.4874 23.9307C14.0285 25.7518 15.1326 27.5995 16.9536 28.0584C18.7747 28.5172 20.6225 27.4131 21.0813 25.5921C21.5401 23.771 20.4361 21.9233 18.615 21.4644ZM30.1405 19.7889C25.5259 13.0419 16.5119 10.7768 9.25941 14.5277C8.82478 14.7524 8.676 15.2951 8.92957 15.7129L10.2626 17.9109C10.4948 18.2938 10.9873 18.4397 11.3881 18.2383C16.6547 15.5895 23.1327 17.2304 26.5073 22.0477C26.7648 22.415 27.2675 22.5203 27.6535 22.2927L29.8689 20.9887C30.2907 20.7411 30.4164 20.192 30.1405 19.7889Z" fill="#565656"/>
</svg>
