<svg width="18" height="14" viewBox="0 0 18 14" fill="none" xmlns="http://www.w3.org/2000/svg">
<path d="M17 3.57143L13.8348 5.26705C12.0702 6.21237 11.1879 6.68509 10.2535 6.8704C9.42649 7.03437 8.57351 7.03437 7.74649 6.8704C6.81212 6.68509 5.9298 6.21237 4.16516 5.26705L1 3.57143M3.84444 13H14.1556C15.1512 13 15.6491 13 16.0293 12.8131C16.3638 12.6488 16.6358 12.3865 16.8062 12.064C17 11.6973 17 11.2172 17 10.2571V3.74286C17 2.78277 17 2.30272 16.8062 1.93602C16.6358 1.61345 16.3638 1.3512 16.0293 1.18685C15.6491 1 15.1512 1 14.1556 1H3.84444C2.8488 1 2.35097 1 1.97068 1.18685C1.63617 1.3512 1.3642 1.61345 1.19377 1.93602C1 2.30272 1 2.78276 1 3.74286V10.2571C1 11.2172 1 11.6973 1.19377 12.064C1.3642 12.3865 1.63617 12.6488 1.97068 12.8131C2.35097 13 2.84879 13 3.84444 13Z" stroke="black" stroke-width="1.5" stroke-linecap="round" stroke-linejoin="round"/>
</svg>
