<svg width="24" height="24" viewBox="0 0 24 24" fill="none" xmlns="http://www.w3.org/2000/svg">
<path d="M8.7255 17.4795C9.44759 18.4498 10.3532 19.2688 11.391 19.89V16.896C10.4783 16.9561 9.57981 17.1528 8.7255 17.4795ZM7.5165 18.0465C7.01721 18.327 6.54517 18.6534 6.1065 19.0215H6.0765C7.44336 20.1782 9.11962 20.9084 10.8975 21.1215C9.55941 20.3558 8.40534 19.3062 7.5165 18.0465ZM6.9375 12.6555C7.0305 13.986 7.4085 15.2385 8.0085 16.3515C9.08514 15.9078 10.2284 15.6472 11.391 15.5805V12.6555H6.936H6.9375ZM5.622 12.6555H2.835C2.97738 14.682 3.79008 16.6034 5.145 18.117C5.6655 17.667 6.2295 17.268 6.828 16.9275C6.12433 15.6065 5.71303 14.1495 5.622 12.6555ZM16.071 16.377C16.68 15.2565 17.061 13.9965 17.157 12.657H12.6795V15.5835C13.8765 15.6585 15.018 15.9345 16.071 16.3785V16.377ZM17.2485 16.962C17.8215 17.292 18.363 17.676 18.864 18.108C20.2135 16.596 21.0229 14.6787 21.165 12.657H18.4725C18.3806 14.1636 17.963 15.6324 17.2485 16.962ZM12.6795 19.902C13.7179 19.2844 14.6251 18.4689 15.3495 17.502C14.4948 17.1681 13.5947 16.9648 12.6795 16.899V19.9035V19.902ZM13.221 21.1065C14.9562 20.8758 16.5887 20.1521 17.925 19.0215H17.913C17.4898 18.6664 17.0354 18.3501 16.5555 18.0765C15.6751 19.3148 14.5377 20.3483 13.221 21.1065ZM8.01 7.644C7.39361 8.78674 7.02797 10.0478 6.9375 11.343H11.391V8.4135C10.2291 8.34762 9.08635 8.08805 8.01 7.6455V7.644ZM6.8295 7.068C6.23114 6.72892 5.66745 6.33202 5.1465 5.883C3.79188 7.3962 2.97921 9.31707 2.8365 11.343H5.622C5.71306 9.84786 6.12489 8.38984 6.8295 7.068ZM11.3895 4.11C10.3543 4.73052 9.45077 5.54793 8.73 6.516C9.58304 6.84128 10.48 7.03695 11.391 7.0965V4.11H11.3895ZM10.8975 2.8785C9.12389 3.09022 7.45108 3.8166 6.0855 4.968H6.0975C6.54 5.34 7.0155 5.6685 7.518 5.9505C8.40675 4.69208 9.56026 3.64353 10.8975 2.8785ZM15.345 6.489C14.6211 5.5252 13.7156 4.71242 12.6795 4.0965V7.092C13.5932 7.02572 14.4917 6.82245 15.345 6.489ZM16.5495 5.913C17.0289 5.63928 17.4827 5.323 17.9055 4.968H17.9145C16.5802 3.8437 14.9522 3.12442 13.2225 2.895C14.5354 3.651 15.6701 4.68084 16.5495 5.9145V5.913ZM17.157 11.343C17.0654 10.0357 16.6935 8.76334 16.0665 7.6125C14.9899 8.06502 13.845 8.33375 12.6795 8.4075V11.343H17.157ZM18.4725 11.343H21.165C21.0223 9.31707 20.2096 7.3962 18.855 5.883C18.3551 6.31468 17.8158 6.69837 17.244 7.029C17.943 8.328 18.3765 9.789 18.4725 11.3445V11.343ZM12 22.5C9.21523 22.5 6.54451 21.3938 4.57538 19.4246C2.60625 17.4555 1.5 14.7848 1.5 12C1.5 9.21523 2.60625 6.54451 4.57538 4.57538C6.54451 2.60625 9.21523 1.5 12 1.5C14.7848 1.5 17.4555 2.60625 19.4246 4.57538C21.3938 6.54451 22.5 9.21523 22.5 12C22.5 14.7848 21.3938 17.4555 19.4246 19.4246C17.4555 21.3938 14.7848 22.5 12 22.5Z" fill="black"/>
</svg>
