<svg width="15" height="20" viewBox="0 0 15 20" fill="none" xmlns="http://www.w3.org/2000/svg">
<path d="M7.45809 0C3.34564 0 0 3.34699 0 7.46105C0 13.5907 6.71573 19.5758 7.00173 19.8277C7.1321 19.9425 7.29506 20 7.45809 20C7.62112 20 7.78408 19.9426 7.91452 19.8277C8.20038 19.5759 14.9162 13.5908 14.9162 7.46105C14.9162 3.34699 11.5705 0 7.45809 0ZM7.45809 18.3628C5.97331 16.924 1.38114 12.0983 1.38114 7.46105C1.38114 4.10861 4.10726 1.38114 7.45809 1.38114C10.8089 1.38114 13.535 4.10861 13.535 7.46105C13.535 12.0982 8.94287 16.924 7.45809 18.3628Z" fill="black"/>
<path d="M7.45791 3.98535C5.55401 3.98535 4.00513 5.54454 4.00513 7.46103C4.00513 9.37759 5.55401 10.9367 7.45791 10.9367C9.36181 10.9367 10.9107 9.37759 10.9107 7.46103C10.9107 5.54454 9.36181 3.98535 7.45791 3.98535ZM7.45791 9.55557C6.31556 9.55557 5.3862 8.61598 5.3862 7.46103C5.3862 6.30615 6.31556 5.36649 7.45791 5.36649C8.60026 5.36649 9.52962 6.30608 9.52962 7.46103C9.52962 8.61598 8.60026 9.55557 7.45791 9.55557Z" fill="black"/>
</svg>
