<svg width="36" height="38" viewBox="0 0 36 38" fill="none" xmlns="http://www.w3.org/2000/svg">
<path d="M11.1039 8.53169H22.2116C22.5034 8.53169 22.74 8.28194 22.74 7.97385C22.74 7.66576 22.5034 7.41602 22.2116 7.41602H11.1039C10.812 7.41602 10.5754 7.66576 10.5754 7.97385C10.5754 8.28194 10.812 8.53169 11.1039 8.53169Z" fill="#FF5C00"/>
<path d="M1.16983 13.986H12.2774C12.5693 13.986 12.8059 13.7362 12.8059 13.4281C12.8059 13.12 12.5693 12.8704 12.2774 12.8704H1.16983C0.877957 12.8704 0.641357 13.12 0.641357 13.4281C0.641357 13.7362 0.877957 13.986 1.16983 13.986Z" fill="#FF5C00"/>
<path d="M4.15186 19.7252C4.15186 20.0333 4.38846 20.2832 4.68033 20.2832H15.7879C16.0798 20.2832 16.3164 20.0333 16.3164 19.7252C16.3164 19.4171 16.0798 19.1675 15.7879 19.1675H4.68033C4.38846 19.1675 4.15186 19.4171 4.15186 19.7252Z" fill="#FF5C00"/>
<path d="M10.5087 26.2085H0.528475C0.2366 26.2085 0 26.4582 0 26.7663C0 27.0743 0.2366 27.3241 0.528475 27.3241H10.5087C10.8006 27.3241 11.0372 27.0743 11.0372 26.7663C11.0372 26.4582 10.8006 26.2085 10.5087 26.2085Z" fill="#FF5C00"/>
<path d="M28.4665 12.0291C30.0606 12.0291 31.3529 10.6649 31.3529 8.98217C31.3529 7.29947 30.0605 5.9353 28.4665 5.9353C26.8721 5.9353 25.5796 7.29955 25.5796 8.98217C25.5795 10.6649 26.872 12.0291 28.4665 12.0291Z" fill="#FF5C00"/>
<path d="M33.2144 11.1518C31.5569 13.6025 29.3375 13.8863 26.9492 12.3897C26.7866 12.2879 26.0653 11.8684 25.9056 11.7683C22.0636 9.36071 18.226 10.3048 15.6524 14.1091C14.5588 15.7272 17.0882 17.2608 18.1696 15.6616C19.4993 13.6961 21.1901 13.1274 23.0393 13.7499C22.0924 15.4847 21.2646 17.209 20.0965 19.6588C18.9282 22.1086 16.3485 24.0649 13.8698 22.5348C12.0813 21.4314 10.4684 24.1435 12.2516 25.2435C15.6355 27.3312 19.6033 26.0492 21.6289 23.3356C21.6992 23.3752 21.7734 23.411 21.8549 23.441C23.5096 24.0496 25.6787 25.6697 26.3396 26.2439C27.0004 26.8181 28.1356 29.7432 28.8098 31.2129C29.6276 32.9963 32.2688 31.6974 31.4479 29.9065C30.6838 28.239 29.4011 24.9109 28.4006 24.0689C27.598 23.3936 26.0399 22.1368 24.7184 21.4238C25.6124 19.5958 26.5433 17.7875 27.5233 16.0105C30.6471 17.0208 33.6162 15.8307 35.7309 12.704C36.8254 11.0862 34.2966 9.5525 33.2144 11.1518Z" fill="#FF5C00"/>
</svg>
