<svg width="32" height="28" viewBox="0 0 32 28" fill="none" xmlns="http://www.w3.org/2000/svg">
<path d="M30.8162 18.8137C30.2033 18.768 28.9381 19.4528 28.5925 19.6288C27.36 20.2484 25.6449 21.22 24.5168 21.996C24.4385 22.0482 24.3342 22.1199 24.2559 22.1721C23.7473 22.4982 23.2125 22.7134 22.6191 22.8438C19.3454 23.5416 14.5784 23.6133 14.5784 23.6133L14.298 23.6263C14.0893 23.6394 13.9002 23.4894 13.8741 23.2872C13.8415 23.0655 14.0046 22.8568 14.2393 22.8373L21.3279 22.1656C22.1104 22.0808 22.73 21.3504 22.6452 20.5288C22.5604 19.7071 21.8039 19.1071 21.0214 19.1919L14.7154 19.1137C14.285 19.1071 13.6003 19.0028 13.1894 18.8789C9.12671 17.692 6.83124 18.8006 5.61178 19.3223C5.33789 18.8724 4.82271 18.5789 4.24885 18.618L1.5295 18.8006C0.623053 18.8593 -0.0551522 19.6158 0.00353868 20.4896L0.44046 26.5283C0.505672 27.4021 1.28822 28.0608 2.19466 27.9955L4.91401 27.813C5.48787 27.7738 5.9574 27.4217 6.15956 26.9391L18.1064 27.4543C19.4367 27.5978 20.6823 27.4347 21.8561 26.8217L22.1952 26.6457L31.2271 21.3635C31.6705 21.1026 31.9835 20.6527 32.0031 20.1571C32.0227 19.5506 31.677 18.8789 30.8162 18.8137ZM3.19241 26.5674C2.68376 26.5674 2.2664 26.1696 2.2664 25.674C2.2664 25.1784 2.68376 24.7806 3.19241 24.7806C3.70106 24.7806 4.11842 25.1784 4.11842 25.674C4.11842 26.1696 3.70106 26.5674 3.19241 26.5674ZM23.9755 19.7397C24.9276 19.218 26.7927 18.3181 27.81 17.9203C28.3186 17.7181 28.8208 17.7312 29.2838 18.0442C28.9186 18.1746 28.5795 18.3376 28.2599 18.4941C27.1905 19.0289 25.3058 20.0527 24.3863 20.6983C24.295 20.7635 24.1972 20.8287 24.1059 20.894C24.119 20.7309 24.119 20.5614 24.0994 20.3918C24.0798 20.1766 24.0277 19.9745 23.9625 19.7788C23.9625 19.7658 23.969 19.7527 23.9755 19.7397ZM26.8253 17.3138C26.0884 17.6399 24.6733 18.1355 24.0016 18.5072L23.5451 18.755C23.4995 18.7811 23.4603 18.8072 23.4212 18.8398C23.219 18.5985 22.9778 18.3963 22.7104 18.2333C23.3364 17.9007 24.732 17.4508 25.3645 17.2029C25.8732 17.0008 26.3623 17.0138 26.8253 17.3138ZM7.49641 13.1924C7.49641 12.8142 7.8029 12.5077 8.18113 12.5077H25.2471C25.6254 12.5077 25.9319 12.8142 25.9319 13.1924C25.9319 13.5706 25.6254 13.8771 25.2471 13.8771H8.17461C7.8029 13.8771 7.49641 13.5706 7.49641 13.1924ZM7.49641 15.6705C7.49641 15.2922 7.8029 14.9857 8.18113 14.9857H25.2471C25.6254 14.9857 25.9319 15.2922 25.9319 15.6705C25.9319 16.0487 25.6254 16.3552 25.2471 16.3552H8.17461C7.8029 16.3552 7.49641 16.0487 7.49641 15.6705ZM20.8388 5.71258C20.8388 5.17784 21.2757 4.74092 21.8105 4.74092C22.3452 4.74092 22.7821 5.17784 22.7821 5.71258C22.7821 6.24732 22.3452 6.68424 21.8105 6.68424C21.2692 6.68424 20.8388 6.24732 20.8388 5.71258ZM10.6462 5.71258C10.6462 5.17784 11.0831 4.74092 11.6178 4.74092C12.1526 4.74092 12.5895 5.17784 12.5895 5.71258C12.5895 6.24732 12.1526 6.68424 11.6178 6.68424C11.0766 6.68424 10.6462 6.24732 10.6462 5.71258ZM9.08106 11.4252H24.3407C25.2211 11.4252 25.9384 10.7078 25.9384 9.82746V1.5977C25.9384 0.717333 25.2211 0 24.3407 0H9.08106C8.2007 0 7.48337 0.717333 7.48337 1.5977V9.82746C7.48337 10.7078 8.2007 11.4252 9.08106 11.4252ZM8.8463 3.25408C8.93759 3.27365 9.03541 3.28017 9.13323 3.28017C10.0266 3.28017 10.7505 2.55631 10.7505 1.66291C10.7505 1.55857 10.744 1.46075 10.7244 1.36293H22.606C22.5734 1.48684 22.5539 1.62378 22.5539 1.76073C22.5539 2.65413 23.2777 3.37799 24.1711 3.37799C24.3081 3.37799 24.445 3.35842 24.5689 3.32582V8.28846C24.4385 8.25585 24.3081 8.23629 24.1711 8.23629C23.2777 8.23629 22.5539 8.96014 22.5539 9.85355C22.5539 9.91876 22.5604 9.99049 22.5669 10.0557H10.7244C10.744 9.95789 10.7505 9.86007 10.7505 9.75573C10.7505 8.86232 10.0266 8.13847 9.13323 8.13847C9.03541 8.13847 8.94412 8.14499 8.8463 8.16455V3.25408ZM15.3219 5.71258C15.3219 4.94308 15.9479 4.31052 16.7239 4.31052C17.4934 4.31052 18.126 4.93656 18.126 5.71258C18.126 6.48208 17.4999 7.11464 16.7239 7.11464C15.9479 7.11464 15.3219 6.4886 15.3219 5.71258ZM16.7239 9.20795C18.6542 9.20795 20.2128 7.64286 20.2128 5.7191C20.2128 3.79534 18.6477 2.23025 16.7239 2.23025C14.7936 2.23025 13.2351 3.79534 13.2351 5.7191C13.2351 7.64286 14.7936 9.20795 16.7239 9.20795ZM16.7239 3.37147C18.0151 3.37147 19.065 4.42138 19.065 5.71258C19.065 7.00378 18.0151 8.05369 16.7239 8.05369C15.4327 8.05369 14.3828 7.00378 14.3828 5.71258C14.3828 4.42138 15.4327 3.37147 16.7239 3.37147Z" fill="#FF5C00"/>
</svg>
