<svg width="15" height="10" viewBox="0 0 15 10" fill="none" xmlns="http://www.w3.org/2000/svg">
<path d="M0.3662 7.81221C0.0597352 7.248 -0.131285 6.29427 0.173877 5.53372C0.348761 5.09818 0.663317 4.79687 1.08366 4.66237L1.10655 4.655L1.13036 4.65162C1.13036 4.65162 2.23435 4.4775 4.15667 3.94301C3.40263 3.89884 2.65655 3.61249 2.56173 2.78038C2.49802 2.23898 2.75411 1.58173 3.22505 1.30071C4.19852 0.718531 5.27441 1.77689 5.75277 2.53687C5.76677 2.55911 5.78924 2.59455 5.81653 2.63899C5.81294 2.58699 5.8107 2.54507 5.80919 2.51884C5.75738 1.62237 6.01884 0.13599 7.1494 0.0447556C7.69603 0.000136437 8.28611 0.386549 8.54861 0.864305C8.9556 1.59871 8.51112 2.26654 7.92062 2.74053C10.0331 1.98435 11.5139 1.32621 11.5139 1.32621L11.5221 1.32258C12.4603 0.93095 13.3815 1.36263 13.9272 2.4485C14.1905 2.97238 14.3288 3.58866 14.3065 4.13936C14.2808 4.77837 14.0434 5.26285 13.6384 5.50355C13.521 5.57321 13.407 5.63734 13.2884 5.6635C11.804 5.99149 11.4304 3.51227 11.748 2.72937C11.817 2.55923 11.9515 2.38701 12.1301 2.37598C12.5146 2.35255 12.8385 2.75575 12.98 3.19777C13.3443 4.336 12.859 4.90582 12.859 4.90582C13.4125 4.55719 13.6112 3.83807 13.3653 3.07377C13.1748 2.48244 12.7047 1.90273 12.0835 1.94059C11.8993 1.95172 11.5632 2.05495 11.3856 2.62035C11.0851 3.57714 11.4121 5.29396 12.2213 5.94471L11.804 5.99152C10.3579 6.15406 8.90873 6.513 7.58891 6.93083C7.58459 6.92163 7.58053 6.91235 7.57533 6.90338C6.84468 5.64012 6.55624 4.28357 6.45338 3.63759L5.77018 3.8534C5.8916 4.56386 6.19635 5.89187 6.9036 7.15647C5.19955 7.73924 3.77058 8.38453 2.93742 8.76085C2.58548 8.91984 2.37302 9.01574 2.2621 9.05131C1.57111 9.27241 0.933157 8.85556 0.3662 7.81221ZM7.11392 2.36925C7.27724 2.17921 7.6674 1.83392 7.62911 1.47201C7.60483 1.24278 7.03779 0.823297 6.58397 2.23464C6.47274 2.58053 6.35452 2.92876 6.28378 3.28544C6.55372 2.97395 6.84526 2.68187 7.11392 2.36925ZM4.60362 3.17266C5.00389 3.27122 5.41085 3.33975 5.81149 3.43662C5.54678 3.18732 5.24834 2.97245 4.95696 2.75539C3.76803 1.86977 3.54988 2.54055 3.66324 2.7413C3.84217 3.05817 4.36028 3.11274 4.60362 3.17266Z" fill="#FF5C00"/>
</svg>
