<svg width="30" height="30" viewBox="0 0 30 30" fill="none" xmlns="http://www.w3.org/2000/svg">
<path d="M3.24487 1.46484L1.58081 9.78516H10.094L15 4.87916L19.906 9.78516H28.4191L26.7551 1.46484H3.24487ZM15 6.37072L10.531 10.8398H2.40235V28.5352H11.6602V23.4375C11.6602 22.3682 12.08 21.4994 12.7161 20.934C13.3522 20.3686 14.1797 20.0977 15 20.0977C15.8203 20.0977 16.6478 20.3686 17.2839 20.934C17.92 21.4994 18.3399 22.3682 18.3399 23.4375V28.5352H27.5977V10.8398H19.469L15 6.37072ZM15 8.62916L18.3399 11.969V17.4023H11.6602V11.969L15 8.62916ZM15 10.1207L12.7149 12.4059V16.3477H17.2852V12.406L15 10.1207ZM4.16017 11.6602H9.90235V17.4023H4.16017V11.6602ZM20.0977 11.6602H25.8399V17.4023H20.0977V11.6602ZM5.21485 12.7148V14.4727H8.84767V12.7148H5.21485ZM21.1524 12.7148V14.4727H24.7852V12.7148H21.1524ZM5.21485 15.5273V16.3477H8.84767V15.5273H5.21485ZM21.1524 15.5273V16.3477H24.7852V15.5273H21.1524ZM4.16017 21.0352H9.90235V26.7773H4.16017V21.0352ZM20.0977 21.0352H25.8399V26.7773H20.0977V21.0352ZM15 21.1523C14.4141 21.1523 13.8353 21.3502 13.4167 21.7223C12.9981 22.0944 12.7149 22.6318 12.7149 23.4375V28.5352H17.2852V23.4375C17.2852 22.6318 17.0019 22.0944 16.5833 21.7223C16.1647 21.3502 15.5859 21.1523 15 21.1523ZM5.21485 22.0898V25.7227H8.84767V22.0898H5.21485ZM21.1524 22.0898V25.7227H24.7852V22.0898H21.1524Z" fill="#FF5C00"/>
</svg>
