<svg width="33" height="33" viewBox="0 0 33 33" fill="none" xmlns="http://www.w3.org/2000/svg">
<g clip-path="url(#clip0_354_149)">
<path d="M10.0925 11.4428C10.1997 11.55 10.3405 11.6039 10.4813 11.6039C10.6221 11.6039 10.7629 11.55 10.8702 11.4428C11.0852 11.2277 11.0852 10.8801 10.8702 10.6651C10.3119 10.1063 10.3119 9.19768 10.8702 8.63888C11.3487 8.16038 11.6127 7.52458 11.6127 6.84808C11.6127 6.17158 11.3492 5.53578 10.8702 5.05728C10.6551 4.84223 10.3075 4.84223 10.0925 5.05728C9.87744 5.27233 9.87744 5.61993 10.0925 5.83498C10.3631 6.10558 10.5127 6.46528 10.5127 6.84808C10.5127 7.23088 10.3636 7.59058 10.0925 7.86118C9.10524 8.84843 9.10524 10.4555 10.0925 11.4428Z" fill="#FF5C00"/>
<path d="M22.1926 11.4428C22.2998 11.55 22.4406 11.6039 22.5814 11.6039C22.7222 11.6039 22.863 11.55 22.9703 11.4428C23.1853 11.2277 23.1853 10.8801 22.9703 10.6651C22.412 10.1063 22.412 9.19768 22.9703 8.63888C23.4488 8.16038 23.7128 7.52458 23.7128 6.84808C23.7128 6.17158 23.4493 5.53578 22.9703 5.05728C22.7552 4.84223 22.4076 4.84223 22.1926 5.05728C21.9775 5.27233 21.9775 5.61993 22.1926 5.83498C22.4632 6.10558 22.6128 6.46528 22.6128 6.84808C22.6128 7.23088 22.4637 7.59058 22.1926 7.86118C21.2053 8.84843 21.2053 10.4555 22.1926 11.4428Z" fill="#FF5C00"/>
<path d="M16.1425 8.14274C16.2498 8.24999 16.3906 8.30388 16.5314 8.30388C16.6722 8.30388 16.813 8.24999 16.9202 8.14274C17.1353 7.92769 17.1353 7.58008 16.9202 7.36504C16.362 6.80623 16.362 5.89763 16.9202 5.33883C17.3987 4.86033 17.6627 4.22453 17.6627 3.54804C17.6627 2.87153 17.3993 2.23573 16.9202 1.75723C16.7052 1.54218 16.3576 1.54218 16.1425 1.75723C15.9275 1.97228 15.9275 2.31988 16.1425 2.53493C16.4131 2.80553 16.5627 3.16524 16.5627 3.54804C16.5627 3.93084 16.4137 4.29053 16.1425 4.56113C15.1553 5.54838 15.1553 7.15549 16.1425 8.14274Z" fill="#FF5C00"/>
<path d="M30.5932 24.0465C29.5966 18.194 25.0344 13.5437 19.2264 12.4173C19.2357 12.3293 19.25 12.2408 19.25 12.1533C19.25 10.637 18.0163 9.40332 16.5 9.40332C14.9837 9.40332 13.75 10.637 13.75 12.1533C13.75 12.2408 13.7638 12.3293 13.7737 12.4173C7.96565 13.5437 3.4034 18.194 2.4068 24.0465C1.2573 24.6972 0 25.6547 0 26.7289C0 29.5256 8.5316 31.4039 16.5 31.4039C24.4684 31.4039 33 29.5256 33 26.7289C33 25.6547 31.7427 24.6972 30.5932 24.0465ZM14.8533 12.2485C14.8511 12.2166 14.85 12.1847 14.85 12.1539C14.85 11.2442 15.5903 10.5039 16.5 10.5039C17.4097 10.5039 18.15 11.2442 18.15 12.1539C18.15 12.1852 18.1489 12.2166 18.1467 12.2485C18.1208 12.2457 18.095 12.2446 18.0697 12.2419C17.8805 12.221 17.6902 12.2061 17.4988 12.1929C17.4284 12.188 17.3586 12.1808 17.2882 12.177C17.0275 12.1627 16.7651 12.1544 16.5005 12.1544C16.236 12.1544 15.9737 12.1627 15.713 12.177C15.6426 12.1808 15.5727 12.188 15.5023 12.1929C15.3109 12.2061 15.1206 12.2215 14.9314 12.2419C14.905 12.2446 14.8792 12.2452 14.8533 12.2485ZM13.8193 14.6492C14.6894 14.4534 15.5887 14.3539 16.4923 14.3539C16.4945 14.3539 16.4972 14.3539 16.5 14.3539C16.8036 14.3539 17.05 14.6003 17.05 14.9044C17.05 15.208 16.8036 15.4539 16.5 15.4539C16.4978 15.4539 16.4951 15.4539 16.4928 15.4539C15.67 15.4539 14.8528 15.5441 14.0613 15.7223C14.0206 15.7316 13.9799 15.7355 13.9397 15.7355C13.6884 15.7355 13.4613 15.5622 13.4035 15.3065C13.337 15.01 13.5229 14.7158 13.8193 14.6492ZM10.5325 15.9483C10.7943 15.7938 11.1309 15.8801 11.286 16.1414C11.4411 16.4032 11.3548 16.7403 11.093 16.8949C8.5008 18.4305 6.6121 21.2184 6.04065 24.3529C5.99225 24.618 5.7607 24.8039 5.5 24.8039C5.467 24.8039 5.434 24.8011 5.401 24.7945C5.10235 24.7401 4.9038 24.4541 4.95825 24.1549C5.5869 20.7119 7.67085 17.644 10.5325 15.9483ZM16.5 30.3039C7.0972 30.3039 1.1 27.9559 1.1 26.7289C1.1 26.5182 1.3607 26.054 2.2352 25.4485C2.233 25.4798 2.2341 25.5106 2.2319 25.542C2.2132 25.8434 2.2 26.147 2.2 26.4539V26.8873L2.62185 26.989C7.16155 28.0786 11.831 28.6308 16.5 28.6308C21.169 28.6308 25.8385 28.0786 30.3782 26.989L30.8 26.8873V26.4539C30.8 26.147 30.7868 25.8439 30.7681 25.542C30.7659 25.5106 30.767 25.4798 30.7648 25.4485C31.6393 26.054 31.9 26.5182 31.9 26.7289C31.9 27.9559 25.9028 30.3039 16.5 30.3039Z" fill="#FF5C00"/>
</g>
<defs>
<clipPath id="clip0_354_149">
<rect width="33" height="33" fill="white"/>
</clipPath>
</defs>
</svg>
