<svg width="47" height="47" viewBox="0 0 47 47" fill="none" xmlns="http://www.w3.org/2000/svg">
<path d="M46.2469 7.92499C46.0875 7.28749 45.45 6.96874 44.8125 6.96874H40.0312V2.18749C40.0312 1.54999 39.7125 0.912488 39.075 0.753113C38.4375 0.434363 37.8 0.593738 37.3219 1.07186L30.9469 7.44686C30.6281 7.76561 30.4688 8.08436 30.4688 8.56249V14.3L21.3844 23.3844C20.7469 24.0219 20.7469 24.9781 21.3844 25.6156C21.7031 25.9344 22.1812 26.0937 22.5 26.0937C22.8187 26.0937 23.2969 25.9344 23.6156 25.6156L32.7 16.5312H38.4375C38.9156 16.5312 39.2344 16.3719 39.5531 16.0531L45.9281 9.67811C46.4063 9.19999 46.5656 8.56249 46.2469 7.92499Z" fill="#FF5C00"/>
<path d="M25.8469 27.8469C25.05 28.8031 23.775 29.2812 22.5 29.2812C21.225 29.2812 19.95 28.8031 19.1531 27.8469C17.2406 25.9344 17.2406 22.9062 19.1531 21.1531L23.6156 16.6906C23.2969 16.5313 22.8188 16.5312 22.5 16.5312C18.0375 16.5312 14.5312 20.0375 14.5312 24.5C14.5312 28.9625 18.0375 32.4688 22.5 32.4688C26.9625 32.4688 30.4688 28.9625 30.4688 24.5C30.4688 24.1813 30.4687 23.7031 30.3094 23.3844L25.8469 27.8469Z" fill="#FF5C00"/>
<path d="M41.7844 18.2844C40.9875 19.2406 39.7125 19.7188 38.4375 19.7188H33.975L32.8594 20.8344C33.3375 21.95 33.4969 23.225 33.4969 24.5C33.4969 30.7156 28.5562 35.6562 22.3406 35.6562C16.125 35.6562 11.1844 30.7156 11.1844 24.5C11.1844 18.2844 16.125 13.3438 22.3406 13.3438C23.6156 13.3438 24.8906 13.6625 26.0063 13.9812L27.2812 13.025V8.5625C27.2812 7.2875 27.7594 6.0125 28.7156 5.21563L30.3094 3.62188C27.7594 2.66563 25.2094 2.1875 22.5 2.1875C10.2281 2.1875 0.1875 12.2281 0.1875 24.5C0.1875 36.7719 10.2281 46.8125 22.5 46.8125C34.7719 46.8125 44.8125 36.7719 44.8125 24.5C44.8125 21.7906 44.3344 19.2406 43.3781 16.6906L41.7844 18.2844Z" fill="#FF5C00"/>
</svg>
