<svg width="10" height="10" viewBox="0 0 10 10" fill="none" xmlns="http://www.w3.org/2000/svg">
<g clip-path="url(#clip0_428_26)">
<path d="M3.66675 6.16666C3.66675 6.25865 3.74142 6.33332 3.83341 6.33332H4.50009C4.59208 6.33332 4.66675 6.25865 4.66675 6.16666V5.16666C4.66675 5.07467 4.59208 5 4.50009 5H3.83343C3.74144 5 3.66677 5.07467 3.66677 5.16666L3.66675 6.16666ZM4.00009 5.33334H4.33343V6H4.00009V5.33334Z" fill="#FF5C00"/>
<path d="M3.83341 4.33332H4.50007C4.59206 4.33332 4.66673 4.25865 4.66673 4.16666V3.16666C4.66673 3.07467 4.59206 3 4.50007 3H3.83341C3.74142 3 3.66675 3.07467 3.66675 3.16666V4.16666C3.66673 4.25865 3.7414 4.33332 3.83341 4.33332ZM4.00007 3.33332H4.33341V3.99998H4.00007V3.33332Z" fill="#FF5C00"/>
<path d="M2.58577 3.14283L4.99993 1.69434L7.41409 3.14283C7.44092 3.159 7.47059 3.16666 7.49975 3.16666C7.55641 3.16666 7.61159 3.13783 7.64276 3.08582C7.69026 3.00682 7.6646 2.90449 7.58577 2.85715L5.16659 1.40566V0.33334H5.99993V0.66668H5.49993C5.40794 0.66668 5.33327 0.741348 5.33327 0.83334C5.33327 0.925332 5.40794 1 5.49993 1H6.16659C6.25858 1 6.33325 0.925332 6.33325 0.83334V0.16666C6.33325 0.074668 6.25858 0 6.16659 0H4.99993C4.90793 0 4.83327 0.074668 4.83327 0.16666V1.40566L2.41411 2.85717C2.33528 2.90449 2.30961 3.00684 2.35711 3.08584C2.40426 3.16467 2.50692 3.19033 2.58577 3.14283Z" fill="#FF5C00"/>
<path d="M1.83334 6.33332C1.92533 6.33332 2 6.25865 2 6.16666V5.16666C2 5.07467 1.92533 5 1.83334 5H1.16666C1.07467 5 1 5.07467 1 5.16666V5.49998C1 5.59197 1.07467 5.66664 1.16666 5.66664C1.25865 5.66664 1.33332 5.59197 1.33332 5.49998V5.33332H1.66666V6.16666C1.66666 6.25865 1.74133 6.33332 1.83334 6.33332Z" fill="#FF5C00"/>
<path d="M3.00007 8.5V3.66666C3.00007 3.57467 2.9254 3.5 2.83341 3.5C2.74142 3.5 2.66675 3.57467 2.66675 3.66666V8.5C2.66675 8.59199 2.74142 8.66666 2.83341 8.66666C2.9254 8.66666 3.00007 8.59199 3.00007 8.5Z" fill="#FF5C00"/>
<path d="M2.16666 9.33336H7.83332C7.92531 9.33336 7.99998 9.25869 7.99998 9.1667C7.99998 9.07471 7.92531 9.00004 7.83332 9.00004H6.33332V7.33338H6.49998C6.59197 7.33338 6.66664 7.25871 6.66664 7.16672C6.66664 7.07473 6.59197 7.00006 6.49998 7.00006H3.5C3.40801 7.00006 3.33334 7.07473 3.33334 7.16672C3.33334 7.25871 3.40801 7.33338 3.5 7.33338H3.66666V9.00002H2.16666C2.07467 9.00002 2 9.07469 2 9.16668C2 9.25867 2.07467 9.33336 2.16666 9.33336ZM5.16666 8.33336C5.25865 8.33336 5.33332 8.25869 5.33332 8.1667C5.33332 8.07471 5.25865 8.00004 5.16666 8.00004V7.33338H6V9.00002H5.16666V8.33336ZM4 7.33336H4.83334V8.00002C4.74135 8.00002 4.66668 8.07469 4.66668 8.16668C4.66668 8.25867 4.74135 8.33334 4.83334 8.33334V9.00002H4V7.33336Z" fill="#FF5C00"/>
<path d="M8.83332 7.16669H8.16666C8.07467 7.16669 8 7.24135 8 7.33335V8.33335C8 8.42534 8.07467 8.50001 8.16666 8.50001H8.83332C8.92531 8.50001 8.99998 8.42534 8.99998 8.33335V7.33335C8.99998 7.24135 8.92531 7.16669 8.83332 7.16669ZM8.66664 8.16669H8.3333V7.50003H8.66664V8.16669Z" fill="#FF5C00"/>
<path d="M8.83332 5.16669H8.16666C8.07467 5.16669 8 5.24136 8 5.33335V6.33335C8 6.42534 8.07467 6.50001 8.16666 6.50001H8.83332C8.92531 6.50001 8.99998 6.42534 8.99998 6.33335V5.33335C8.99998 5.24136 8.92531 5.16669 8.83332 5.16669ZM8.66664 6.16669H8.3333V5.50003H8.66664V6.16669Z" fill="#FF5C00"/>
<path d="M8.49991 9.66669H1.49991C1.40792 9.66669 1.33325 9.74135 1.33325 9.83335C1.33325 9.92534 1.40792 10 1.49991 10H8.49991C8.59191 10 8.66657 9.92536 8.66657 9.83337C8.66657 9.74137 8.59191 9.66669 8.49991 9.66669Z" fill="#FF5C00"/>
<path d="M9.83341 3.66669C9.74142 3.66669 9.66675 3.74136 9.66675 3.83335V4.00001H7.83341C7.74142 4.00001 7.66675 4.07468 7.66675 4.16667C7.66675 4.25866 7.74142 4.33333 7.83341 4.33333H9.66675V9.83333C9.66675 9.92532 9.74142 9.99999 9.83341 9.99999C9.9254 9.99999 10.0001 9.92532 10.0001 9.83333V3.83333C10.0001 3.74135 9.9254 3.66669 9.83341 3.66669Z" fill="#FF5C00"/>
<path d="M5.33325 6.16666C5.33325 6.25865 5.40792 6.33332 5.49991 6.33332H6.16657C6.25856 6.33332 6.33323 6.25865 6.33323 6.16666V5.16666C6.33323 5.07467 6.25856 5 6.16657 5H5.49991C5.40792 5 5.33325 5.07467 5.33325 5.16666V6.16666ZM5.66657 5.33334H5.99991V6H5.66657V5.33334Z" fill="#FF5C00"/>
<path d="M1.66666 8.16666C1.66666 8.145 1.65717 6 0.83332 6C0.00949219 6 0 8.145 0 8.16666C0 8.56916 0.286836 8.90566 0.66666 8.98316V9.83334C0.66666 9.92533 0.741328 10 0.83332 10C0.925313 10 0.999981 9.92533 0.999981 9.83334V8.98316C1.37982 8.90566 1.66666 8.56916 1.66666 8.16666ZM0.83334 8.66666C0.557676 8.66666 0.33334 8.44232 0.33334 8.16666C0.33334 7.33633 0.556348 6.33332 0.83334 6.33332C1.11033 6.33332 1.33334 7.33633 1.33334 8.16666C1.33334 8.44232 1.109 8.66666 0.83334 8.66666Z" fill="#FF5C00"/>
<path d="M7.33332 8.49997V3.49997C7.33332 3.40798 7.25865 3.33331 7.16666 3.33331C7.07467 3.33331 7 3.40798 7 3.49997V8.49997C7 8.59197 7.07467 8.66663 7.16666 8.66663C7.25865 8.66663 7.33332 8.59197 7.33332 8.49997Z" fill="#FF5C00"/>
<path d="M5.49991 4.33332H6.16657C6.25856 4.33332 6.33323 4.25865 6.33323 4.16666V3.16666C6.33323 3.07467 6.25856 3 6.16657 3H5.49991C5.40792 3 5.33325 3.07467 5.33325 3.16666V4.16666C5.33325 4.25865 5.40792 4.33332 5.49991 4.33332ZM5.66657 3.33332H5.99991V3.99998H5.66657V3.33332Z" fill="#FF5C00"/>
<path d="M0.16666 5.83333C0.258652 5.83333 0.33332 5.75866 0.33332 5.66667V4.33333H2.16666C2.25865 4.33333 2.33332 4.25866 2.33332 4.16667C2.33332 4.07468 2.25865 4.00001 2.16666 4.00001H0.33334V3.83335C0.33334 3.74136 0.258672 3.66669 0.16668 3.66669C0.0746875 3.66669 0 3.74132 0 3.83333V5.66667C0 5.75866 0.074668 5.83333 0.16666 5.83333Z" fill="#FF5C00"/>
</g>
<defs>
<clipPath id="clip0_428_26">
<rect width="10" height="10" fill="white"/>
</clipPath>
</defs>
</svg>
