<svg width="12" height="10" viewBox="0 0 12 10" fill="none" xmlns="http://www.w3.org/2000/svg">
<g clip-path="url(#clip0_428_11)">
<path d="M1.23438 7.62245L1.26465 2.20468H0.65918V9.09823C1.49121 8.88121 2.32617 8.7431 3.16699 8.73718C3.94336 8.73225 4.71973 8.84175 5.49805 9.1081C5.01465 8.71252 4.47559 8.4215 3.90039 8.2321C3.17578 7.99337 2.39258 7.91445 1.58984 7.98351C1.4082 7.9983 1.25 7.86217 1.23438 7.67967C1.23242 7.65994 1.23242 7.6412 1.23438 7.62245ZM10.1191 1.92155C10.1172 1.90577 10.1152 1.889 10.1152 1.87124C10.1152 1.85447 10.1162 1.8377 10.1191 1.82093V0.723962C9.35742 0.650962 8.57227 0.7358 7.88672 0.998205C7.24609 1.24384 6.69336 1.64731 6.33398 2.22539V8.47379C6.89258 8.09695 7.46387 7.7872 8.05078 7.57609C8.71973 7.33539 9.40723 7.22095 10.1191 7.27817V1.92155ZM10.7783 1.5388H11.6709C11.8525 1.5388 12 1.68776 12 1.87124V9.53229C12 9.71577 11.8525 9.86473 11.6709 9.86473C11.6338 9.86473 11.5977 9.85881 11.5645 9.84698C10.6465 9.58161 9.73438 9.40503 8.83105 9.39911C7.9502 9.39319 7.07031 9.55005 6.18652 9.94365C6.13184 9.98015 6.06641 9.99988 5.99902 9.9989C5.93262 9.99988 5.86719 9.98015 5.81152 9.94365C4.92871 9.54906 4.04785 9.39319 3.16699 9.39911C2.26367 9.40503 1.35254 9.58161 0.433594 9.84698C0.400391 9.85881 0.364258 9.86473 0.327148 9.86473C0.147461 9.86572 0 9.71676 0 9.53327V1.87124C0 1.68776 0.147461 1.5388 0.329102 1.5388H1.26758L1.27344 0.428016C1.27441 0.268206 1.38574 0.136017 1.53516 0.104449C2.40137 -0.0780505 3.4541 -0.0326722 4.37695 0.324435C5.01465 0.571057 5.59375 0.964664 6.0166 1.53288C6.44336 1.00314 7.01367 0.622354 7.65527 0.376719C8.53223 0.0403277 9.54395 -0.040564 10.4961 0.100503C10.6602 0.124179 10.7773 0.267219 10.7773 0.429003V1.5388H10.7783ZM6.65332 9.05779C7.38086 8.82695 8.10742 8.73225 8.83398 8.73619C9.6748 8.74113 10.5098 8.88022 11.3418 9.09725V2.20468H10.7783V7.65205C10.7783 7.83553 10.6309 7.98449 10.4492 7.98449C10.4229 7.98449 10.3975 7.98153 10.373 7.97561C9.65234 7.86118 8.9541 7.95588 8.27246 8.20152C7.72363 8.3998 7.18457 8.69575 6.65332 9.05779ZM5.67578 8.40967V2.21553C5.33105 1.60095 4.77344 1.18958 4.14355 0.945921C3.42969 0.669705 2.62793 0.607557 1.92871 0.708178L1.8916 7.29889C2.6543 7.27126 3.40039 7.36893 4.10254 7.60075C4.66113 7.78424 5.19043 8.05355 5.67578 8.40967Z" fill="#FF5C00"/>
</g>
<defs>
<clipPath id="clip0_428_11">
<rect width="12" height="10" fill="white"/>
</clipPath>
</defs>
</svg>
