<svg width="28" height="28" viewBox="0 0 28 28" fill="none" xmlns="http://www.w3.org/2000/svg">
<g clip-path="url(#clip0_354_171)">
<path d="M8.56331 9.70915C8.65431 9.80015 8.77377 9.84588 8.89324 9.84588C9.01271 9.84588 9.13218 9.80015 9.22318 9.70915C9.40564 9.52668 9.40564 9.23175 9.22318 9.04928C8.74951 8.57515 8.74951 7.80421 9.22318 7.33008C9.62918 6.92408 9.85318 6.38461 9.85318 5.81061C9.85318 5.23661 9.62964 4.69715 9.22318 4.29115C9.04071 4.10868 8.74578 4.10868 8.56331 4.29115C8.38084 4.47361 8.38084 4.76855 8.56331 4.95101C8.79291 5.18061 8.91984 5.48581 8.91984 5.81061C8.91984 6.13541 8.79338 6.44061 8.56331 6.67021C7.72564 7.50788 7.72564 8.87148 8.56331 9.70915Z" fill="#FF5C00"/>
<path d="M18.8299 9.70915C18.9209 9.80015 19.0404 9.84588 19.1598 9.84588C19.2793 9.84588 19.3988 9.80015 19.4898 9.70915C19.6722 9.52668 19.6722 9.23175 19.4898 9.04928C19.0161 8.57515 19.0161 7.80421 19.4898 7.33008C19.8958 6.92408 20.1198 6.38461 20.1198 5.81061C20.1198 5.23661 19.8962 4.69715 19.4898 4.29115C19.3073 4.10868 19.0124 4.10868 18.8299 4.29115C18.6474 4.47361 18.6474 4.76855 18.8299 4.95101C19.0595 5.18061 19.1864 5.48581 19.1864 5.81061C19.1864 6.13541 19.06 6.44061 18.8299 6.67021C17.9922 7.50788 17.9922 8.87148 18.8299 9.70915Z" fill="#FF5C00"/>
<path d="M13.6966 6.9091C13.7876 7.0001 13.9071 7.04583 14.0265 7.04583C14.146 7.04583 14.2655 7.0001 14.3565 6.9091C14.5389 6.72663 14.5389 6.4317 14.3565 6.24923C13.8828 5.7751 13.8828 5.00416 14.3565 4.53003C14.7625 4.12403 14.9865 3.58457 14.9865 3.01057C14.9865 2.43656 14.7629 1.8971 14.3565 1.4911C14.174 1.30863 13.8791 1.30863 13.6966 1.4911C13.5141 1.67356 13.5141 1.9685 13.6966 2.15096C13.9262 2.38056 14.0531 2.68577 14.0531 3.01057C14.0531 3.33537 13.9267 3.64056 13.6966 3.87016C12.8589 4.70783 12.8589 6.07143 13.6966 6.9091Z" fill="#FF5C00"/>
<path d="M25.9579 20.4033C25.1123 15.4375 21.2413 11.4918 16.3133 10.5361C16.3212 10.4614 16.3333 10.3863 16.3333 10.3121C16.3333 9.02549 15.2866 7.97876 14 7.97876C12.7134 7.97876 11.6667 9.02549 11.6667 10.3121C11.6667 10.3863 11.6783 10.4614 11.6867 10.5361C6.75873 11.4918 2.88773 15.4375 2.04213 20.4033C1.0668 20.9554 0 21.7678 0 22.6792C0 25.0522 7.23893 26.6459 14 26.6459C20.7611 26.6459 28 25.0522 28 22.6792C28 21.7678 26.9332 20.9554 25.9579 20.4033ZM12.6028 10.3928C12.6009 10.3658 12.6 10.3387 12.6 10.3126C12.6 9.54069 13.2281 8.91256 14 8.91256C14.7719 8.91256 15.4 9.54069 15.4 10.3126C15.4 10.3392 15.3991 10.3658 15.3972 10.3928C15.3753 10.3905 15.3533 10.3896 15.3319 10.3872C15.1713 10.3695 15.0099 10.3569 14.8475 10.3457C14.7877 10.3415 14.7285 10.3354 14.6687 10.3322C14.4475 10.32 14.2249 10.313 14.0005 10.313C13.776 10.313 13.5534 10.32 13.3322 10.3322C13.2725 10.3354 13.2132 10.3415 13.1535 10.3457C12.9911 10.3569 12.8296 10.37 12.6691 10.3872C12.6467 10.3896 12.6247 10.39 12.6028 10.3928ZM11.7255 12.4298C12.4637 12.2637 13.2267 12.1792 13.9935 12.1792C13.9953 12.1792 13.9977 12.1792 14 12.1792C14.2576 12.1792 14.4667 12.3883 14.4667 12.6464C14.4667 12.904 14.2576 13.1126 14 13.1126C13.9981 13.1126 13.9958 13.1126 13.9939 13.1126C13.2958 13.1126 12.6023 13.1891 11.9308 13.3403C11.8963 13.3482 11.8617 13.3515 11.8277 13.3515C11.6144 13.3515 11.4217 13.2045 11.3727 12.9875C11.3162 12.736 11.4739 12.4863 11.7255 12.4298ZM8.93667 13.5321C9.1588 13.401 9.4444 13.4742 9.576 13.6959C9.7076 13.918 9.63433 14.2041 9.4122 14.3352C7.2128 15.6382 5.61027 18.0037 5.1254 20.6632C5.08433 20.8882 4.88787 21.0459 4.66667 21.0459C4.63867 21.0459 4.61067 21.0436 4.58267 21.038C4.32927 20.9918 4.1608 20.7491 4.207 20.4952C4.7404 17.5739 6.5086 14.9708 8.93667 13.5321ZM14 25.7126C6.02187 25.7126 0.933333 23.7204 0.933333 22.6792C0.933333 22.5005 1.15453 22.1066 1.89653 21.5928C1.89467 21.6194 1.8956 21.6456 1.89373 21.6722C1.87787 21.9279 1.86667 22.1855 1.86667 22.4459V22.8136L2.2246 22.9C6.07647 23.8244 10.0385 24.293 14 24.293C17.9615 24.293 21.9235 23.8244 25.7754 22.9L26.1333 22.8136V22.4459C26.1333 22.1855 26.1221 21.9284 26.1063 21.6722C26.1044 21.6456 26.1053 21.6194 26.1035 21.5928C26.8455 22.1066 27.0667 22.5005 27.0667 22.6792C27.0667 23.7204 21.9781 25.7126 14 25.7126Z" fill="#FF5C00"/>
</g>
<defs>
<clipPath id="clip0_354_171">
<rect width="28" height="28" fill="white"/>
</clipPath>
</defs>
</svg>
