<svg width="10" height="10" viewBox="0 0 10 10" fill="none" xmlns="http://www.w3.org/2000/svg">
<path d="M7.19476 6.28281L5.205 4.89142V2.50002C5.205 2.38732 5.11279 2.2951 5.00008 2.2951C4.88738 2.2951 4.79517 2.38732 4.79517 2.50002V5.00002C4.79517 5.06765 4.82795 5.12912 4.88328 5.16806L6.96115 6.62093C6.99599 6.64552 7.03697 6.65781 7.07795 6.65781C7.14148 6.65781 7.205 6.62707 7.24599 6.56765C7.30951 6.47543 7.28697 6.34838 7.19476 6.28281Z" fill="#FF5C00"/>
<path d="M8.53279 1.46721C7.58607 0.520493 6.33197 0 5 0C3.66803 0 2.41393 0.520493 1.46721 1.46721C0.520492 2.41394 0 3.66803 0 5C0 6.33197 0.520492 7.58607 1.46721 8.53279C2.41393 9.47951 3.66803 10 5 10C6.33197 10 7.58607 9.47951 8.53279 8.53279C9.47951 7.58607 10 6.33197 10 5C10 3.66803 9.47951 2.41394 8.53279 1.46721ZM5.20492 9.58607V8.75C5.20492 8.63729 5.1127 8.54508 5 8.54508C4.8873 8.54508 4.79508 8.63729 4.79508 8.75V9.58607C2.42623 9.48156 0.518443 7.57377 0.413934 5.20492H1.25C1.3627 5.20492 1.45492 5.1127 1.45492 5C1.45492 4.8873 1.3627 4.79508 1.25 4.79508H0.413934C0.518443 2.42623 2.42623 0.518443 4.79508 0.413935V1.25C4.79508 1.3627 4.8873 1.45492 5 1.45492C5.1127 1.45492 5.20492 1.3627 5.20492 1.25V0.413935C7.57377 0.518443 9.48156 2.42623 9.58607 4.79508H8.75C8.63729 4.79508 8.54508 4.8873 8.54508 5C8.54508 5.1127 8.63729 5.20492 8.75 5.20492H9.58607C9.48156 7.57377 7.57377 9.48156 5.20492 9.58607Z" fill="#FF5C00"/>
</svg>
