<svg width="35" height="35" viewBox="0 0 35 35" fill="none" xmlns="http://www.w3.org/2000/svg">
<g clip-path="url(#clip0_356_232)">
<path d="M4.48466 20.6631H0.794079C0.355445 20.6631 0 21.0185 0 21.4572V22.9924V29.7307V31.2659C0 31.7046 0.355445 32.06 0.794079 32.06H4.48466C4.92329 32.06 5.27874 31.7046 5.27874 31.2659V29.7307V22.9924V21.4572C5.27874 21.0185 4.92329 20.6631 4.48466 20.6631Z" fill="#FF5C00"/>
<path d="M11.9414 16.2539H8.25087C7.81223 16.2539 7.45679 16.6094 7.45679 17.048V22.9922V25.3215V31.2658C7.45679 31.7044 7.81223 32.0599 8.25087 32.0599H11.9414C12.3801 32.0599 12.7355 31.7044 12.7355 31.2658V25.3215V22.9922V17.048C12.7355 16.6094 12.3801 16.2539 11.9414 16.2539Z" fill="#FF5C00"/>
<path d="M20.1922 18.6059V12.0415H22.7408C23.2097 12.0415 23.4971 11.5273 23.2475 11.1264L18.0596 2.79239C17.8251 2.41426 17.273 2.41426 17.0386 2.79239L11.8506 11.1264C11.601 11.5273 11.8884 12.0415 12.3573 12.0415H14.9059V31.2658C14.9059 31.7044 15.2614 32.0599 15.7 32.0599H19.3906C19.8292 32.0599 20.1847 31.7044 20.1847 31.2734C18.7024 29.5793 17.8024 27.3635 17.8024 24.9359C17.8024 22.5158 18.7024 20.3 20.1922 18.6059Z" fill="#FF5C00"/>
<path d="M27.445 17.3809C23.2704 17.3809 19.8899 20.7614 19.8899 24.936C19.8899 29.1105 23.2704 32.4911 27.445 32.4911C31.6196 32.4911 35.0001 29.1105 35.0001 24.936C35.0001 20.7614 31.6196 17.3809 27.445 17.3809ZM29.6155 27.9232C29.2827 28.324 28.8592 28.5963 28.3525 28.7324C28.1332 28.7929 28.0349 28.9064 28.05 29.1332C28.0576 29.3526 28.05 29.5794 28.05 29.8063C28.05 30.0029 27.9517 30.1088 27.7551 30.1164C27.5131 30.1239 27.2711 30.1239 27.0366 30.1164C26.8249 30.1088 26.7265 29.9954 26.7265 29.7912C26.7265 29.6248 26.7265 29.466 26.719 29.2996C26.719 28.9366 26.7039 28.9215 26.356 28.8685C25.9098 28.8005 25.4787 28.6946 25.0703 28.498C24.7527 28.3467 24.7224 28.2635 24.8132 27.9308C24.8812 27.6812 24.9493 27.4316 25.0249 27.1896C25.1157 26.9023 25.1913 26.872 25.456 27.0081C25.9022 27.2426 26.3787 27.3711 26.8778 27.4316C27.203 27.4695 27.5131 27.4392 27.808 27.3106C28.3601 27.0686 28.4508 26.4258 27.9819 26.0401C27.8231 25.9115 27.6416 25.8132 27.4526 25.73C26.9685 25.5183 26.4543 25.3519 26.0005 25.0796C25.2518 24.6335 24.7829 24.0209 24.8359 23.1134C24.8964 22.0848 25.4787 21.442 26.424 21.1017C26.8097 20.958 26.8173 20.9656 26.8173 20.5572C26.8173 20.4211 26.8173 20.2849 26.8173 20.1488C26.8249 19.8387 26.8778 19.7933 27.1803 19.7782C27.271 19.7782 27.3694 19.7782 27.4601 19.7782C28.1105 19.7782 28.1105 19.7782 28.1105 20.4286C28.1105 20.8899 28.1105 20.8899 28.5718 20.958C28.9197 21.0109 29.26 21.1168 29.5777 21.2605C29.7592 21.3361 29.8272 21.4647 29.7667 21.6538C29.6835 21.9336 29.6079 22.2134 29.5172 22.4932C29.434 22.7579 29.3508 22.7957 29.0937 22.6747C28.587 22.4327 28.0576 22.3268 27.4979 22.3571C27.3542 22.3647 27.2105 22.3873 27.0744 22.4478C26.5904 22.6596 26.5148 23.1965 26.9232 23.5217C27.1349 23.6881 27.3694 23.8091 27.6189 23.915C28.05 24.0889 28.4811 24.2629 28.8819 24.4898C30.1751 25.1855 30.523 26.8115 29.6155 27.9232Z" fill="#FF5C00"/>
</g>
<defs>
<clipPath id="clip0_356_232">
<rect width="35" height="35" fill="white"/>
</clipPath>
</defs>
</svg>
