<svg width="54" height="54" viewBox="0 0 54 54" fill="none" xmlns="http://www.w3.org/2000/svg">
<path d="M53.8146 8.01679L50.2928 0.973266C49.9948 0.376629 49.385 0 48.7177 0C48.0504 0 47.4406 0.376629 47.1425 0.973266L43.6208 8.01679C43.4993 8.26158 43.4351 8.53094 43.4351 8.80432V48.7174C43.4351 51.6342 45.7962 54 48.7177 54C51.6355 54 54.0003 51.6389 54.0003 48.7174V8.80432C54.0003 8.53094 53.9361 8.26158 53.8146 8.01679ZM50.4786 48.7174C50.4786 51.0203 46.9569 51.0355 46.9569 48.7174V46.9565H50.4786V48.7174ZM50.4786 10.5652H46.9569V9.21987L48.7178 5.69816L50.4787 9.21987L50.4786 10.5652Z" fill="black"/>
<path d="M38.1522 0H1.76091C0.788801 0 0 0.788168 0 1.76091V52.2392C0 53.2118 0.788801 54 1.76091 54H38.1522C39.1243 54 39.9131 53.2118 39.9131 52.2391V1.76091C39.9131 0.788168 39.1243 0 38.1522 0ZM15.8478 7.04352H24.0652C25.0373 7.04352 25.8261 7.83169 25.8261 8.80443C25.8261 9.77716 25.0373 10.5653 24.0652 10.5653H15.8478C14.8757 10.5653 14.0869 9.77716 14.0869 8.80443C14.0869 7.83169 14.8757 7.04352 15.8478 7.04352ZM31.1087 45.7826H8.80432C7.83221 45.7826 7.04341 44.9944 7.04341 44.0217C7.04341 43.049 7.83221 42.2608 8.80432 42.2608H31.1086C32.0807 42.2608 32.8695 43.049 32.8695 44.0217C32.8695 44.9944 32.0809 45.7826 31.1087 45.7826ZM7.04352 36.9783C7.04352 36.0056 7.83232 35.2174 8.80443 35.2174H19.3697C20.3418 35.2174 21.1306 36.0056 21.1306 36.9783C21.1306 37.951 20.3418 38.7392 19.3697 38.7392H8.80432C7.83221 38.7391 7.04352 37.9509 7.04352 36.9783ZM31.1087 38.7391H26.4131C25.441 38.7391 24.6522 37.9509 24.6522 36.9782C24.6522 36.0055 25.441 35.2173 26.4131 35.2173H31.1087C32.0809 35.2173 32.8697 36.0055 32.8697 36.9782C32.8695 37.9509 32.0809 38.7391 31.1087 38.7391ZM31.1087 31.6957H8.80432C7.83221 31.6957 7.04341 30.9075 7.04341 29.9348C7.04341 28.962 7.83221 28.1739 8.80432 28.1739H31.1086C32.0807 28.1739 32.8695 28.962 32.8695 29.9348C32.8695 30.9075 32.0809 31.6957 31.1087 31.6957ZM7.04352 22.8913C7.04352 21.9185 7.83232 21.1303 8.80443 21.1303H15.8479C16.82 21.1303 17.6089 21.9185 17.6089 22.8913C17.6089 23.864 16.82 24.6522 15.8479 24.6522H8.80432C7.83221 24.6522 7.04352 23.864 7.04352 22.8913ZM31.1087 24.6522H22.8914C21.9193 24.6522 21.1305 23.864 21.1305 22.8913C21.1305 21.9185 21.9193 21.1303 22.8914 21.1303H31.1087C32.0809 21.1303 32.8697 21.9185 32.8697 22.8913C32.8695 23.864 32.0809 24.6522 31.1087 24.6522ZM31.1087 17.6087H8.80432C7.83221 17.6087 7.04341 16.8206 7.04341 15.8478C7.04341 14.8751 7.83221 14.0869 8.80432 14.0869H31.1086C32.0807 14.0869 32.8695 14.8751 32.8695 15.8478C32.8695 16.8206 32.0809 17.6087 31.1087 17.6087Z" fill="black"/>
</svg>
