<svg width="27" height="27" viewBox="0 0 27 27" fill="none" xmlns="http://www.w3.org/2000/svg">
<path fill-rule="evenodd" clip-rule="evenodd" d="M13.5 13.2188C13.966 13.2188 14.3438 13.5965 14.3438 14.0625V14.9062H15.1875C15.6535 14.9062 16.0312 15.284 16.0312 15.75C16.0312 16.216 15.6535 16.5938 15.1875 16.5938H14.3438V17.4375C14.3438 17.9035 13.966 18.2812 13.5 18.2812C13.034 18.2812 12.6562 17.9035 12.6562 17.4375V16.5938H11.8125C11.3465 16.5938 10.9688 16.216 10.9688 15.75C10.9688 15.284 11.3465 14.9062 11.8125 14.9062H12.6562V14.0625C12.6562 13.5965 13.034 13.2188 13.5 13.2188Z" fill="#FF5C00"/>
<path fill-rule="evenodd" clip-rule="evenodd" d="M13.4415 1.40625C12.4307 1.40622 11.5878 1.4062 10.9187 1.49615C10.2124 1.59111 9.5748 1.79999 9.06239 2.31239C8.54999 2.8248 8.34111 3.46245 8.24615 4.16871C8.15619 4.83784 8.15622 5.68071 8.15625 6.6915V6.77894C5.88242 6.85333 4.517 7.11903 3.56802 8.06803C2.25 9.38604 2.25 11.5074 2.25 15.75C2.25 19.9926 2.25 22.114 3.56802 23.4319C4.88603 24.75 7.00735 24.75 11.25 24.75H15.75C19.9926 24.75 22.114 24.75 23.4319 23.4319C24.75 22.114 24.75 19.9926 24.75 15.75C24.75 11.5074 24.75 9.38604 23.4319 8.06803C22.483 7.11903 21.1176 6.85333 18.8437 6.77894V6.69151C18.8437 5.68073 18.8439 4.83784 18.7539 4.16871C18.6589 3.46245 18.45 2.8248 17.9376 2.31239C17.4252 1.79999 16.7876 1.59111 16.0813 1.49615C15.4122 1.4062 14.5693 1.40622 13.5585 1.40625H13.4415ZM17.1562 6.75213V6.75C17.1562 5.66549 17.1544 4.93698 17.0814 4.39358C17.0116 3.87442 16.891 3.65225 16.7444 3.50564C16.5978 3.35903 16.3756 3.2384 15.8564 3.16861C15.313 3.09555 14.5845 3.09375 13.5 3.09375C12.4155 3.09375 11.6869 3.09555 11.1436 3.16861C10.6244 3.2384 10.4022 3.35903 10.2556 3.50564C10.109 3.65225 9.9884 3.87442 9.91861 4.39358C9.84554 4.93698 9.84375 5.66549 9.84375 6.75V6.75213C10.2848 6.75 10.7528 6.75 11.25 6.75H15.75C16.2471 6.75 16.7152 6.75 17.1562 6.75213ZM18 15.75C18 18.2352 15.9852 20.25 13.5 20.25C11.0147 20.25 9 18.2352 9 15.75C9 13.2648 11.0147 11.25 13.5 11.25C15.9852 11.25 18 13.2648 18 15.75Z" fill="#FF5C00"/>
</svg>
