<svg width="29" height="29" viewBox="0 0 29 29" fill="none" xmlns="http://www.w3.org/2000/svg">
<g clip-path="url(#clip0_352_78)">
<path d="M24.7708 3.625H4.22909C3.90862 3.625 3.60127 3.75231 3.37466 3.97891C3.14806 4.20552 3.02075 4.51286 3.02075 4.83333V19.3333C3.02075 19.6538 3.14806 19.9611 3.37466 20.1878C3.60127 20.4144 3.90862 20.5417 4.22909 20.5417H24.7708C25.0912 20.5417 25.3986 20.4144 25.6252 20.1878C25.8518 19.9611 25.9791 19.6538 25.9791 19.3333V4.83333C25.9791 4.51286 25.8518 4.20552 25.6252 3.97891C25.3986 3.75231 25.0912 3.625 24.7708 3.625ZM12.9291 14.8625C13.0604 14.9788 13.1634 15.1236 13.23 15.2858C13.2967 15.448 13.3253 15.6234 13.3136 15.7984C13.302 15.9734 13.2503 16.1434 13.1627 16.2954C13.0751 16.4473 12.9539 16.5772 12.8083 16.675C12.5635 16.8557 12.2595 16.9374 11.9571 16.9038C11.6547 16.8702 11.3761 16.7238 11.177 16.4937L7.61242 12.9292C7.49522 12.8216 7.40165 12.6909 7.33763 12.5453C7.27362 12.3997 7.24057 12.2424 7.24057 12.0833C7.24057 11.9243 7.27362 11.767 7.33763 11.6214C7.40165 11.4757 7.49522 11.345 7.61242 11.2375L11.177 7.6125C11.3944 7.413 11.6697 7.28789 11.963 7.25531C12.2563 7.22272 12.5523 7.28434 12.8083 7.43125C12.9549 7.53531 13.0765 7.6708 13.1641 7.82783C13.2518 7.98486 13.3033 8.15947 13.3148 8.33892C13.3264 8.51838 13.2978 8.69816 13.2311 8.86515C13.1643 9.03213 13.0612 9.18212 12.9291 9.30417L10.1499 12.0833L12.9291 14.8625ZM21.3874 12.9292L17.8228 16.4937C17.6237 16.7238 17.3451 16.8702 17.0427 16.9038C16.7403 16.9374 16.4364 16.8557 16.1916 16.675C16.046 16.5772 15.9247 16.4473 15.8371 16.2954C15.7495 16.1434 15.6979 15.9734 15.6862 15.7984C15.6745 15.6234 15.7031 15.448 15.7698 15.2858C15.8365 15.1236 15.9394 14.9788 16.0708 14.8625L18.8499 12.0833L16.0708 9.30417C15.9387 9.18212 15.8355 9.03213 15.7688 8.86515C15.702 8.69816 15.6734 8.51838 15.685 8.33892C15.6966 8.15947 15.7481 7.98486 15.8357 7.82783C15.9233 7.6708 16.0449 7.53531 16.1916 7.43125C16.4475 7.28434 16.7435 7.22272 17.0368 7.25531C17.3301 7.28789 17.6054 7.413 17.8228 7.6125L21.3874 11.2375C21.5046 11.345 21.5982 11.4757 21.6622 11.6214C21.7262 11.767 21.7593 11.9243 21.7593 12.0833C21.7593 12.2424 21.7262 12.3997 21.6622 12.5453C21.5982 12.6909 21.5046 12.8216 21.3874 12.9292Z" fill="#FF5C00"/>
<path d="M26.5833 22.9583H2.41659C2.09612 22.9583 1.78877 23.0856 1.56216 23.3122C1.33556 23.5388 1.20825 23.8461 1.20825 24.1666C1.20825 24.4871 1.33556 24.7944 1.56216 25.021C1.78877 25.2476 2.09612 25.3749 2.41659 25.3749H26.5833C26.9037 25.3749 27.2111 25.2476 27.4377 25.021C27.6643 24.7944 27.7916 24.4871 27.7916 24.1666C27.7916 23.8461 27.6643 23.5388 27.4377 23.3122C27.2111 23.0856 26.9037 22.9583 26.5833 22.9583Z" fill="#FF5C00"/>
</g>
<defs>
<clipPath id="clip0_352_78">
<rect width="29" height="29" fill="white"/>
</clipPath>
</defs>
</svg>
