<svg width="69" height="54" viewBox="0 0 69 54" fill="none" xmlns="http://www.w3.org/2000/svg">
<path d="M58.356 52.3638C58.356 53.2673 57.6194 54 56.7103 54H54.0675H48.5816H8.68161C5.58104 54 3.05877 51.4921 3.05877 48.4099V42.2729C3.05877 39.1907 5.58104 36.6828 8.68161 36.6828H48.5816H54.0675H56.7103C57.6194 36.6828 58.356 37.4155 58.356 38.319C58.356 39.2225 57.6194 39.9552 56.7103 39.9552H55.7133V50.7277H56.7103C57.6194 50.7277 58.356 51.4603 58.356 52.3638ZM65.4047 32.9252C65.4047 33.8287 64.6681 34.5614 63.759 34.5614H61.2838H55.6303H22.5289C19.6455 34.5614 17.3 32.2295 17.3 29.3633V24.9957C17.3 22.1295 19.6455 19.7976 22.5289 19.7976H55.63H61.2834H63.7586C64.6677 19.7976 65.4044 20.5303 65.4044 21.4338C65.4044 22.3373 64.6677 23.0699 63.7586 23.0699H62.9292V31.289H63.7586C64.6681 31.289 65.4047 32.0214 65.4047 32.9252ZM22.5289 31.289H55.63H59.6377V23.0696H55.63H22.5289C21.4608 23.0696 20.5915 23.9335 20.5915 24.9954V29.3629C20.5918 30.4251 21.4608 31.289 22.5289 31.289ZM67.3543 0H53.2572H15.7432H1.64574C0.736634 0 0 0.732675 0 1.63617C0 2.53966 0.736634 3.27233 1.64574 3.27233H3.05877V17.2642C2.30535 17.7841 1.80999 18.6493 1.80999 19.6284C1.80999 21.2152 3.10848 22.5061 4.70452 22.5061C6.30055 22.5061 7.59904 21.2152 7.59904 19.6284C7.59904 18.6493 7.10368 17.7845 6.35026 17.2642V3.27233H14.0974V16.1722C14.0974 17.0757 14.8341 17.8083 15.7432 17.8083H53.2572C54.1663 17.8083 54.9029 17.0757 54.9029 16.1722V3.27233H67.3543C68.2634 3.27233 69 2.53966 69 1.63617C69 0.732675 68.2634 0 67.3543 0Z" fill="black"/>
</svg>
