<svg width="26" height="26" viewBox="0 0 26 26" fill="none" xmlns="http://www.w3.org/2000/svg">
<g clip-path="url(#clip0_354_105)">
<path d="M23.7306 0.851562H11.2458C10.9346 0.851562 10.6824 1.10379 10.6824 1.41498V5.80506L11.3072 5.41709C11.4662 5.31832 11.636 5.2517 11.8092 5.21509V1.9784H23.1671V10.1042H11.8092V8.78947L10.6824 9.48913V10.6677C10.6824 10.9788 10.9346 11.2311 11.2458 11.2311H23.7306C24.0417 11.2311 24.294 10.9788 24.294 10.6677V1.41498C24.294 1.10379 24.0417 0.851562 23.7306 0.851562Z" fill="#FF5C00"/>
<path d="M15.5391 3.97903C15.3909 3.79104 15.1184 3.75889 14.9304 3.90702L12.9897 5.43721C13.175 5.55832 13.3376 5.72057 13.4621 5.921C13.4974 5.97772 13.528 6.03607 13.5552 6.09523L15.4672 4.58769C15.6551 4.43951 15.6873 4.16697 15.5391 3.97903Z" fill="#FF5C00"/>
<path d="M6.17175 3.24339C7.06738 3.24339 7.79344 2.51733 7.79344 1.6217C7.79344 0.726058 7.06738 0 6.17175 0C5.27611 0 4.55005 0.726058 4.55005 1.6217C4.55005 2.51733 5.27611 3.24339 6.17175 3.24339Z" fill="#FF5C00"/>
<path d="M12.7973 6.33384C12.5693 5.96675 12.087 5.85391 11.7198 6.08182L10.1351 7.0657C10.1285 5.75154 10.132 6.44896 10.1278 5.60265C10.1227 4.58677 9.29203 3.76025 8.27611 3.76025H7.50632C6.84865 5.46589 7.06051 4.83275 6.50227 6.28052L6.73703 5.25825C6.75328 5.18167 6.7415 5.10184 6.70377 5.03329L6.38568 4.45474L6.66797 3.94139C6.71007 3.86481 6.65456 3.77097 6.56717 3.77097H5.79169C5.70435 3.77097 5.64874 3.86481 5.69089 3.94139L5.97374 4.4558L5.65504 5.03542C5.61807 5.1027 5.60598 5.18091 5.62091 5.25617L5.82429 6.28052C5.71465 5.9962 4.95675 4.03061 4.85249 3.76025H4.06711C3.05123 3.76025 2.22056 4.58672 2.21543 5.60265L2.18653 11.3511C2.1844 11.7832 2.53291 12.1353 2.96506 12.1375C2.96643 12.1375 2.9677 12.1375 2.96907 12.1375C3.39934 12.1375 3.74927 11.7897 3.7514 11.3589L3.7803 5.61052C3.7803 5.6096 3.7803 5.60869 3.7803 5.60782C3.78152 5.52251 3.85134 5.45416 3.93665 5.45482C4.02197 5.45543 4.09072 5.5248 4.09072 5.61011L4.09108 13.7544C4.8074 13.724 5.47111 13.9823 5.96902 14.4361V11.2588H6.3744V14.9035C6.65995 15.3234 6.82707 15.8299 6.82707 16.3749C6.82707 16.8713 6.68833 17.336 6.44778 17.7323C6.69488 17.7334 6.93488 17.7663 7.16375 17.8268C7.47229 17.5591 7.84345 17.3621 8.25234 17.2613C8.25234 3.07598 8.23533 11.8466 8.23533 5.61118C8.23533 5.52084 8.3084 5.44761 8.39874 5.44746C8.48908 5.44725 8.56246 5.52018 8.56287 5.61052C8.56561 6.15931 8.57424 7.87485 8.57724 8.47209C8.57866 8.75539 8.73314 9.01585 8.9811 9.15291C9.22861 9.28971 9.53131 9.2826 9.77242 9.1329L12.5453 7.41127C12.9123 7.18341 13.0252 6.70094 12.7973 6.33384Z" fill="#FF5C00"/>
<path d="M21.7964 18.1104C22.7444 18.1104 23.5129 17.3418 23.5129 16.3938C23.5129 15.4458 22.7444 14.6772 21.7964 14.6772C20.8484 14.6772 20.0798 15.4458 20.0798 16.3938C20.0798 17.3418 20.8484 18.1104 21.7964 18.1104Z" fill="#FF5C00"/>
<path d="M25.9725 20.6077C25.9671 19.5323 25.0878 18.6575 24.0124 18.6575C23.5485 18.6575 20.1235 18.6575 19.7072 18.6575C19.8919 19.0164 19.9968 19.4227 19.9968 19.8534C19.9968 20.3107 19.8747 20.7884 19.616 21.2134C20.5759 21.2522 21.4171 21.7674 21.9087 22.5285H23.9693V20.6277C23.9693 20.5342 24.0435 20.4575 24.137 20.4543C24.2304 20.4511 24.3097 20.5226 24.316 20.6159V20.616L24.3257 22.5285H25.9822L25.9725 20.6077Z" fill="#FF5C00"/>
<path d="M14.7503 19.8531C14.7503 19.4149 14.8589 19.0019 15.0496 18.6384C13.932 18.6384 12.6196 18.6384 11.2275 18.6384C11.4038 18.9908 11.5036 19.3878 11.5036 19.8079C11.5036 20.3015 11.3649 20.7689 11.1243 21.1653C11.9143 21.1691 12.6432 21.4973 13.1699 22.0421C13.6804 21.5434 14.3764 21.234 15.142 21.2299C14.8762 20.8007 14.7503 20.3188 14.7503 19.8531Z" fill="#FF5C00"/>
<path d="M13.4478 14.6582C12.4998 14.6582 11.7312 15.4266 11.7312 16.3748C11.7312 17.3207 12.4984 18.0913 13.4478 18.0913C14.3882 18.0913 15.1644 17.3314 15.1644 16.3748C15.1644 15.4277 14.3973 14.6582 13.4478 14.6582Z" fill="#FF5C00"/>
<path d="M6.257 19.808C6.257 19.389 6.35633 18.9929 6.53177 18.6411C6.45779 18.6374 6.76902 18.6386 1.98762 18.6386C0.917766 18.6386 0.0330058 19.5089 0.0275722 20.5888L0.0178223 22.5284C0.774817 22.5284 0.927109 22.5284 1.67435 22.5284L1.68405 20.5972C1.68456 20.5015 1.76231 20.4244 1.85788 20.4247C1.95345 20.425 2.03074 20.5025 2.03074 20.598V22.5284H4.35281C4.85325 21.7284 5.71374 21.2261 6.6503 21.1875C6.39609 20.7781 6.257 20.3057 6.257 19.808Z" fill="#FF5C00"/>
<path d="M4.20386 14.6582C3.25588 14.6582 2.4873 15.4267 2.4873 16.3748C2.4873 17.3185 3.25136 18.0913 4.20386 18.0913C5.14514 18.0913 5.92047 17.3288 5.92047 16.3748C5.92047 15.4267 5.15189 14.6582 4.20386 14.6582Z" fill="#FF5C00"/>
<path d="M21.4567 24.0605C21.4514 22.985 20.5721 22.1102 19.4967 22.1102C19.3827 22.1102 15.2835 22.1102 15.1546 22.1102C14.0793 22.1102 13.1436 22.985 13.1382 24.0604L13.1242 24.0151C13.1189 22.9441 12.2436 22.0649 11.1642 22.0649C9.91784 22.0649 8.12775 22.0649 6.82207 22.0649C5.74672 22.0649 4.81108 22.9397 4.80565 24.0151L4.7959 26H6.45243L6.46213 24.0235C6.46254 23.9411 6.52952 23.8747 6.61183 23.8749C6.69415 23.8751 6.76072 23.9419 6.76072 24.0242V26C7.73171 26 10.2384 26 11.1478 26V24.0242C11.1478 23.9361 11.2192 23.8646 11.3073 23.8643C11.3954 23.8641 11.4672 23.9353 11.4677 24.0234L11.4774 26C11.816 26 14.4348 26 14.785 26L14.7947 24.0687V24.0686C14.7951 23.9863 14.8621 23.9199 14.9444 23.9201C15.0267 23.9203 15.0932 23.9872 15.0932 24.0695V26C16.0642 26 18.5709 26 19.4803 26V24.0695C19.4803 23.9813 19.5517 23.9098 19.6398 23.9096C19.7279 23.9094 19.7997 23.9805 19.8002 24.0687L19.8099 25.9999H21.4664L21.4567 24.0605Z" fill="#FF5C00"/>
<path d="M8.93412 21.5379C9.89323 21.5379 10.6707 20.7604 10.6707 19.8013C10.6707 18.8422 9.89323 18.0647 8.93412 18.0647C7.97502 18.0647 7.19751 18.8422 7.19751 19.8013C7.19751 20.7604 7.97502 21.5379 8.93412 21.5379Z" fill="#FF5C00"/>
<path d="M17.3706 21.5828C18.3298 21.5828 19.1073 20.8053 19.1073 19.8462C19.1073 18.8871 18.3298 18.1096 17.3706 18.1096C16.4115 18.1096 15.634 18.8871 15.634 19.8462C15.634 20.8053 16.4115 21.5828 17.3706 21.5828Z" fill="#FF5C00"/>
</g>
<defs>
<clipPath id="clip0_354_105">
<rect width="26" height="26" fill="white"/>
</clipPath>
</defs>
</svg>
