<svg width="33" height="20" viewBox="0 0 33 20" fill="none" xmlns="http://www.w3.org/2000/svg">
<path d="M29.4956 13.3638L29.4775 10.2567L32.4659 8.58443L16.1884 0L0 8.75612L6.49036 12.4825L6.5033 14.6968L6.50462 14.8736L6.56392 14.8452C6.49551 14.9381 6.45166 15.0336 6.45298 15.1291C6.45813 16.2181 10.8543 17.08 16.2802 17.0504C21.7034 17.022 26.0931 16.1098 26.0893 15.0233C26.0893 14.9278 26.0389 14.8349 25.9719 14.7395L26.0312 14.7679V14.591L26.0195 12.3678L28.8338 10.6168L28.8492 13.3678C28.5395 13.5007 28.3241 13.8052 28.3266 14.1614C28.3293 14.6285 28.7086 15.0065 29.1795 15.0027C29.6531 15 30.0286 14.6181 30.0259 14.1523C30.0233 13.7961 29.8066 13.4942 29.4956 13.3638ZM16.2762 16.3006C11.4621 16.3277 7.55747 15.7986 7.55364 15.1239C7.54981 14.449 11.4491 13.8826 16.2634 13.858C21.0789 13.831 24.9821 14.3574 24.9848 15.0309C24.9885 15.7033 21.0917 16.2749 16.2762 16.3006ZM25.7975 10.5639C25.1459 9.87869 22.8104 8.06963 16.2324 8.10713C9.6452 8.142 7.33942 9.97299 6.69559 10.6685L6.69176 10.013C6.69176 10.013 8.56013 7.17037 16.2273 7.13036C23.8906 7.08902 25.7938 9.90973 25.7938 9.90973L25.7975 10.5639ZM28.4944 15.1884L28.1627 20C29.1885 18.3884 30.0454 18.9884 30.0454 18.9884L30.0248 15.1806C28.9227 15.613 28.4944 15.1884 28.4944 15.1884Z" fill="#FF5C00"/>
</svg>
