<svg width="27" height="22" viewBox="0 0 27 22" fill="none" xmlns="http://www.w3.org/2000/svg">
<g clip-path="url(#clip0_354_146)">
<path fill-rule="evenodd" clip-rule="evenodd" d="M1.9314 3.75518H4.18799V22H1.9314C0.86792 22 0 21.1295 0 20.0629V5.69007C0 4.62566 0.86792 3.75518 1.9314 3.75518ZM11.5005 0H15.3435C16.5388 0 17.5166 0.980667 17.5166 2.17951V3.34308H16.1323V2.1751C16.1323 1.75418 15.7895 1.4104 15.3699 1.4104H11.4741C11.0544 1.4104 10.7117 1.75418 10.7117 2.1751V3.34308H9.32739V2.17951C9.32739 0.980667 10.3052 0 11.5005 0ZM5.33496 3.75518H21.408V22H5.33496V3.75518ZM22.5549 3.75518H25.0686C26.1299 3.75518 27 4.62566 27 5.69228V20.0651C27 21.1295 26.1321 22.0022 25.0686 22.0022H22.5549V3.75518Z" fill="#FF5C00"/>
</g>
<defs>
<clipPath id="clip0_354_146">
<rect width="27" height="22" fill="white"/>
</clipPath>
</defs>
</svg>
