<svg width="25" height="25" viewBox="0 0 25 25" fill="none" xmlns="http://www.w3.org/2000/svg">
<g clip-path="url(#clip0_354_155)">
<path d="M23.3616 6.7146V20.4498C23.3616 20.4498 19.4059 17.7803 12.3673 19.5566C4.951 17.7599 1.39343 20.4294 1.39343 20.4294V6.7146H0V21.047H10.6166C10.637 21.9402 11.469 22.6548 12.5 22.6548C13.531 22.6548 14.3681 21.9402 14.3834 21.047H25V6.7146H23.3616Z" fill="#FF5C00"/>
<path d="M22.351 18.8828V3.34076C21.5956 3.00389 20.8249 2.764 20.0694 2.60577V9.84852L18.7015 8.71541L17.3336 9.84852V2.34546C15.8432 2.34546 14.3783 2.58535 12.8879 2.86098V18.403C16.0372 17.7905 19.1915 17.4945 22.351 18.8828Z" fill="#FF5C00"/>
<path d="M2.40405 3.34081V18.8829C5.5584 17.4945 8.71785 17.7906 11.8722 18.4082V2.88654C8.71275 2.26894 5.5584 1.97291 2.40405 3.34081ZM10.6983 16.0143C10.637 16.29 10.3614 16.4533 10.0807 16.3921C7.83994 15.8357 6.08923 15.6775 4.3232 16.6115C3.97612 16.7698 3.72602 16.5707 3.62904 16.3921C3.49123 16.1522 3.58821 15.8561 3.8281 15.7183C6.10965 14.5086 8.37588 14.9221 10.3205 15.4019C10.6013 15.4631 10.7595 15.7387 10.6983 16.0143ZM10.6983 13.1867C10.637 13.4623 10.3614 13.6256 10.0807 13.5644C7.83994 13.008 6.08923 12.8498 4.3232 13.7838C3.97612 13.9421 3.72602 13.743 3.62904 13.5644C3.49123 13.3245 3.58821 13.0284 3.8281 12.8906C6.10965 11.6809 8.37588 12.0944 10.3205 12.5742C10.6013 12.6303 10.7595 12.911 10.6983 13.1867ZM10.6983 10.4611C10.637 10.7367 10.3614 10.9 10.0807 10.8388C7.83994 10.2824 6.08923 10.1242 4.3232 11.0582C3.97612 11.2165 3.72602 11.0174 3.62904 10.8388C3.49123 10.5989 3.58821 10.3028 3.8281 10.165C6.10965 8.95535 8.37588 9.36878 10.3205 9.84857C10.6013 9.90471 10.7595 10.1803 10.6983 10.4611ZM10.6983 7.94983C10.637 8.22546 10.3614 8.38879 10.0807 8.32754C7.83994 7.77119 6.08923 7.61296 4.3232 8.54702C3.97612 8.70524 3.72602 8.50618 3.62904 8.32754C3.49123 8.08765 3.58821 7.79161 3.8281 7.6538C6.10965 6.44412 8.37588 6.85755 10.3205 7.33734C10.6013 7.39349 10.7595 7.66911 10.6983 7.94983ZM10.6983 5.1885C10.637 5.46413 10.3614 5.62746 10.0807 5.56621C7.83994 5.00986 6.08923 4.85163 4.3232 5.78569C3.97612 5.94391 3.72602 5.74485 3.62904 5.56621C3.49123 5.32631 3.58821 5.03028 3.8281 4.89246C6.10965 3.68279 8.37588 4.09622 10.3205 4.57601C10.6013 4.63215 10.7595 4.91288 10.6983 5.1885Z" fill="#FF5C00"/>
</g>
<defs>
<clipPath id="clip0_354_155">
<rect width="25" height="25" fill="white"/>
</clipPath>
</defs>
</svg>
