<svg width="61" height="67" viewBox="0 0 61 67" fill="none" xmlns="http://www.w3.org/2000/svg">
<path d="M34.7584 30.0104C34.4948 24.1647 34.1444 21.024 30.6399 17.1855C26.1709 12.2135 24.5056 7.41467 28.1867 0C29.1512 4.97196 29.5016 9.42188 33.0061 12.127C36.5106 14.8321 39.4011 22.1602 34.7584 30.0104ZM28.1895 30.0104C28.0129 26.8698 27.8391 25.2981 25.9102 23.1178C23.544 20.4992 22.5795 17.97 24.5953 13.9583C25.1224 16.6635 25.2093 19.0196 27.1354 20.4155C29.0614 21.8113 30.7268 25.8257 28.1867 30.0132L28.1895 30.0104ZM44.0467 57.5781H59.9935C60.958 57.5781 61.3084 58.276 60.6944 59.0605C60.6944 59.0605 54.4732 67 45.8886 67H15.136L0.330189 59.0605C-0.283799 58.276 -0.0202607 57.5781 0.944177 57.5781H16.7144C14.5248 56.4447 11.281 51.47 11.281 45.278V32.1907H49.6567V33.2376C50.8846 32.1907 52.3733 31.6659 53.949 31.6659C56.1386 31.6659 60.2571 33.9355 60.2571 37.8606C60.2571 43.5305 56.489 45.6242 54.2994 47.1094C54.2994 47.1094 50.1809 50.3365 47.2904 54.0885C46.326 55.7468 45.1877 57.0561 44.0495 57.5781H44.0467ZM53.9462 34.0248C52.5444 34.0248 50.7921 34.6362 49.6539 37.4279V44.6695C49.6539 45.6298 49.567 46.7632 49.3903 47.7235C51.3192 45.8029 53.5957 44.4964 53.5957 44.4964C54.9975 43.536 57.8011 41.7047 57.8011 38.1286C57.888 35.5993 55.5218 34.0248 53.9462 34.0248ZM17.9368 35.0717H15.4836V38.6478H17.9368V35.0717ZM17.9368 40.7416H15.4836V46.5873C15.4836 46.5873 16.1845 54.4403 21.1777 56.7937C18.1106 53.2175 17.9368 49.1166 17.9368 46.5873V40.7416Z" fill="black"/>
</svg>
