<svg width="28" height="28" viewBox="0 0 28 28" fill="none" xmlns="http://www.w3.org/2000/svg">
<path d="M6.88082 14.2283C6.88655 14.4135 6.88082 14.5929 6.88082 14.778C6.88082 14.94 6.80054 15.0268 6.63999 15.0326C6.44503 15.0384 6.25008 15.0384 6.05512 15.0326C5.8831 15.0268 5.80282 14.9285 5.80282 14.7607C5.80282 14.6276 5.80282 14.4945 5.79709 14.3556C5.79136 14.0605 5.78562 14.049 5.50465 14.0027C5.14341 13.9448 4.7879 13.8638 4.46106 13.7018C4.20303 13.5745 4.17436 13.5108 4.24891 13.2331C4.30625 13.0306 4.35785 12.8223 4.42093 12.6198C4.49547 12.3825 4.55854 12.3536 4.7707 12.4693C5.13768 12.6603 5.52186 12.7702 5.92897 12.8223C6.19274 12.857 6.44503 12.8281 6.6916 12.7239C7.14458 12.5272 7.21339 11.9949 6.83495 11.6766C6.70306 11.5667 6.55971 11.4915 6.39916 11.422C6.00351 11.2484 5.59067 11.1096 5.21222 10.8839C4.60441 10.5136 4.22024 10.0102 4.26037 9.26375C4.31198 8.41897 4.78217 7.89242 5.55053 7.60889C5.8659 7.49317 5.8659 7.49895 5.87163 7.16335C5.87163 7.04763 5.87163 6.93769 5.87163 6.82197C5.87737 6.56737 5.92324 6.52687 6.1698 6.52108C6.24434 6.52108 6.32462 6.52108 6.39916 6.52108C6.92669 6.52108 6.92669 6.52108 6.93243 7.05342C6.93243 7.42952 6.93243 7.43531 7.30514 7.49317C7.59184 7.53946 7.86134 7.62047 8.1251 7.74198C8.26845 7.80563 8.32579 7.90978 8.27992 8.06601C8.21111 8.29745 8.15377 8.5289 8.07923 8.75457C8.01042 8.96866 7.94161 9.00338 7.73519 8.89922C7.32234 8.69671 6.88655 8.6157 6.43357 8.63884C6.31315 8.64463 6.19847 8.66199 6.08379 8.70828C5.68814 8.88186 5.62507 9.32162 5.96338 9.59357C6.1354 9.73244 6.32462 9.83081 6.53104 9.91181C6.88082 10.0565 7.23059 10.1953 7.56317 10.3805C8.61249 10.9881 8.89919 12.3247 8.15377 13.2331C7.88427 13.5629 7.5345 13.7828 7.12738 13.8985C6.94963 13.9506 6.86935 14.0432 6.88082 14.2283ZM10.7742 7.95028H16.4136H22.053C22.2021 7.95028 22.3225 7.82877 22.3225 7.67833V6.79882C22.3225 6.64838 22.2021 6.52687 22.053 6.52687H10.7742C10.6251 6.52687 10.5047 6.64838 10.5047 6.79882V7.67833C10.5047 7.82877 10.6251 7.95028 10.7742 7.95028ZM10.5047 10.0391C10.5047 10.1896 10.6251 10.3111 10.7742 10.3111H18.733C18.8821 10.3111 19.0025 10.1896 19.0025 10.0391V9.1596C19.0025 9.00916 18.8821 8.88765 18.733 8.88765H10.7742C10.6251 8.88765 10.5047 9.00916 10.5047 9.1596V10.0391ZM22.3225 12.4057V11.5262C22.3225 11.3757 22.2021 11.2542 22.053 11.2542H10.7742C10.6251 11.2542 10.5047 11.3757 10.5047 11.5262V12.4057C10.5047 12.5561 10.6251 12.6776 10.7742 12.6776H22.053C22.2021 12.6776 22.3225 12.5561 22.3225 12.4057ZM2.19613 18.7937H15.5564C15.4704 18.5854 15.413 18.3655 15.3958 18.1398C15.3672 17.6654 15.3385 17.1909 15.3098 16.7106H2.19613C2.12159 16.7106 2.06425 16.6528 2.06425 16.5776V4.66949H25.2182V16.5776C25.2182 16.6528 25.1609 16.7106 25.0863 16.7106H23.7503C24.2549 17.3992 24.7652 18.0935 25.2698 18.7821C26.3937 18.6895 27.2824 17.7348 27.2824 16.5776V2.21613C27.2824 0.995232 26.2962 0 25.0863 0H2.19613C0.986251 0 0 0.995232 0 2.21613V16.5776C0 17.7984 0.986251 18.7937 2.19613 18.7937ZM13.5839 13.615H12.4313H10.7742C10.6251 13.615 10.5047 13.7365 10.5047 13.887V14.7665C10.5047 14.9169 10.6251 15.0384 10.7742 15.0384H12.4313H13.5839H15.2123C15.2066 14.9516 15.2009 14.8706 15.1951 14.7838L15.155 14.1184C15.1435 13.9448 15.1607 13.777 15.1951 13.615H13.5839ZM21.0668 15.3104C23.0794 18.0588 25.6138 21.3338 27.6265 24.0823C28.2515 24.9329 28.0737 26.1364 27.2308 26.7671L26.084 27.6235C25.2411 28.2542 24.0485 28.0748 23.4235 27.2184C22.1333 25.4536 20.3156 23.1623 19.0255 21.3975C18.2972 20.408 17.569 19.4186 16.8523 18.4234C16.772 18.3134 16.7261 18.1861 16.7204 18.053C16.6344 16.7164 16.5541 15.3798 16.4796 14.049C16.4624 13.7134 16.6975 13.5398 17.0071 13.6555C18.2399 14.1184 19.4727 14.5871 20.7113 15.05C20.8546 15.0905 20.9808 15.1889 21.0668 15.3104ZM20.0691 15.6113C19.5874 15.4319 19.1115 15.2467 18.6355 15.0731C18.4406 15.617 17.9303 15.9874 17.3569 15.9989V16.0047C17.3855 16.5544 17.4199 17.0983 17.4543 17.6596C17.6894 17.7174 17.9016 17.6827 18.108 17.6191C18.842 17.3818 19.4326 16.9421 19.8913 16.323C20.006 16.1667 20.0691 15.9642 20.1551 15.7848C20.1952 15.698 20.1665 15.646 20.0691 15.6113Z" fill="#FF5C00"/>
</svg>
