<svg width="49" height="49" viewBox="0 0 49 49" fill="none" xmlns="http://www.w3.org/2000/svg">
<path d="M24.5001 0.0537109L0.120117 8.81113V48.88H48.8801V8.81113L24.5001 0.0537109ZM24.5001 2.30621L46.7601 10.3018V12.2893L24.5001 4.29371L2.24012 12.2893V10.3018L24.5001 2.30621ZM2.24012 14.96H4.36012V17.08H2.24012V14.96ZM44.6401 14.96H46.7601V17.08H44.6401V14.96ZM8.60012 18.14H10.7201V26.62H13.6682C13.1589 26.0568 12.8401 25.3198 12.8401 24.5C12.8401 22.7443 14.2645 21.32 16.0201 21.32C17.7757 21.32 19.2001 22.7443 19.2001 24.5C19.2001 25.3198 18.8813 26.0568 18.372 26.62H21.3201V21.32H30.8601C33.7875 21.32 36.1601 23.6925 36.1601 26.62H38.2801V18.14H40.4001V46.76H38.2801V44.64H10.7201V46.76H8.60012V18.14ZM2.24012 19.2H4.36012V21.32H2.24012V19.2ZM44.6401 19.2H46.7601V21.32H44.6401V19.2ZM2.24012 23.44H4.36012V25.56H2.24012V23.44ZM44.6401 23.44H46.7601V25.56H44.6401V23.44ZM2.24012 27.68H4.36012V29.8H2.24012V27.68ZM44.6401 27.68H46.7601V29.8H44.6401V27.68ZM10.7201 28.74V42.52H13.6682C13.1589 41.9568 12.8401 41.2198 12.8401 40.4C12.8401 38.6443 14.2645 37.22 16.0201 37.22C17.7757 37.22 19.2001 38.6443 19.2001 40.4C19.2001 41.2198 18.8813 41.9568 18.372 42.52H21.3201V37.22H30.8601C33.7875 37.22 36.1601 39.5925 36.1601 42.52H38.2801V28.74H10.7201ZM2.24012 31.92H4.36012V34.04H2.24012V31.92ZM44.6401 31.92H46.7601V34.04H44.6401V31.92ZM2.24012 36.16H4.36012V38.28H2.24012V36.16ZM44.6401 36.16H46.7601V38.28H44.6401V36.16ZM2.24012 40.4H4.36012V42.52H2.24012V40.4ZM44.6401 40.4H46.7601V42.52H44.6401V40.4ZM2.24012 44.64H4.36012V46.76H2.24012V44.64ZM44.6401 44.64H46.7601V46.76H44.6401V44.64Z" fill="#FF5C00"/>
</svg>
