<svg width="68" height="48" viewBox="0 0 68 48" fill="none" xmlns="http://www.w3.org/2000/svg">
<path d="M11.7713 11.1837C14.2093 10.5305 15.6562 8.02451 15.0029 5.58647C14.3497 3.14843 11.8437 1.70156 9.40568 2.3548C6.96763 3.00804 5.52077 5.51402 6.17401 7.95206C6.82725 10.3901 9.33323 11.837 11.7713 11.1837Z" fill="#FF5C00"/>
<path d="M18.9142 36.1289H13.3478C13.3478 36.1289 13.0548 36.1289 12.8204 36.1289C10.3009 35.8945 8.13294 34.0781 7.48841 31.5586L3.67981 17.3789C3.44544 16.5586 2.62513 16.1484 1.922 16.3242C1.10169 16.5586 0.691532 17.3789 0.867313 18.082L4.61731 32.2617C5.61341 35.9531 8.71887 38.6484 12.5275 38.9414C12.879 39 13.2892 39 13.2892 39H18.8556C19.6759 39 20.2618 38.3555 20.3204 37.5352C20.3204 36.7148 19.7345 36.1289 18.9142 36.1289Z" fill="#FF5C00"/>
<path d="M25.4769 28.1601H17.8597C17.684 25.289 17.2152 22.418 16.5121 19.5469C16.4535 19.3125 16.2777 18.7265 16.2777 18.668C15.2816 14.9765 11.766 12.6328 8.07459 12.9844C8.07459 12.9844 7.60584 13.043 7.48865 13.043C6.14099 13.3945 5.32068 14.8008 5.67224 16.207L9.59803 30.7969C10.0082 32.4375 11.4144 33.668 13.1722 33.7851H13.5238H22.6058V44.2148C22.6058 45.7969 23.8363 47.0859 25.4769 47.0859C27.059 47.0859 28.348 45.8555 28.348 44.2148V31.0312C28.348 30.2695 28.0551 29.5664 27.4691 29.039C26.9418 28.4531 26.1801 28.1601 25.4769 28.1601Z" fill="#FF5C00"/>
<path d="M62.584 7.9886C63.2372 5.55056 61.7904 3.04459 59.3523 2.39135C56.9143 1.7381 54.4083 3.18497 53.7551 5.62301C53.1018 8.06105 54.5487 10.567 56.9867 11.2203C59.4248 11.8735 61.9308 10.4266 62.584 7.9886Z" fill="#FF5C00"/>
<path d="M49.8516 36.1289H55.418C55.418 36.1289 55.7109 36.1289 55.9453 36.1289C58.4648 35.8945 60.6328 34.0781 61.2773 31.5586L65.0859 17.3789C65.3203 16.5586 66.1406 16.1484 66.8437 16.3242C67.6641 16.5586 68.0742 17.3789 67.8984 18.082L64.1484 32.2617C63.1523 35.9531 60.0469 38.6484 56.2383 38.9414C55.8867 39 55.4766 39 55.4766 39H49.9102C49.0898 39 48.5039 38.3555 48.4453 37.5352C48.4453 36.7148 49.0898 36.1289 49.8516 36.1289Z" fill="#FF5C00"/>
<path d="M43.2891 28.1601H50.9063C51.082 25.289 51.5508 22.418 52.2539 19.5469C52.3125 19.3125 52.4883 18.7265 52.4883 18.668C53.4844 14.9765 57 12.6328 60.6914 12.9844C60.6914 12.9844 61.1602 13.043 61.2773 13.043C62.625 13.3945 63.4453 14.8008 63.0938 16.207L59.1094 30.7969C58.6992 32.4375 57.293 33.668 55.5352 33.7851H55.1836H46.1602V44.2148C46.1602 45.7969 44.9297 47.0859 43.2891 47.0859C41.6484 47.0859 40.418 45.8555 40.418 44.2148V31.0312C40.418 30.2695 40.7109 29.5664 41.2969 29.039C41.8242 28.4531 42.5859 28.1601 43.2891 28.1601Z" fill="#FF5C00"/>
<path d="M49.3828 20.4844H19.7344V24H49.3828V20.4844Z" fill="#FF5C00"/>
<path d="M34.5586 8.53125C36.8885 8.53125 38.7773 6.64245 38.7773 4.3125C38.7773 1.98255 36.8885 0.09375 34.5586 0.09375C32.2286 0.09375 30.3398 1.98255 30.3398 4.3125C30.3398 6.64245 32.2286 8.53125 34.5586 8.53125Z" fill="#FF5C00"/>
<path d="M27.7617 18.7852V16.2656H27.7031C27.7031 15.9727 27.9375 15.7383 28.2305 15.7383C28.5234 15.7383 28.7578 15.9727 28.7578 16.2656V18.7852H40.418V16.2656H40.3594C40.3594 15.9727 40.5938 15.7383 40.8867 15.7383C41.1797 15.7383 41.4141 15.9727 41.4141 16.2656V18.7852H45.0469V15.2109C45.0469 12.2813 42.7031 9.9375 39.7734 9.9375H29.2266C26.2969 9.9375 23.9531 12.2813 23.9531 15.2109V18.7852H27.7617Z" fill="#FF5C00"/>
</svg>
