<svg width="28" height="28" viewBox="0 0 28 28" fill="none" xmlns="http://www.w3.org/2000/svg">
<g clip-path="url(#clip0_354_177)">
<path d="M25.6508 23.2298H22.3624V3.63338C22.3624 3.26581 22.1142 2.96044 21.7656 2.89514C21.8548 2.82654 21.9221 2.70026 21.9221 2.58093C21.9221 2.37356 21.7564 2.18292 21.5508 2.18292H20.7651V0.52331C20.7651 0.31425 20.5985 0.144183 20.3875 0.144183C20.1784 0.144183 20.0134 0.314344 20.0134 0.52331V2.57464C20.0134 2.69378 20.0978 2.84054 20.1813 2.84054H19.3885C19.4685 2.84054 19.5207 2.67208 19.5207 2.56036C19.5207 2.35299 19.3471 2.18283 19.1416 2.18283H18.3221V1.90095H19.0095C19.2185 1.90095 19.3886 1.73436 19.3886 1.52323C19.3886 1.31765 19.215 1.14918 19.0095 1.14918H18.3221V0.867297H19.1417C19.3472 0.867297 19.5208 0.697136 19.5208 0.489766C19.5208 0.280706 19.3506 0.115619 19.1417 0.115619H18.0048C17.7921 0.115619 17.5705 0.310679 17.5705 0.523216V2.57454C17.5705 2.69491 17.6669 2.84045 17.7575 2.84045H16.1961C16.3033 2.84045 16.349 2.70261 16.349 2.57454V0.867391H16.7012C16.9067 0.867391 17.0803 0.69723 17.0803 0.48986C17.0803 0.2808 16.9101 0.115713 16.7012 0.115713H15.2166C15.004 0.115713 14.8375 0.27723 14.8375 0.48986C14.8375 0.700706 15.0076 0.867391 15.2166 0.867391H15.5034V2.57464C15.5034 2.70111 15.6136 2.84054 15.7217 2.84054H13.9169C14.017 2.84054 14.1105 2.76951 14.1932 2.70881C14.4329 2.53612 14.5703 2.28797 14.5703 2.0214C14.5703 1.88206 14.5305 1.74046 14.4586 1.62555C14.3679 1.47944 14.2289 1.36481 14.0319 1.26897C13.8902 1.20161 13.7236 1.1519 13.5077 1.10952L13.4823 1.10671C13.3056 1.07241 13.1688 1.02308 13.1173 0.987283C13.097 0.973189 13.0605 0.962854 13.0605 0.957216C13.0605 0.956276 13.0605 0.955337 13.0605 0.954491C13.0605 0.94237 13.0948 0.917189 13.1362 0.886558C13.2048 0.835538 13.3184 0.805283 13.4235 0.805283C13.5802 0.805283 13.7217 0.888062 13.884 0.996115C13.9444 1.03652 14.0168 1.05775 14.089 1.05756C14.2152 1.05756 14.3315 0.99386 14.3929 0.895015C14.4493 0.814115 14.47 0.715552 14.4501 0.617552C14.4309 0.523404 14.3772 0.441377 14.2931 0.383028L14.2843 0.377109C14.0982 0.256746 13.817 0.0746524 13.4333 0.0746524C13.1705 0.0746524 12.9179 0.152827 12.7202 0.295834C12.495 0.462236 12.3659 0.702303 12.3659 0.954491C12.3659 1.09271 12.4034 1.22575 12.4747 1.33954C12.5639 1.48179 12.6992 1.59661 12.8764 1.68052C13.0113 1.7446 13.1682 1.79224 13.3702 1.83104L13.3948 1.83433C13.5631 1.86722 13.7084 1.91636 13.7846 1.96625C13.8154 1.98683 13.8265 2.00167 13.8322 2.01097L13.8366 2.02526C13.8366 2.06284 13.797 2.09977 13.7638 2.1242C13.6851 2.18179 13.5643 2.21628 13.4317 2.21646C13.2514 2.21646 13.0324 2.10324 12.8953 1.99115C12.8297 1.9374 12.7467 1.90781 12.6615 1.90781C12.5505 1.90781 12.4468 1.95676 12.3739 2.04602C12.2521 2.20387 12.2779 2.42665 12.4341 2.55434C12.5657 2.65826 12.7451 2.84064 12.9584 2.84064H10.8198C11.0289 2.84064 11.2211 2.66616 11.369 2.50295C11.629 2.23046 11.7721 1.88225 11.7721 1.50387C11.7721 1.12991 11.6293 0.777001 11.3732 0.504236C11.1299 0.232129 10.7669 0.0720215 10.4021 0.0720215C10.0271 0.0720215 9.6663 0.230907 9.41336 0.504518C9.15854 0.77578 9.01826 1.13461 9.01826 1.51336C9.01826 1.89653 9.15891 2.23469 9.41336 2.50154C9.56886 2.66728 9.76251 2.84045 9.97298 2.84045H8.33103C8.42603 2.84045 8.45638 2.70101 8.45638 2.57454V0.52331C8.45638 0.31425 8.28979 0.144183 8.07875 0.144183C7.86622 0.144183 7.7047 0.310867 7.7047 0.52331V1.14927H7.14094V0.52331C7.14094 0.31425 6.97444 0.144183 6.76332 0.144183C6.55087 0.144183 6.38926 0.310867 6.38926 0.52331V2.57464C6.38926 2.70271 6.47993 2.84054 6.57305 2.84054H6.42055C6.00544 2.84054 5.63758 3.21817 5.63758 3.63328V23.2298H2.41176C1.11652 23.2298 0 24.3247 0 25.62V27.2173C0 27.6324 0.399329 27.9279 0.814443 27.9279H11.651V24.7333H16.255V27.9279H27.2481C27.6632 27.9279 28 27.6324 28 27.2173V25.62C28 24.3247 26.9461 23.2298 25.6508 23.2298ZM9.97589 1.03408C10.0902 0.911646 10.2375 0.846907 10.4017 0.846907C10.5548 0.846907 10.7012 0.913337 10.8136 1.03389C10.9318 1.16073 10.9996 1.33578 10.9996 1.51412C10.9996 1.69067 10.9306 1.86834 10.8136 1.99087C10.6989 2.11386 10.5526 2.18151 10.4016 2.18151C10.2395 2.18151 10.0922 2.11565 9.97289 1.98767C9.85666 1.86872 9.79004 1.69602 9.79004 1.51402C9.79004 1.33287 9.85722 1.15829 9.97589 1.03408ZM18.698 13.4991C18.2829 13.4991 17.9463 13.1626 17.9463 12.7475V11.1502C17.9463 10.735 18.2829 10.3985 18.698 10.3985C19.1131 10.3985 19.4497 10.735 19.4497 11.1502V12.7475C19.4497 13.1626 19.1131 13.4991 18.698 13.4991ZM19.4497 15.8481V17.4455C19.4497 17.8606 19.1131 18.1971 18.698 18.1971C18.2829 18.1971 17.9463 17.8606 17.9463 17.4455V15.8481C17.9463 15.433 18.2829 15.0965 18.698 15.0965C19.1131 15.0965 19.4497 15.433 19.4497 15.8481ZM18.698 8.89512C18.2829 8.89512 17.9463 8.55856 17.9463 8.14344V6.54613C17.9463 6.13101 18.2829 5.79445 18.698 5.79445C19.1131 5.79445 19.4497 6.13101 19.4497 6.54613V8.14344C19.4497 8.55856 19.1131 8.89512 18.698 8.89512ZM15.5034 13.4991C15.0882 13.4991 14.7517 13.1626 14.7517 12.7475V11.1502C14.7517 10.735 15.0882 10.3985 15.5034 10.3985C15.9185 10.3985 16.255 10.735 16.255 11.1502V12.7475C16.255 13.1626 15.9185 13.4991 15.5034 13.4991ZM16.255 15.8481V17.4455C16.255 17.8606 15.9185 18.1971 15.5034 18.1971C15.0882 18.1971 14.7517 17.8606 14.7517 17.4455V15.8481C14.7517 15.433 15.0882 15.0965 15.5034 15.0965C15.9185 15.0965 16.255 15.433 16.255 15.8481ZM15.5034 8.89512C15.0882 8.89512 14.7517 8.55856 14.7517 8.14344V6.54613C14.7517 6.13101 15.0882 5.79445 15.5034 5.79445C15.9185 5.79445 16.255 6.13101 16.255 6.54613V8.14344C16.255 8.55856 15.9185 8.89512 15.5034 8.89512ZM12.4027 13.4991C11.9876 13.4991 11.651 13.1626 11.651 12.7475V11.1502C11.651 10.735 11.9876 10.3985 12.4027 10.3985C12.8178 10.3985 13.1544 10.735 13.1544 11.1502V12.7475C13.1544 13.1626 12.8178 13.4991 12.4027 13.4991ZM13.1544 15.8481V17.4455C13.1544 17.8606 12.8178 18.1971 12.4027 18.1971C11.9876 18.1971 11.651 17.8606 11.651 17.4455V15.8481C11.651 15.433 11.9876 15.0965 12.4027 15.0965C12.8178 15.0965 13.1544 15.433 13.1544 15.8481ZM12.4027 8.89512C11.9876 8.89512 11.651 8.55856 11.651 8.14344V6.54613C11.651 6.13101 11.9876 5.79445 12.4027 5.79445C12.8178 5.79445 13.1544 6.13101 13.1544 6.54613V8.14344C13.1544 8.55856 12.8178 8.89512 12.4027 8.89512ZM9.30201 13.4991C8.8869 13.4991 8.55034 13.1626 8.55034 12.7475V11.1502C8.55034 10.735 8.8869 10.3985 9.30201 10.3985C9.71713 10.3985 10.0537 10.735 10.0537 11.1502V12.7475C10.0537 13.1626 9.71713 13.4991 9.30201 13.4991ZM10.0537 15.8481V17.4455C10.0537 17.8606 9.71713 18.1971 9.30201 18.1971C8.8869 18.1971 8.55034 17.8606 8.55034 17.4455V15.8481C8.55034 15.433 8.8869 15.0965 9.30201 15.0965C9.71713 15.0965 10.0537 15.433 10.0537 15.8481ZM9.30201 8.89512C8.8869 8.89512 8.55034 8.55856 8.55034 8.14344V6.54613C8.55034 6.13101 8.8869 5.79445 9.30201 5.79445C9.71713 5.79445 10.0537 6.13101 10.0537 6.54613V8.14344C10.0537 8.55856 9.71713 8.89512 9.30201 8.89512ZM1.50336 25.62C1.50336 25.1536 1.94544 24.7332 2.41176 24.7332H5.63758V26.4244H1.50336V25.62ZM22.3624 24.7332H25.6508C26.1171 24.7332 26.4966 25.1536 26.4966 25.62V26.4245H22.3624V24.7332ZM7.14094 2.57464V1.90095H7.7047V2.57464C7.7047 2.70271 7.79537 2.84054 7.88848 2.84054H7.0156C7.11059 2.84054 7.14094 2.70111 7.14094 2.57464ZM10.9056 23.2298C10.6289 23.2298 10.3746 23.0983 10.2435 22.8545C10.1124 22.6106 10.126 22.3249 10.2787 22.0942L11.6465 20.0117C11.7857 19.8012 12.0211 19.6593 12.2734 19.6593H15.7452C15.9936 19.6593 16.2259 19.8024 16.366 20.0076L17.7777 22.085C17.9348 22.3151 17.9519 22.5979 17.8216 22.8444C17.6915 23.0908 17.4357 23.2298 17.157 23.2298H10.9056Z" fill="#FF5C00"/>
</g>
<defs>
<clipPath id="clip0_354_177">
<rect width="28" height="28" fill="white"/>
</clipPath>
</defs>
</svg>
