<svg width="82" height="54" viewBox="0 0 82 54" fill="none" xmlns="http://www.w3.org/2000/svg">
<path d="M81.0564 16.3498C82.3145 16.8819 82.3145 17.753 81.0564 18.2798L43.2909 34.2308C41.8103 34.7621 40.1897 34.7621 38.7091 34.2308L0.943613 18.285C-0.314538 17.753 -0.314538 16.8767 0.943613 16.3498L38.7091 0.398842C40.1896 -0.132947 41.8104 -0.132947 43.2909 0.398842L81.0564 16.3498ZM45.2358 38.7949L66.1158 29.9796V40.8344C66.1158 48.1058 54.8711 54 41 54C27.1289 54 15.8894 48.1058 15.8894 40.8344V29.9744L36.7642 38.7897C39.4884 39.8456 42.5116 39.8456 45.2358 38.7897V38.7949ZM71.1327 47.5424H79.7406V41.8516C79.7607 41.2763 79.6643 40.7028 79.4569 40.1654C79.2496 39.628 78.9356 39.1376 78.5337 38.7235C78.1318 38.3095 77.6503 37.9801 77.1177 37.7552C76.5852 37.5303 76.0126 37.4144 75.434 37.4144C74.8555 37.4144 74.2829 37.5303 73.7503 37.7552C73.2178 37.9801 72.7362 38.3095 72.3343 38.7235C71.9324 39.1376 71.6184 39.628 71.4111 40.1654C71.2038 40.7028 71.1073 41.2763 71.1275 41.8516L71.1327 47.5424ZM75.4314 28.7486C76.006 28.7496 76.568 28.581 77.0463 28.2641C77.5246 27.9472 77.8977 27.4963 78.1183 26.9683C78.3389 26.4404 78.3972 25.8592 78.2857 25.2983C78.1742 24.7374 77.8981 24.222 77.4921 23.8174C77.0862 23.4127 76.5687 23.137 76.0052 23.025C75.4417 22.9131 74.8574 22.97 74.3265 23.1886C73.7955 23.4072 73.3416 23.7775 73.0222 24.2529C72.7029 24.7282 72.5324 25.2871 72.5324 25.8589C72.5324 26.6253 72.8384 27.3603 73.383 27.9022C73.9277 28.4442 74.6664 28.7486 75.4366 28.7486H75.4314ZM75.4314 36.1295C76.0058 36.1305 76.5676 35.962 77.0458 35.6454C77.524 35.3287 77.897 34.878 78.1178 34.3504C78.3386 33.8228 78.3971 33.2418 78.2861 32.6811C78.175 32.1203 77.8994 31.6049 77.4939 31.2001C77.0885 30.7952 76.5715 30.519 76.0084 30.4065C75.4452 30.294 74.8612 30.3502 74.3301 30.568C73.799 30.7857 73.3448 31.1553 73.0248 31.6299C72.7048 32.1046 72.5334 32.663 72.5324 33.2345C72.5317 33.6144 72.6063 33.9908 72.752 34.342C72.8976 34.6932 73.1114 35.0123 73.3812 35.2812C73.6509 35.5501 73.9713 35.7635 74.324 35.909C74.6767 36.0546 75.0548 36.1295 75.4366 36.1295H75.4314Z" fill="black"/>
</svg>
