<svg width="35" height="49" viewBox="0 0 35 49" fill="none" xmlns="http://www.w3.org/2000/svg">
<path d="M28.193 45.5309C28.193 45.5309 28.679 42.7062 25.6817 39.2567C28.5992 31.3371 29.0039 24.1252 29.0039 24.1252C29.0039 24.1252 35 25.4589 35 31.1813C34.9986 40.9822 28.193 45.5309 28.193 45.5309ZM11.6657 42.0899C11.6657 42.0899 7.64995 29.6187 7.64995 24.4452C7.64995 22.1175 7.92124 20.0467 8.34342 18.1669H26.6377C27.0628 20.0481 27.3355 22.1203 27.3355 24.4467C27.3355 29.5415 23.3314 42.0899 23.3314 42.0899H11.6657ZM17.4848 21.0183C15.4276 21.0183 13.7592 22.6328 13.7592 24.6249C13.7592 26.6157 15.4276 28.2316 17.4848 28.2316C19.542 28.2316 21.2118 26.6171 21.2118 24.6249C21.2133 22.6328 19.5434 21.0183 17.4848 21.0183ZM16.6839 4.91095V0H18.1347V4.786C19.793 5.95407 24.2802 9.66887 26.3098 16.8247H8.66839C10.6298 9.86542 14.9009 6.19134 16.6839 4.91095ZM6.8056 45.5309C6.8056 45.5309 0 40.9822 0 31.1813C0 25.4589 5.99606 24.1252 5.99606 24.1252C5.99606 24.1252 6.40083 31.3371 9.31689 39.2567C6.31813 42.7076 6.8056 45.5309 6.8056 45.5309ZM19.9525 46.2553L18.7368 45.0788L17.4412 49L15.9005 45.0788L14.8473 47.1159L13.3065 43.4306H21.6514L19.9525 46.2553Z" fill="#FF5C00"/>
</svg>
