<svg width="21" height="21" viewBox="0 0 21 21" fill="none" xmlns="http://www.w3.org/2000/svg">
<g clip-path="url(#clip0_416_894)">
<path d="M17.5758 19.6604L12.0798 15.1506H4.51941C2.0277 15.1506 0 13.0787 0 10.5325V5.95796C0 3.41182 2.0277 1.33984 4.51941 1.33984H16.4806C18.9723 1.33984 21 3.41182 21 5.95796V10.5325C21 12.6749 19.5638 14.5052 17.5758 15.0115V19.6604ZM4.51941 2.65239C2.75126 2.65239 1.3125 4.13537 1.3125 5.958V10.5325C1.3125 12.3552 2.75126 13.8381 4.51941 13.8381H12.5489L16.2633 16.8855V13.8836L16.8427 13.815C18.4647 13.6241 19.6875 12.2129 19.6875 10.5325V5.95796C19.6875 4.13533 18.2487 2.65234 16.4806 2.65234H4.51941V2.65239Z" fill="black"/>
<path d="M3.74069 9.02254C3.97461 9.16483 4.45975 9.3321 4.83595 9.3321C5.22047 9.3321 5.37942 9.19817 5.37942 8.98924C5.37942 8.77967 5.25381 8.67969 4.77767 8.52077C3.93299 8.23624 3.60681 7.77673 3.61512 7.29159C3.61512 6.53087 4.26754 5.9541 5.27884 5.9541C5.75562 5.9541 6.18248 6.0624 6.43302 6.18802L6.20742 7.06599C6.02348 6.96536 5.67231 6.83143 5.32109 6.83143C5.01154 6.83143 4.83595 6.95704 4.83595 7.16597C4.83595 7.35823 4.99487 7.45886 5.49668 7.63444C6.27407 7.9017 6.60025 8.29517 6.60861 8.89697C6.60861 9.65769 6.00681 10.2178 4.83595 10.2178C4.30084 10.2178 3.82401 10.1011 3.51514 9.9339L3.74069 9.02254Z" fill="black"/>
<path d="M7.37709 7.34992C7.37709 6.84043 7.36042 6.40526 7.34375 6.04573H8.41402L8.47235 6.59752H8.49734C8.67292 6.33862 9.03245 5.9541 9.73484 5.9541C10.2616 5.9541 10.6795 6.22136 10.8551 6.64753H10.8718C11.0224 6.4386 11.2063 6.27133 11.3986 6.15472C11.6248 6.02079 11.8753 5.95414 12.1766 5.95414C12.9623 5.95414 13.5564 6.50593 13.5564 7.72616V10.1346H12.3189V7.91066C12.3189 7.31657 12.126 6.97372 11.7165 6.97372C11.4242 6.97372 11.2147 7.17429 11.1313 7.4172C11.098 7.50883 11.0814 7.6428 11.0814 7.74339V10.1345H9.84386V7.84337C9.84386 7.32489 9.65992 6.97372 9.25809 6.97372C8.93255 6.97372 8.73961 7.22494 8.66465 7.43387C8.62299 7.53386 8.61468 7.65112 8.61468 7.75174V10.1345H7.37718V7.34992H7.37709Z" fill="black"/>
<path d="M14.5579 9.02254C14.7918 9.16483 15.2769 9.3321 15.6531 9.3321C16.0376 9.3321 16.1966 9.19817 16.1966 8.98924C16.1966 8.77967 16.071 8.67969 15.5948 8.52077C14.7501 8.23624 14.4239 7.77673 14.4323 7.29159C14.4323 6.53087 15.0847 5.9541 16.096 5.9541C16.5728 5.9541 16.999 6.0624 17.2502 6.18802L17.0246 7.06599C16.8406 6.96536 16.4894 6.83143 16.1382 6.83143C15.8287 6.83143 15.6531 6.95704 15.6531 7.16597C15.6531 7.35823 15.812 7.45886 16.3138 7.63444C17.0912 7.9017 17.4174 8.29517 17.4257 8.89697C17.4257 9.65769 16.824 10.2178 15.6531 10.2178C15.118 10.2178 14.6411 10.1011 14.3323 9.9339L14.5579 9.02254Z" fill="black"/>
</g>
<defs>
<clipPath id="clip0_416_894">
<rect width="21" height="21" fill="white"/>
</clipPath>
</defs>
</svg>
